<?xml version="1.0" encoding="UTF-8" standalone="no"?>
<!-- Created with Inkscape (http://www.inkscape.org/) -->

<svg
   width="450"
   height="400"
   viewBox="0 0 450 400.00002"
   version="1.1"
   id="svg1"
   inkscape:version="1.4 (86a8ad7, 2024-10-11)"
   sodipodi:docname="banner.svg"
   xml:space="preserve"
   xmlns:inkscape="http://www.inkscape.org/namespaces/inkscape"
   xmlns:sodipodi="http://sodipodi.sourceforge.net/DTD/sodipodi-0.dtd"
   xmlns:xlink="http://www.w3.org/1999/xlink"
   xmlns="http://www.w3.org/2000/svg"
   xmlns:svg="http://www.w3.org/2000/svg"><sodipodi:namedview
     id="namedview1"
     pagecolor="#ffffff"
     bordercolor="#000000"
     borderopacity="0.25"
     inkscape:showpageshadow="2"
     inkscape:pageopacity="0.0"
     inkscape:pagecheckerboard="0"
     inkscape:deskcolor="#d1d1d1"
     inkscape:document-units="px"
     inkscape:zoom="0.83673469"
     inkscape:cx="261.73171"
     inkscape:cy="259.93902"
     inkscape:current-layer="svg1" /><defs
     id="defs1"><linearGradient
       id="linearGradient109"
       inkscape:collect="always"><stop
         style="stop-color:#000000;stop-opacity:0.05;"
         offset="0"
         id="stop110" /><stop
         style="stop-color:#000000;stop-opacity:0.15000001;"
         offset="1"
         id="stop109" /></linearGradient><linearGradient
       id="linearGradient3"
       inkscape:collect="always"><stop
         style="stop-color:#fff68c;stop-opacity:1;"
         offset="0"
         id="stop4" /><stop
         style="stop-color:#fff04d;stop-opacity:1;"
         offset="1"
         id="stop3" /></linearGradient><mask
       maskUnits="userSpaceOnUse"
       id="mask90"><path
         id="path91"
         style="fill:#ffffff;fill-opacity:1;stroke:#ffffff;stroke-width:1.5;stroke-linecap:round;stroke-dasharray:none;stroke-opacity:1"
         d="m 65.077617,95.651304 c 0,0 -3.353684,1.639449 -4.848419,1.598 -1.494734,-0.04145 -2.920659,-0.795918 -3.844535,-1.598 -0.923876,-0.802082 -1.003688,-2.300769 -1.003688,-2.300769 0,0 3.190992,-1.598231 4.848418,-1.598231 1.657426,0 5.248747,1.598231 5.248747,1.598231 z"
         sodipodi:nodetypes="czzczcc"
         inkscape:label="Основа" /></mask><mask
       maskUnits="userSpaceOnUse"
       id="mask1"><path
         id="path1"
         style="fill:#ffffff;fill-opacity:1;stroke:#ffffff;stroke-width:1.5;stroke-linecap:round;stroke-dasharray:none;stroke-opacity:1"
         d="m 65.077617,95.651304 c 0,0 -3.353684,1.639449 -4.848419,1.598 -1.494734,-0.04145 -2.920659,-0.795918 -3.844535,-1.598 -0.923876,-0.802082 -1.003688,-2.300769 -1.003688,-2.300769 0,0 3.190992,-1.598231 4.848418,-1.598231 1.657426,0 5.248747,1.598231 5.248747,1.598231 z"
         sodipodi:nodetypes="czzczcc"
         inkscape:label="Основа" /></mask><linearGradient
       inkscape:collect="always"
       xlink:href="#linearGradient99"
       id="linearGradient100"
       x1="60.440136"
       y1="129.87656"
       x2="60.440136"
       y2="223.09695"
       gradientUnits="userSpaceOnUse" /><linearGradient
       id="linearGradient99"><stop
         style="stop-color:#ffc040;stop-opacity:1;"
         offset="0"
         id="stop125" /><stop
         style="stop-color:#ffdf40;stop-opacity:1;"
         offset="1"
         id="stop126" /></linearGradient><linearGradient
       inkscape:collect="always"
       xlink:href="#linearGradient103"
       id="linearGradient102"
       x1="60.440136"
       y1="129.87656"
       x2="60.440136"
       y2="223.09695"
       gradientUnits="userSpaceOnUse" /><linearGradient
       id="linearGradient103"
       inkscape:collect="always"><stop
         style="stop-color:#806020;stop-opacity:1;"
         offset="0"
         id="stop102" /><stop
         style="stop-color:#807020;stop-opacity:1;"
         offset="1"
         id="stop103" /></linearGradient><linearGradient
       x1="221.30913"
       y1="212.06819"
       x2="221.30913"
       y2="274.80515"
       gradientUnits="userSpaceOnUse"
       id="color-5-65"
       gradientTransform="matrix(0.29106323,0,0,0.29106323,-32.230673,-38.836189)"><stop
         offset="0"
         stop-color="#0066ff"
         id="stop5928" /><stop
         offset="1"
         stop-color="#0012b8"
         id="stop5930" /></linearGradient><linearGradient
       x1="221.30913"
       y1="212.06819"
       x2="221.30913"
       y2="274.80515"
       gradientUnits="userSpaceOnUse"
       id="color-6-1"
       gradientTransform="matrix(0.29106323,0,0,0.29106323,-32.230673,-38.836189)"><stop
         offset="0"
         stop-color="#003380"
         id="stop5933" /><stop
         offset="1"
         stop-color="#00095c"
         id="stop5935" /></linearGradient><linearGradient
       inkscape:collect="always"
       xlink:href="#color-7-0"
       id="linearGradient1"
       gradientUnits="userSpaceOnUse"
       gradientTransform="matrix(0.29106323,0,0,0.29106323,-32.230673,-38.836189)"
       x1="250.44604"
       y1="258.45514"
       x2="250.44604"
       y2="296.19962" /><linearGradient
       x1="250.44604"
       y1="258.45514"
       x2="250.44604"
       y2="296.19962"
       gradientUnits="userSpaceOnUse"
       id="color-7-0"
       gradientTransform="matrix(0.29106323,0,0,0.29106323,-32.230673,-38.836189)"><stop
         offset="0"
         stop-color="#00ff1b"
         id="stop5938" /><stop
         offset="1"
         stop-color="#00b712"
         id="stop5940" /></linearGradient><linearGradient
       inkscape:collect="always"
       xlink:href="#color-8-0"
       id="linearGradient2"
       gradientUnits="userSpaceOnUse"
       gradientTransform="matrix(0.29106323,0,0,0.29106323,-32.230673,-38.836189)"
       x1="250.44604"
       y1="258.45514"
       x2="250.44604"
       y2="296.19962" /><linearGradient
       x1="250.44604"
       y1="258.45514"
       x2="250.44604"
       y2="296.19962"
       gradientUnits="userSpaceOnUse"
       id="color-8-0"
       gradientTransform="matrix(0.29106323,0,0,0.29106323,-32.230673,-38.836189)"><stop
         offset="0"
         stop-color="#00800d"
         id="stop5943" /><stop
         offset="1"
         stop-color="#005c09"
         id="stop5945" /></linearGradient><linearGradient
       inkscape:collect="always"
       xlink:href="#linearGradient3"
       id="linearGradient4"
       x1="200"
       y1="0"
       x2="200"
       y2="400"
       gradientUnits="userSpaceOnUse"
       gradientTransform="scale(1.125,1)" /><radialGradient
       inkscape:collect="always"
       xlink:href="#linearGradient109"
       id="radialGradient110"
       cx="225"
       cy="200"
       fx="225"
       fy="200"
       r="225"
       gradientTransform="matrix(1,0,0,0.88888889,0,22.222222)"
       gradientUnits="userSpaceOnUse" /></defs><path
     id="rect1"
     style="opacity:1;fill:url(#linearGradient4);stroke-width:0"
     d="M 0,0 H 450 V 400 H 0 Z" /><path
     d="M 59.058594,0 85.597656,58.517578 105.65625,48.765625 85.597656,0 Z M 105.65625,0 120.82813,29.259766 142.50195,18.421875 128.95508,0 Z M 334.30859,0 341.89453,14.628906 392.28516,0 Z m 73.14649,0 5.88281,11.919922 L 438.88281,9.6757813 436.94727,0 Z m -99.69531,1.0839844 -28.7168,10.8359376 10.83594,10.83789 30.88476,-11.921874 z M 260.62109,7.3144531 246.5332,32.509766 256.28516,53.099609 283.91797,62.310547 278.5,34.947266 273.625,20.046875 Z m -76.9414,7.3144529 -41.17774,18.964844 10.83594,21.673828 41.7207,-17.339844 z M 8.1269531,29.800781 0,37.386719 v 70.978511 l 5.4179687,7.58594 7.5859373,-4.87695 3.251953,5.96094 L 49.306641,96.988281 38.470703,78.564453 61.769531,60.685547 41.720703,35.21875 27.632812,46.597656 Z M 414.5,30.341797 l -21.67383,11.378906 7.58594,23.839844 25.4668,-11.376953 z m -198.31055,14.630859 -17.33789,44.970703 46.05469,15.712891 15.71484,-43.345703 z m 140.33399,9.210938 -56.34961,23.298828 5.96094,15.169922 -4.33594,2.708984 -5.41797,-2.708984 -7.04297,-16.796875 -10.83789,7.585937 9.75391,18.421874 13.0039,7.04492 15.71289,-6.50195 -2.16797,-4.335938 54.1836,-19.505859 z m -221.60742,21.130859 -10.4375,5.40625 c 4.98523,-0.122249 10.10113,0.150165 14.04296,1.462891 z m 9.43945,17.980469 c -3.90091,7.163148 -20.39369,8.105718 -29.48828,8.568358 -7.26795,0.36972 -18.05257,0.89442 -24.296878,-2.123046 l 10.210938,18.378906 45.51367,-21.130859 z m 229.50781,17.238278 -23.8418,9.21094 33.05274,99.1543 24.38086,-6.50196 z m -213.48242,3.79297 -67.185548,30.3418 -2.708984,27.63476 20.046872,14.08594 66.64453,-29.25781 3.79297,-25.4668 z M 47.681641,130.03906 0,152.25391 v 95.09179 l 85.597656,-36.03125 z m 236.236329,22.21485 -60.14258,27.63281 17.33984,39.01172 -16.25586,5.41992 10.29493,20.04687 80.73242,-33.05078 -8.66992,-21.67383 -7.04297,2.16797 z m -102.4043,50.39062 -56.89258,29.25781 27.0918,60.14453 59.05859,-26.00781 z M 450,227.56836 l -58.25781,23.83984 14.08789,31.42774 -17.88086,8.66797 15.17187,34.13671 30.88477,-13.54687 -7.58594,-15.17188 L 450,289.33789 Z m -114.06641,16.79687 -74.23047,27.63282 23.29883,61.22656 76.39844,-28.7168 z M 55.267578,271.45703 0,294.75586 V 400 H 56.78125 L 43.345703,376.61719 86.693359,359.23242 Z M 184.22266,325.64062 97.529297,363.02539 114.86719,400 h 99.15625 z m 108.36523,17.3379 -27.63281,10.29492 L 299.08984,400 h 36.84375 z M 335.93359,400 h 94.2793 l -10.83594,-24.51172 -21.13281,9.75195 -14.08594,-31.96679 -55.80859,24.92383 z"
     style="fill-opacity:0.2;stroke-width:0"
     id="path113" /><path
     d="m 85.597656,0 20.058594,48.765625 -20.058594,9.751953 24.855474,23.068359 c 1.28765,-0.09386 2.74355,-0.23355 3.87304,-0.310546 2.38063,-0.162285 5.30987,-0.371887 8.31055,-0.496094 l 10.45117,-5.830078 z m 20.058594,0 -4.875,14.628906 28.23437,47.681641 22.60547,-10.476563 -9.11914,-18.240234 4.85352,-2.236328 -4.85352,-12.935547 -21.67382,10.837891 z m 228.65234,0 -14.11718,17.269531 0.57226,-6.433593 -30.88476,11.921874 -10.83594,-10.83789 -4.19531,11.865234 3.65234,11.16211 5.41797,27.363281 1.33398,3.677734 31.85352,-14.017578 -1.40625,8.570313 51.05078,-17.238282 -10.22656,10.88086 12.46289,24.380859 -54.1836,19.505859 2.16797,4.335938 -15.71289,6.50195 -13.0039,-7.04492 L 278.5,83.441406 265.22656,110.5332 l 8.93946,14.08789 12.46289,5.95899 13.27343,-3.25 7.85743,-13.00391 59.05859,-22.757811 19.09766,-3.660156 39.96289,-33.724609 -25.4668,11.376953 L 392.82617,41.720703 414.5,30.341797 438.88281,9.6757813 413.33789,11.919922 407.45508,0 394.79102,13.472656 392.28516,0 341.89453,14.628906 Z M 283.91797,62.310547 256.28516,53.099609 246.5332,32.509766 231.54883,50.964844 260.62109,62.310547 244.90625,105.65625 198.85156,89.943359 210.77148,136 l 31.42579,14.35742 13.54687,-36.03125 2.14063,-22.835936 17.57226,-8.27539 z m -85.06641,27.632812 8.66992,-22.486328 -12.46289,-29.529297 -41.7207,17.339844 21.98242,46.910152 z M 41.720703,35.21875 61.769531,60.685547 38.470703,78.564453 49.306641,96.988281 16.255859,117.03516 13.003906,111.07422 5.4179687,115.95117 0,108.36523 v 32.66993 l 3.4179688,6.91601 15.1074222,-9.41601 1.082031,4.58398 28.074219,-13.08008 30.117187,-17.09179 -4.738281,-9.67579 13.115234,-7.67773 c -0.297306,-0.728662 -0.519361,-1.506522 -0.566406,-2.398438 -0.221701,-4.203141 2.872055,-6.792592 7.240234,-8.49414 z m 5.960938,94.82031 37.916015,81.27539 L 0,247.3457 18.421875,254.11914 107.82422,216.73242 71.792969,137.08203 Z M 450,74.773437 397.70312,104.57227 422.08594,170.13477 450,164.7168 Z m -315.08398,0.541016 3.60546,6.869141 c 1.14842,0.382449 2.24522,0.810126 3.14649,1.392578 z m 165.25781,2.167969 -6.37891,9.064453 2.58594,6.105469 5.41797,2.708984 4.33594,-2.708984 z m -155.36524,9.9375 c 0.20861,0.610026 0.35468,1.2633 0.40235,1.982422 0.0978,1.475858 -0.23576,2.75462 -0.85547,3.892578 l 1.93945,3.693359 -45.51367,21.130859 20.36719,13.92578 39.23242,-17.71875 20.58984,17.33789 z m 36.16211,44.244138 -3.79297,25.4668 -66.64453,29.25781 16.79688,16.25586 67.72851,-30.3418 3.79297,-20.04882 z m 169.05078,-11.91992 -38.46875,25.38867 28.79297,79.89258 42.72852,-6.12695 z m -126.24609,60.14258 -13.00391,3.56055 18.52149,39.39257 11.82226,-3.9414 z m -38.39258,19.8164 -53.02148,23.60743 -7.74024,8.59179 56.89258,-29.25781 29.25781,63.39453 4.41211,-4.02539 z m 130.50391,11.61133 -80.73242,33.05078 -10.29493,-20.04687 -2.51562,1.34961 10.17578,21.15625 83.61719,-34.25195 z m 85.04297,7.58399 -52.25586,14.07617 14.84961,25.5 -16.21094,7.74023 9.02344,24.32813 46.78515,35.09765 -15.17187,-34.13671 17.88086,-8.66797 L 391.74219,251.4082 450,227.56836 Z m -72.58008,11.10351 -73.46875,28.19727 6.82226,13.79883 74.23047,-27.63282 z M 118.11914,237.86328 15.712891,275.79102 0,294.75586 55.267578,271.45703 86.693359,359.23242 43.345703,376.61719 56.78125,400 h 25.5625 l 19.60742,-27.54492 -4.421873,-9.42969 20.589843,-24.85937 25.46484,-42.32618 z M 97.529297,363.02539 184.22266,325.64062 214.02344,400 225.24609,330.90234 207.05664,276.33398 150.9375,298.54883 Z M 348.87109,319.8457 306.02344,338.16602 335.93359,400 l -7.58398,-21.80273 55.80859,-24.92383 14.08594,31.96679 21.13281,-9.75195 -35.11914,-30.76367 -7.18945,3.31836 z M 335.93359,400 l -39.28515,-71.15234 -11.64649,4.37695 -15.16992,4.94141 -4.87695,15.10742 27.63281,-10.29492 z"
     style="fill:url(#radialGradient110);stroke-width:0"
     id="path114" /><path
     style="fill:#000000;fill-opacity:0.30000001;stroke:none;stroke-width:0;stroke-dasharray:none"
     d="M 85.609113,93.19473 C 85.068257,82.940842 103.84566,81.988912 114.32609,81.274474 c 10.48043,-0.714438 30.17063,-2.638553 30.8843,8.127447 0.71367,10.765999 -19.80308,11.925949 -30.34247,12.462089 -10.53939,0.53614 -28.717951,1.58461 -29.258807,-8.66928 z"
     id="path24"
     sodipodi:nodetypes="zzzzz" /><path
     d="M 221.74291,9.3877738 C 203.87417,9.6558862 187.90126,16.250617 176.83716,27.928 c -7.34002,-2.68108 -15.30464,-4.070971 -23.36335,-4.0771 -31.3286,3.56e-4 -56.725108,20.468448 -56.724781,45.716823 0.02326,10.180373 4.262201,20.063229 12.044861,28.08194 -11.252993,17.520147 -17.645834,41.840147 -17.690888,67.300637 0.106484,39.66382 15.504508,74.86419 38.364508,87.70241 -0.71296,0.0997 -1.41648,0.2211 -2.10989,0.36417 -21.28472,6.99522 -26.46785,34.51425 -11.5769,61.46574 9.58875,17.15511 25.57552,30.6371 42.08783,35.49356 8.87423,16.64659 20.39118,28.69922 33.54858,35.10904 22.81622,10.84551 48.82006,4.01785 71.61198,-18.80267 10.50105,12.9642 24.65939,20.31234 39.45505,20.47705 31.32827,-5.6e-4 56.72466,-31.58654 56.72476,-70.54971 -0.0986,-12.02118 -2.66533,-23.81165 -7.45682,-34.25252 4.80205,0.21535 9.3626,-0.35014 13.55249,-1.68048 24.86041,-8.52301 30.91346,-42.04916 13.51995,-74.88314 -7.34443,-13.79917 -18.09247,-25.9068 -30.39902,-34.24439 3.34736,-2.68737 6.28619,-5.74761 8.70404,-9.06361 12.1384,-16.82271 8.54058,-36.37939 -8.10994,-44.08314 6.90269,-7.69417 10.66162,-16.92952 10.75492,-26.423836 3.2e-4,-25.249016 -25.39742,-45.717373 -56.7268,-45.716824 -3.17384,0.07256 -6.3345,0.359756 -9.4487,0.858551 C 285.98898,36.345209 276.08534,27.495664 264.77683,20.966005 251.20726,13.284794 236.23135,9.2555368 221.74291,9.3877738 Z"
     style="display:inline;fill:#ffffff;stroke:#808080;stroke-width:2"
     id="path18" /><path
     d="m 166.19424,61.428863 c 12.40303,-6.970158 26.03564,-8.826193 38.32635,-5.218017 3.97682,-4.784532 8.90061,-8.930349 14.44343,-12.161309 21.55759,-12.543842 47.23168,-8.623208 57.34476,8.756992 4.06179,7.017103 5.10353,15.517403 2.96014,24.153404 14.76102,7.554489 28.90142,21.73578 39.1307,39.243827 15.81416,27.34579 19.31827,57.74187 8.7305,75.73246 0.53053,-0.21685 1.06326,-0.41497 1.59771,-0.59412 17.44814,-3.70723 32.03752,13.16053 32.58643,37.67535 0.27343,15.64834 -5.32695,31.33001 -14.74393,41.28461 0.5614,15.0122 -2.53579,27.92022 -9.02203,37.60079 -11.35583,16.60136 -31.98412,22.31348 -56.80824,15.73063 -2.03302,13.12876 -8.83217,23.85601 -18.94721,29.89362 -21.55746,12.54358 -51.68477,0.96975 -67.29164,-25.85104 -4.74727,-8.31443 -7.70379,-17.4583 -8.58884,-26.56395 -3.21808,2.071 -6.58274,3.5078 -9.99871,4.26969 -20.52056,4.08728 -38.11471,-16.56725 -39.29783,-46.1334 -0.47354,-12.4396 2.07254,-25.07761 7.20112,-35.74449 -3.37978,-0.50959 -6.6278,-1.43943 -9.61977,-2.75393 -15.09092,-6.71989 -20.4487,-21.62257 -12.07711,-33.59249 -7.83172,-2.53253 -14.11751,-7.38472 -17.98468,-13.88291 -10.113791,-17.38038 -0.83605,-41.63941 20.72217,-54.18344 2.21301,-1.22087 4.50293,-2.28872 6.84562,-3.1923 1.0807,-10.18908 4.35076,-20.24624 9.51676,-29.26899 6.2606,-10.720776 14.95172,-19.490786 24.9743,-25.200987 z"
     style="display:inline;fill:#ffffff;stroke:#808080;stroke-width:2"
     id="path19" /><g
     id="g2"
     inkscape:highlight-color="#ffd9b2"
     inkscape:label="Основа"
     transform="rotate(15,213.88603,918.7865)"
     style="display:inline"><path
       id="rect12"
       style="fill:#ffd9b2;stroke:#806d59;stroke-width:2;stroke-linecap:round"
       d="m 10.266408,125.28464 c 2.0432,-1.08496 6.671767,10.23452 8.758004,9.19241 11.970586,-5.97947 23.762638,-10.95968 24.804411,-11.39786 0,0 -1.470888,13.16814 1.071804,17.8564 6.047248,11.14999 12.911353,26.41683 19.244683,37.38649 6.33334,10.96966 14.413217,20.9107 20.75532,31.89554 1.107999,1.91911 0.434254,4.36808 -1.51063,5.49096 l -50.026457,28.88279 c -1.944891,1.12288 -4.402626,0.48188 -5.510634,-1.43724 C 21.510807,232.16929 16.941565,220.2014 10.608225,209.23173 4.2748855,198.26207 -5.5145327,184.68417 -12.147093,173.8721 c -2.788798,-4.54617 -14.928198,-9.85641 -14.928198,-9.85641 0.640215,-0.48572 10.965863,-8.31038 22.2730594,-15.78231 1.9456029,-1.28569 -5.5430464,-10.95384 -3.58186,-12.18087 3.9269621,-2.4569 14.2370343,-8.42436 18.6504996,-10.76787 z"
       sodipodi:nodetypes="sscszsssszscsss"
       inkscape:label="Туловище" /><g
       id="g32"
       inkscape:label="Рука 2"
       transform="matrix(0.96592582,0.25881905,0.25881905,-0.96592582,-2.4986299,214.3354)"><path
         d="m 31.44014,88.752304 c 0,-4.418278 -3.581722,-8 -8,-8 -4.418278,0 -8,3.581722 -8,8 l 1,44.999996 c 0,3.866 3.134007,7 7,7 3.865993,0 7,-3.134 7,-7 z"
         style="fill:#ffd9b2;stroke:#806d59;stroke-width:2;stroke-linecap:round"
         id="path31"
         sodipodi:nodetypes="csccscc"
         inkscape:label="Вышелоктевая часть" /><path
         d="m 19.984526,140.25391 c 3.734259,1.00059 7.572622,-1.21549 8.573214,-4.94975 1.000592,-3.73426 -1.215488,-7.57262 -4.949748,-8.57322 l -35.998074,-8.61037 c -3.200798,-0.85766 -6.490818,1.04184 -7.348469,4.24264 -0.857652,3.20079 1.041842,6.49081 4.24264,7.34847 z"
         style="display:inline;fill:#ffd9b2;stroke:#806d59;stroke-width:2;stroke-linecap:round"
         id="path32"
         sodipodi:nodetypes="csccscc"
         inkscape:label="Нижнелоктевая часть" /><path
         id="path4"
         style="display:inline;fill:#ffd9b2;stroke:#806d59;stroke-width:2;stroke-linecap:round"
         d="m -12.497923,118.09994 c -1.98657,-0.5323 -1.415674,-2.36399 -3.54379,-3.59774 -1.07327,-0.62196 -11.185559,-6.64965 -13.03123,-3.43962 -1.845659,3.20997 8.591452,6.32509 7.6419,6.72959 -1.89914,0.80902 -16.90737,-7.47466 -18.216398,-3.89298 -1.309032,3.58169 12.419808,6.01031 12.419808,6.01031 0,0 -13.41946,-4.29144 -14.12414,-1.49069 -0.704699,2.80074 13.650442,5.52973 13.650442,5.52973 0,0 -11.975031,-3.88443 -12.700181,-0.94558 -0.725131,2.93883 9.346001,3.71033 12.60956,4.47666 0.8159,0.1916 -7.51501,-1.86156 -7.396089,0.76148 0.118927,2.62304 9.813298,3.29862 13.313539,2.87546 3.50025,-0.42317 5.260878,-1.63374 6.25514,-1.36734"
         sodipodi:nodetypes="cssszczczszzc"
         inkscape:label="Рука - Тип 2" /><path
         style="display:inline;fill:#ffd9b2;fill-opacity:1;stroke-linecap:round"
         d="m 29.939453,111.24512 -0.5,22.49511 v 0.0117 c 0,3.32556 -2.674446,6 -6,6 -3.325554,0 -6,-2.67444 -6,-6 v -0.0117 l -0.5,-22.49414 z"
         id="path35"
         inkscape:label="Перекрыватель нижнелоктевой части"
         sodipodi:nodetypes="ccsssccc" /></g><g
       id="g12"
       inkscape:label="Рука 1"
       transform="rotate(105,-28.34467,113.25291)"><path
         d="m 31.44014,88.752304 c 0,-4.418278 -3.581722,-8 -8,-8 -4.418278,0 -8,3.581722 -8,8 l 1,44.999996 c 0,3.866 3.134007,7 7,7 3.865993,0 7,-3.134 7,-7 z"
         style="fill:#ffd9b2;stroke:#806d59;stroke-width:2;stroke-linecap:round"
         id="path6"
         sodipodi:nodetypes="csccscc"
         inkscape:label="Вышелоктевая часть" /><path
         d="m 20.959543,140.17115 c 3.734259,1.00059 7.572621,-1.21549 8.573214,-4.94975 1.000592,-3.73426 -1.215488,-7.57262 -4.949748,-8.57321 l -35.998074,-8.61038 c -3.200798,-0.85766 -6.490818,1.04184 -7.348469,4.24264 -0.857651,3.20079 1.041842,6.49081 4.24264,7.34847 z"
         style="display:inline;fill:#ffd9b2;stroke:#806d59;stroke-width:2;stroke-linecap:round"
         id="path7"
         sodipodi:nodetypes="csccscc"
         inkscape:label="Нижнелоктевая часть" /><path
         id="path8"
         style="display:inline;fill:#ffd9b2;stroke:#806d59;stroke-width:2;stroke-linecap:round"
         d="m -12.096345,117.88302 c -1.98657,-0.5323 -1.41569,-2.36399 -3.54379,-3.59774 -1.07327,-0.62196 -11.18555,-6.64966 -13.03122,-3.43968 -1.84566,3.20998 8.59147,6.32508 7.64191,6.7296 -1.89913,0.80902 -16.90737,-7.47467 -18.2164,-3.89298 -1.30904,3.58168 12.41981,6.01031 12.41981,6.01031 0,0 -13.41946,-4.29144 -14.12415,-1.4907 -0.7047,2.80075 13.65046,5.52973 13.65046,5.52973 0,0 -11.97505,-3.88442 -12.70019,-0.94559 -0.72514,2.93885 9.346,3.71035 12.60956,4.47667 0.81589,0.19159 -7.51501,-1.86156 -7.39608,0.76148 0.11892,2.62304 9.81328,3.29863 13.31352,2.87546 3.50026,-0.42316 5.26088,-1.63373 6.25515,-1.36732"
         sodipodi:nodetypes="cssszczczszzc"
         inkscape:label="Рука - Тип 2" /><path
         style="display:inline;fill:#ffd9b2;fill-opacity:1;stroke-linecap:round"
         d="m 29.939453,111.24512 -0.5,22.49511 v 0.0117 c 0,3.32556 -2.674446,6 -6,6 -3.325554,0 -6,-2.67444 -6,-6 v -0.0117 l -0.5,-22.49414 z"
         id="path12"
         inkscape:label="Перекрыватель нижнелоктевой части"
         sodipodi:nodetypes="ccsssccc" /></g><path
       style="display:inline;fill:#ffd9b2;fill-opacity:1;stroke-linecap:round"
       d="m 7.3759277,141.81531 c 14.1429573,-8.16543 33.0781433,-16.19518 35.3627633,-17.16007 -0.104214,1.07533 -0.288535,2.56035 -0.327398,5.58139 -0.0506,3.93397 0.113703,8.41634 1.610634,11.1764 6.016064,11.0925 12.879185,26.36209 19.256961,37.40873 6.386674,11.06204 14.466894,21.00271 20.755732,31.89529 0.83604,1.44807 0.34081,3.26733 -1.145442,4.12542 l -50.026495,28.88281 c -1.486253,0.85809 -3.307702,0.37637 -4.143743,-1.0717 C 22.430109,231.761 17.861344,219.79298 11.474667,208.73094 5.0968922,197.6843 -4.6954033,184.10587 -11.293755,173.34956 c -1.641817,-2.67642 -5.4415,-5.05989 -8.873736,-6.98305 -2.635733,-1.47687 -4.013952,-2.05976 -4.997317,-2.50717 1.978161,-1.49628 18.3979184,-13.87865 32.5407357,-22.04403 z"
       id="path29"
       inkscape:label="Перекрыватель рук и ног"
       sodipodi:nodetypes="scsssssssssscs" /><g
       id="g30"
       inkscape:label="Голова"
       transform="matrix(0.95068147,-0.5488762,0.54845287,0.94994826,-118.21522,56.979645)"
       style="display:inline;stroke-width:0.911304"><path
         id="ellipse167"
         style="display:inline;fill:#ffd9b2;stroke:#806d59;stroke-width:1.82261;stroke-linecap:round;stroke-linejoin:round"
         inkscape:label="Ухо 2"
         d="m 82.758522,98.564789 a 2.7328568,5.0141044 0 0 1 -2.732857,5.014101 2.7328568,5.0141044 0 0 1 -2.732856,-5.014101 2.7328568,5.0141044 0 0 1 2.732856,-5.014105 2.7328568,5.0141044 0 0 1 2.732857,5.014105 z" /><path
         id="path167"
         style="display:inline;fill:#ffd9b2;stroke:#806d59;stroke-width:1.82261;stroke-linecap:round;stroke-linejoin:round"
         inkscape:label="Ухо 1"
         d="m 43.587578,98.564789 a 2.7328568,5.0141044 0 0 1 -2.732857,5.014101 2.7328568,5.0141044 0 0 1 -2.732857,-5.014101 2.7328568,5.0141044 0 0 1 2.732857,-5.014105 2.7328568,5.0141044 0 0 1 2.732857,5.014105 z" /><path
         id="path30"
         style="fill:#ffd9b2;stroke:#806d59;stroke-width:1.82261;stroke-linecap:round"
         d="m 81.44014,89.708824 c 0,8.008133 -4.079089,19.941636 -7.162913,23.027836 -3.083824,3.0862 -9.387637,11.01564 -13.837087,11.01564 -4.44945,0 -10.759854,-7.93603 -13.837087,-11.01564 -3.077233,-3.07961 -7.162913,-15.019703 -7.162913,-23.027836 0,-16.016258 9.40202,-23.95652 21,-23.95652 11.597979,0 21,7.940262 21,23.95652 z"
         sodipodi:nodetypes="szszsss"
         inkscape:label="Основа" /><path
         style="display:inline;fill:none;fill-opacity:1;stroke:#806d59;stroke-width:1.82262;stroke-linecap:round"
         d="m 57.440145,112.90123 c 0,0 1.274836,0.50007 2.999994,0.50007 1.72516,0 2.999996,-0.50007 2.999996,-0.50007"
         id="path34"
         sodipodi:nodetypes="czc"
         inkscape:label="Рот" /><path
         style="fill:none;fill-opacity:1;stroke:#806d59;stroke-width:1.82261;stroke-linecap:round"
         d="m 60.440137,96.752304 c 0,0 -0.316105,1.277461 0.500003,2.156 1.122184,1.208026 3.499997,4.281446 3.499997,5.469716 0,1.58368 -3.667443,2.37428 -3.667443,2.37428"
         id="path33"
         sodipodi:nodetypes="cssc"
         inkscape:label="Нос" /><g
         id="g89"
         inkscape:label="Глаз 2"
         transform="matrix(-1,0,0,1,129.88028,1.5)"
         style="stroke-width:0.911304"><path
           id="path83"
           style="fill:#ffffff;fill-opacity:1;stroke:#808080;stroke-width:1.36695;stroke-linecap:round;stroke-dasharray:none;stroke-opacity:1"
           d="m 65.077617,95.651304 c 0,0 -3.353684,1.639449 -4.848419,1.598 -1.494734,-0.04145 -2.920659,-0.795918 -3.844535,-1.598 -0.923876,-0.802082 -1.003688,-2.300769 -1.003688,-2.300769 0,0 3.190992,-1.598231 4.848418,-1.598231 1.657426,0 5.248747,1.598231 5.248747,1.598231 z"
           sodipodi:nodetypes="czzczcc"
           inkscape:label="Основа" /><g
           id="g87"
           inkscape:label="Зрачок"
           mask="url(#mask90)"
           style="stroke-width:0.911304"><path
             id="path84"
             style="fill:#662d00;stroke:#331700;stroke-width:0.911304;stroke-linecap:round"
             inkscape:label="Основа"
             d="m 57.94014,94.752839 a 2.5,2.5005402 0 0 0 2.5,2.500537 2.5,2.5005402 0 0 0 2.5,-2.500537 2.5,2.5005402 0 0 0 -2.5,-2.500539 2.5,2.5005402 0 0 0 -2.5,2.500539 z" /><path
             id="path85"
             style="fill:#803800;fill-opacity:1;stroke:#401d00;stroke-width:0.911304;stroke-linecap:round;stroke-opacity:1"
             inkscape:label="Светлость зрачка"
             d="m 58.672374,96.520985 c 0.97631,0.976528 2.559223,0.976528 3.535533,0 1.617984,-1.61833 -5.173199,-1.638017 -3.535533,0 z"
             sodipodi:nodetypes="sss" /><path
             id="path86"
             style="display:inline;fill:#000000;fill-opacity:1;stroke-width:0;stroke-linecap:round"
             d="m 59.398474,94.752304 a 1.0416667,1.2500004 0 0 0 1.041665,1.249997 1.0416667,1.2500004 0 0 0 1.041668,-1.249997 1.0416667,1.2500004 0 0 0 -1.041668,-1.25 1.0416667,1.2500004 0 0 0 -1.041665,1.25 z"
             inkscape:label="Чёрная часть" /><path
             id="path87"
             style="display:inline;fill:#ffffff;fill-opacity:1;stroke-width:0;stroke-linecap:round"
             d="m 58.981807,93.606471 a 0.52083337,0.5208335 0 0 0 0.520833,0.520833 0.52083337,0.5208335 0 0 0 0.520834,-0.520833 0.52083337,0.5208335 0 0 0 -0.520834,-0.520834 0.52083337,0.5208335 0 0 0 -0.520833,0.520834 z"
             inkscape:label="Отблеск" /></g><path
           style="display:inline;fill:none;fill-opacity:1;stroke:#662d00;stroke-width:0.911299;stroke-linecap:round;stroke-dasharray:none;stroke-opacity:1"
           d="m 54.94014,92.252073 c 0,0 1.707837,-1.499772 5.5,-1.499772 3.792163,0 5.5,1.499772 5.5,1.499772"
           id="path88"
           sodipodi:nodetypes="czc"
           inkscape:label="Ресницы" /><path
           style="fill:none;fill-opacity:1;stroke:#662d00;stroke-width:1.82261;stroke-linecap:butt;stroke-dasharray:none;stroke-opacity:1"
           d="m 54.94014,87.752304 c 0,0 1.707837,-0.5 5.5,-0.5 3.792163,0 5.5,0.5 5.5,0.5"
           id="path89"
           sodipodi:nodetypes="czc"
           inkscape:label="Бровь" /></g><g
         id="g98"
         inkscape:label="Глаз 1"
         transform="translate(-9.0000002,1.5)"
         style="stroke-width:0.911304"><path
           id="path92"
           style="fill:#ffffff;fill-opacity:1;stroke:#808080;stroke-width:1.36695;stroke-linecap:round;stroke-dasharray:none;stroke-opacity:1"
           d="m 65.077617,95.651304 c 0,0 -3.353684,1.639449 -4.848419,1.598 -1.494734,-0.04145 -2.920659,-0.795918 -3.844535,-1.598 -0.923876,-0.802082 -1.003688,-2.300769 -1.003688,-2.300769 0,0 3.190992,-1.598231 4.848418,-1.598231 1.657426,0 5.248747,1.598231 5.248747,1.598231 z"
           sodipodi:nodetypes="czzczcc"
           inkscape:label="Основа" /><g
           id="g96"
           inkscape:label="Зрачок"
           mask="url(#mask90)"
           style="stroke-width:0.911304"><path
             id="path93"
             style="fill:#662d00;stroke:#331700;stroke-width:0.911304;stroke-linecap:round"
             inkscape:label="Основа"
             d="m 62.94014,94.752839 a 2.5,2.5005402 0 0 1 -2.5,2.500537 2.5,2.5005402 0 0 1 -2.5,-2.500537 2.5,2.5005402 0 0 1 2.5,-2.500539 2.5,2.5005402 0 0 1 2.5,2.500539 z" /><path
             id="path94"
             style="fill:#803800;fill-opacity:1;stroke:#401d00;stroke-width:0.911304;stroke-linecap:round;stroke-opacity:1"
             inkscape:label="Светлость зрачка"
             d="m 62.207906,96.520985 c -0.97631,0.976528 -2.559223,0.976528 -3.535533,0 -1.617984,-1.61833 5.173199,-1.638017 3.535533,0 z"
             sodipodi:nodetypes="sss" /><path
             id="path95"
             style="display:inline;fill:#000000;fill-opacity:1;stroke-width:0;stroke-linecap:round"
             d="m 61.481806,94.752304 a 1.0416667,1.2500004 0 0 1 -1.041665,1.249997 1.0416667,1.2500004 0 0 1 -1.041668,-1.249997 1.0416667,1.2500004 0 0 1 1.041668,-1.25 1.0416667,1.2500004 0 0 1 1.041665,1.25 z"
             inkscape:label="Чёрная часть" /><path
             id="path96"
             style="display:inline;fill:#ffffff;fill-opacity:1;stroke-width:0;stroke-linecap:round"
             d="m 61.898473,93.606471 a 0.52083337,0.5208335 0 0 1 -0.520833,0.520833 0.52083337,0.5208335 0 0 1 -0.520834,-0.520833 0.52083337,0.5208335 0 0 1 0.520834,-0.520834 0.52083337,0.5208335 0 0 1 0.520833,0.520834 z"
             inkscape:label="Отблеск" /></g><path
           style="display:inline;fill:none;fill-opacity:1;stroke:#662d00;stroke-width:0.911299;stroke-linecap:round;stroke-dasharray:none;stroke-opacity:1"
           d="m 54.94014,92.252073 c 0,0 1.707837,-1.499772 5.5,-1.499772 3.792163,0 5.5,1.499772 5.5,1.499772"
           id="path97"
           sodipodi:nodetypes="czc"
           inkscape:label="Ресницы" /><path
           style="fill:none;fill-opacity:1;stroke:#662d00;stroke-width:1.82261;stroke-linecap:butt;stroke-dasharray:none;stroke-opacity:1"
           d="m 54.94014,87.752304 c 0,0 1.707837,-0.5 5.5,-0.5 3.792163,0 5.5,0.5 5.5,0.5"
           id="path98"
           sodipodi:nodetypes="czc"
           inkscape:label="Бровь" /></g><g
         id="g79"
         inkscape:label="Волосы"
         style="display:inline;stroke-width:0.911304"><path
           id="path69"
           style="opacity:1;fill:#662d00;stroke:#331700;stroke-width:1.82262;stroke-linecap:round"
           d="m 84.038567,83.557247 c -10e-7,5.510491 0.785975,13.200997 -2.416881,15.909389 -3.202856,2.708394 1.207913,-10.083404 -5.253565,-14.628402 -3.230739,-2.272499 -9.57936,0.591252 -15.92798,0.591252 -6.34862,0 -12.697241,-2.863751 -15.92798,-0.591252 -6.461478,4.544998 -2.050707,17.336796 -5.253564,14.628402 -3.202857,-2.708392 -2.416883,-10.398898 -2.416884,-15.909389 -2e-6,-11.020983 10.565376,-19.955255 23.598428,-19.955255 13.033052,0 23.59843,8.934272 23.598426,19.955255 z"
           sodipodi:nodetypes="szssszsss"
           inkscape:label="Основа" /><path
           style="display:inline;opacity:1;fill:#662d00;fill-opacity:1;stroke:#331700;stroke-width:1.36696;stroke-linecap:round;stroke-dasharray:none;stroke-opacity:1"
           d="m 53.546544,84.004245 -2.734763,3.061597 -0.340459,-4.2158 c 0,0 -0.89449,0.412582 -2.030504,2.044387 -1.136014,1.631804 -3.492961,5.516469 -3.492961,5.516469 0,0 0.448577,-3.841882 1.191397,-6.3722 0.742821,-2.530317 2.186373,-4.482743 2.186373,-4.482743"
           id="path27"
           sodipodi:nodetypes="ccczczc"
           inkscape:label="Волос 4" /><path
           style="display:inline;opacity:1;fill:#662d00;fill-opacity:1;stroke:#331700;stroke-width:1.36696;stroke-linecap:round;stroke-dasharray:none;stroke-opacity:1"
           d="m 64.76275,77.50482 4.973177,2.563852 -5.653237,1.587318 c 0,0 0.823225,1.001019 3.380311,1.966718 2.557087,0.965699 8.543375,2.831608 8.543375,2.831608 0,0 -5.372629,0.500762 -9.041295,0.272982 -3.668664,-0.227778 -6.752712,-1.488326 -6.752712,-1.488326"
           id="path28"
           sodipodi:nodetypes="ccczczc"
           inkscape:label="Волос 3" /><path
           style="display:inline;opacity:1;fill:none;fill-opacity:1;stroke:#331700;stroke-width:1.36695;stroke-linecap:round;stroke-dasharray:none;stroke-opacity:1"
           d="m 57.998443,73.697358 -7.948487,2.142327 4.135777,-4.703161 c 0,0 -3.426523,0.963895 -6.263538,2.521783 -2.837015,1.557889 -5.814412,4.472625 -5.814412,4.472625 0,0 0.825099,-3.796347 2.956762,-6.38045 2.131663,-2.584104 5.416784,-3.912902 5.416784,-3.912902"
           id="path80"
           sodipodi:nodetypes="ccczczc"
           inkscape:label="Волос 2" /><path
           style="display:inline;opacity:1;fill:none;fill-opacity:1;stroke:#331700;stroke-width:1.36695;stroke-linecap:round;stroke-dasharray:none;stroke-opacity:1"
           d="m 71.647326,69.635411 3.476595,2.181393 -4.094807,1.046766 c 0,0 0.5572,0.812785 2.355965,1.658218 1.798764,0.845433 6.022302,2.515336 6.022302,2.515336 0,0 -3.859587,0.205374 -6.477008,-0.100678 -2.617421,-0.306053 -4.783832,-1.400786 -4.783832,-1.400786"
           id="path81"
           sodipodi:nodetypes="ccczczc"
           inkscape:label="Волос 1" /></g></g></g><g
     id="g99"
     inkscape:highlight-color="#ffd500"
     inkscape:label="Наряд: Обычный"
     style="display:inline"
     transform="rotate(-15,247.29015,-490.18068)"><g
       id="g51"
       inkscape:label="Кросовок 2"
       style="display:inline"
       transform="matrix(-1,0,0,1,119.50012,0)"><path
         id="path43"
         style="display:inline;fill:#5c6073;fill-opacity:1;stroke:#2d2f38;stroke-width:2;stroke-linecap:round;stroke-opacity:1"
         d="m 40,317 a 3.9999999,6 0 0 1 4,6 3.9999999,6 0 0 1 -4,6 3.9999999,6 0 0 1 -4,-6 3.9999999,6 0 0 1 4,-6 z"
         inkscape:label="Язычок" /><path
         id="path44"
         style="display:inline;fill:#5c6073;stroke:#2d2f38;stroke-width:2;stroke-linecap:round"
         d="m 31.227907,320.80761 c 1.779821,-1.46969 2.548813,-1.54659 3.584865,-1.25607 C 35.848825,319.84206 37.151938,328.5 40,328.5 c 2.848062,0 4.151175,-8.65794 5.187228,-8.94846 1.036052,-0.29052 1.805044,-0.21362 3.584865,1.25607 3.559641,2.93938 5.813188,16.5571 3.627907,18.74239 -2.745205,2.74522 -22.054074,2.74594 -24.8,0 -2.18562,-2.18563 0.06827,-15.80301 3.627907,-18.74239 z"
         sodipodi:nodetypes="ssssszzs"
         inkscape:label="Основа" /><path
         id="path45"
         style="display:inline;fill:#ffffff;fill-opacity:1;stroke:#808080;stroke-width:2;stroke-linecap:round;stroke-opacity:1"
         d="m 41.599854,337.55 c 0,0 11.610437,1.74452 11.655772,-1.43721 0.02323,-1.63025 -0.314772,-3.65133 -0.314772,-3.65133 -1.056991,1.83076 -7.537081,5.08854 -11.341,5.08854 z"
         sodipodi:nodetypes="cscc"
         inkscape:label="3" /><path
         id="path46"
         style="display:inline;fill:#ffffff;fill-opacity:1;stroke:#808080;stroke-width:2;stroke-linecap:round;stroke-opacity:1"
         d="m 38.4,337.55 c 0,0 -11.610437,1.74452 -11.655772,-1.43721 -0.02323,-1.63025 0.314772,-3.65133 0.314772,-3.65133 1.056991,1.83076 7.537081,5.08854 11.341,5.08854 z"
         sodipodi:nodetypes="cscc"
         inkscape:label="2" /><path
         id="path47"
         style="display:inline;fill:#4d4d4d;fill-opacity:1;stroke:#262626;stroke-width:2;stroke-linecap:round;stroke-opacity:1"
         d="m 44.999927,339.516 a 5,2 0 0 1 -5,2 5,2 0 0 1 -5,-2 5,2 0 0 1 5,-2 5,2 0 0 1 5,2 z"
         inkscape:label="1" /><g
         id="g50"
         inkscape:label="Шнурки"><path
           style="display:inline;fill:none;fill-opacity:1;stroke:#152266;stroke-width:1;stroke-linecap:round;stroke-linejoin:round;stroke-dasharray:none;stroke-opacity:1"
           d="m 33.978113,320.9867 h 12.313594 l -11.66551,2.222 H 44.99554 l -9.721259,2.59234 9.165758,-0.27775 -8.425091,2.68492 h 7.499257"
           id="path48"
           inkscape:label="3" /><path
           id="path49"
           style="display:inline;fill:none;stroke:#152266;stroke-width:0.999998;stroke-linecap:round;stroke-linejoin:round"
           inkscape:label="2"
           d="M 40.576922,320.35715 A 4.0384626,2.3571439 0 0 1 36.53846,322.71429 4.0384626,2.3571439 0 0 1 32.499997,320.35715 4.0384626,2.3571439 0 0 1 36.53846,318 a 4.0384626,2.3571439 0 0 1 4.038462,2.35715 z" /><path
           id="path50"
           style="display:inline;fill:none;stroke:#152266;stroke-width:0.999998;stroke-linecap:round;stroke-linejoin:round"
           inkscape:label="1"
           d="m 47.499999,320.35715 a 4.0384626,2.3571439 0 0 1 -4.038463,2.35714 4.0384626,2.3571439 0 0 1 -4.038462,-2.35714 4.0384626,2.3571439 0 0 1 4.038462,-2.35715 4.0384626,2.3571439 0 0 1 4.038463,2.35715 z" /></g></g><g
       id="g116"
       inkscape:label="Джинсы"
       style="display:inline"><path
         id="path116"
         style="display:inline;fill:#4759b2;fill-opacity:1;stroke:#242d59;stroke-width:2;stroke-linecap:round;stroke-opacity:1"
         d="m 93.349794,203.75243 2.026862,28 c 0,0 -1.878318,10 -34.936515,10 -33.058197,0 -34.936515,-10 -34.936515,-10 l 2.026863,-28 z"
         sodipodi:nodetypes="cczccc"
         inkscape:label="Основа"
         transform="translate(-0.44013977,-39.752304)" /><g
         id="g122"
         inkscape:label="Нога 2"
         style="display:inline;stroke-width:0.968246"
         transform="matrix(-1.0666667,0,0,1,101.86928,-39.752304)"><path
           d="m 36.44014,228.7523 c 0,-8.28427 -6.715729,-15 -15,-15 -8.284271,0 -15.0000002,6.71573 -15.0000002,15 l 3,53 c 0,6.62742 5.3725832,12 12.0000002,12 6.627417,0 12,-5.37258 12,-12 z"
           style="display:inline;fill:#4759b2;fill-opacity:1;stroke:#242d59;stroke-width:1.93649;stroke-linecap:round;stroke-dasharray:none;stroke-opacity:1"
           id="path119"
           sodipodi:nodetypes="csccscc"
           inkscape:label="Вышеколенная часть" /><path
           d="m 33.44014,281.7523 c 0,-6.62741 -5.372583,-12 -12,-12 -6.627417,0 -12.0000002,5.37259 -12.0000002,12 0,0 1.5137792,43.00558 2.5000002,56.5 0.986221,13.49443 0.625,18.5 0.625,18.5 h 17.75 c 0,0 -0.361221,-5.00557 0.625,-18.5 0.986221,-13.49442 2.5,-56.5 2.5,-56.5 z"
           style="display:inline;fill:#4759b2;fill-opacity:1;stroke:#242d59;stroke-width:1.93649;stroke-linecap:round;stroke-dasharray:none;stroke-opacity:1"
           id="path120"
           sodipodi:nodetypes="csczcczc"
           inkscape:label="Нижнеколенная часть" /><path
           id="path121"
           style="display:inline;opacity:1;fill:#4759b2;stroke:#242d59;stroke-width:1.93649;stroke-linecap:round;stroke-dasharray:none"
           inkscape:label="Подворот"
           d="m 13.002641,353.00229 h 16.875 c 1.03875,0 1.875,0.83625 1.875,1.875 v 2.25 c 0,1.03875 -0.83625,1.875 -1.875,1.875 h -16.875 c -1.03875,0 -1.875,-0.83625 -1.875,-1.875 v -2.25 c 0,-1.03875 0.83625,-1.875 1.875,-1.875 z" /><path
           style="display:inline;fill:#4759b2;fill-opacity:1;stroke-width:0.968246;stroke-linecap:round"
           d="m 33.939453,255.23437 -1.5,26.49024 v 0.0273 c 0,6.08698 -4.913023,11 -11,11 -6.086977,0 -11,-4.91302 -11,-11 v -0.0273 l -1.4990234,-26.4961 z"
           id="path122"
           inkscape:label="Перекрыватель нижнеколенной части"
           sodipodi:nodetypes="ccsssccc" /></g><g
         id="g43"
         inkscape:label="Кросовок 1"
         transform="rotate(-60,25.661486,259.73766)"
         style="display:inline"><path
           id="path40"
           style="display:inline;fill:#5c6073;fill-opacity:1;stroke:#2d2f38;stroke-width:2;stroke-linecap:round;stroke-opacity:1"
           d="m 40,317 a 3.9999999,6 0 0 1 4,6 3.9999999,6 0 0 1 -4,6 3.9999999,6 0 0 1 -4,-6 3.9999999,6 0 0 1 4,-6 z"
           inkscape:label="Язычок" /><path
           id="path36"
           style="display:inline;fill:#5c6073;stroke:#2d2f38;stroke-width:2;stroke-linecap:round"
           d="m 31.227907,320.80761 c 1.779821,-1.46969 2.548813,-1.54659 3.584865,-1.25607 C 35.848825,319.84206 37.151938,328.5 40,328.5 c 2.848062,0 4.151175,-8.65794 5.187228,-8.94846 1.036052,-0.29052 1.805044,-0.21362 3.584865,1.25607 3.559641,2.93938 5.813188,16.5571 3.627907,18.74239 -2.745205,2.74522 -22.054074,2.74594 -24.8,0 -2.18562,-2.18563 0.06827,-15.80301 3.627907,-18.74239 z"
           sodipodi:nodetypes="ssssszzs"
           inkscape:label="Основа" /><path
           id="path38"
           style="display:inline;fill:#ffffff;fill-opacity:1;stroke:#808080;stroke-width:2;stroke-linecap:round;stroke-opacity:1"
           d="m 41.599854,337.55 c 0,0 11.610437,1.74452 11.655772,-1.43721 0.02323,-1.63025 -0.314772,-3.65133 -0.314772,-3.65133 -1.056991,1.83076 -7.537081,5.08854 -11.341,5.08854 z"
           sodipodi:nodetypes="cscc"
           inkscape:label="3" /><path
           id="path37"
           style="display:inline;fill:#ffffff;fill-opacity:1;stroke:#808080;stroke-width:2;stroke-linecap:round;stroke-opacity:1"
           d="m 38.4,337.55 c 0,0 -11.610437,1.74452 -11.655772,-1.43721 -0.02323,-1.63025 0.314772,-3.65133 0.314772,-3.65133 1.056991,1.83076 7.537081,5.08854 11.341,5.08854 z"
           sodipodi:nodetypes="cscc"
           inkscape:label="2" /><path
           id="path39"
           style="display:inline;fill:#4d4d4d;fill-opacity:1;stroke:#262626;stroke-width:2;stroke-linecap:round;stroke-opacity:1"
           d="m 44.999927,339.516 a 5,2 0 0 1 -5,2 5,2 0 0 1 -5,-2 5,2 0 0 1 5,-2 5,2 0 0 1 5,2 z"
           inkscape:label="1" /><g
           id="g42"
           inkscape:label="Шнурки"><path
             style="display:inline;fill:none;fill-opacity:1;stroke:#152266;stroke-width:1;stroke-linecap:round;stroke-linejoin:round;stroke-dasharray:none;stroke-opacity:1"
             d="m 33.978113,320.9867 h 12.313594 l -11.66551,2.222 H 44.99554 l -9.721259,2.59234 9.165758,-0.27775 -8.425091,2.68492 h 7.499257"
             id="path41"
             inkscape:label="3" /><path
             id="path42"
             style="display:inline;fill:none;stroke:#152266;stroke-width:0.999998;stroke-linecap:round;stroke-linejoin:round"
             inkscape:label="2"
             d="M 40.576922,320.35715 A 4.0384626,2.3571439 0 0 1 36.53846,322.71429 4.0384626,2.3571439 0 0 1 32.499997,320.35715 4.0384626,2.3571439 0 0 1 36.53846,318 a 4.0384626,2.3571439 0 0 1 4.038462,2.35715 z" /><path
             id="ellipse42"
             style="display:inline;fill:none;stroke:#152266;stroke-width:0.999998;stroke-linecap:round;stroke-linejoin:round"
             inkscape:label="1"
             d="m 47.499999,320.35715 a 4.0384626,2.3571439 0 0 1 -4.038463,2.35714 4.0384626,2.3571439 0 0 1 -4.038462,-2.35714 4.0384626,2.3571439 0 0 1 4.038462,-2.35715 4.0384626,2.3571439 0 0 1 4.038463,2.35715 z" /></g></g><g
         id="g110"
         inkscape:label="Нога 1"
         style="display:inline;stroke-width:0.968246"
         transform="matrix(1.0666667,0,0,1,18.130312,-39.752304)"><path
           d="m 36.291342,239.97068 c 3.883252,-7.17439 1.215258,-16.57211 -5.959131,-20.99039 -7.174389,-4.41827 -16.13838,-2.184 -20.021631,4.99038 l -22.245673,47.49935 c -3.106603,5.73952 -0.972206,13.25768 4.767306,16.79231 5.7395115,3.53462 12.9107016,1.74721 16.0173044,-3.99231 z"
           style="display:inline;fill:#4759b2;fill-opacity:1;stroke:#242d59;stroke-width:1.93649;stroke-linecap:round;stroke-dasharray:none;stroke-opacity:1"
           id="path103"
           sodipodi:nodetypes="csccscc"
           inkscape:label="Вышеколенная часть" /><path
           d="m 5.614598,266.68591 c -5.38078466,-3.3137 -12.429075,-1.03701 -15.742782,5.08513 -3.31371,6.12215 -1.638002,13.77142 3.7427861,17.08513 0,0 35.6730659,20.10442 47.1222789,25.94059 11.449222,5.83619 15.332628,8.67265 15.332628,8.67265 l 8.875002,-16.39674 c 0,0 -4.244629,-2.16911 -14.707628,-9.82735 C 39.773891,289.58708 5.614598,266.68591 5.614598,266.68591 Z"
           style="display:inline;fill:#4759b2;fill-opacity:1;stroke:#242d59;stroke-width:1.93649;stroke-linecap:round;stroke-dasharray:none;stroke-opacity:1"
           id="path104"
           sodipodi:nodetypes="csczcczc"
           inkscape:label="Нижнеколенная часть" /><path
           id="rect119"
           style="display:inline;opacity:1;fill:#4759b2;stroke:#242d59;stroke-width:1.93649;stroke-linecap:round;stroke-dasharray:none"
           inkscape:label="Подворот"
           d="m 53.243631,321.19026 8.437501,-15.58845 c 0.519376,-0.95955 1.616452,-1.31392 2.459807,-0.79457 l 1.826772,1.125 c 0.843361,0.51938 1.104186,1.71 0.584814,2.66956 l -8.4375,15.58845 c -0.519374,0.95956 -1.616449,1.31393 -2.459807,0.79456 l -1.826772,-1.125 c -0.843361,-0.51937 -1.104184,-1.70999 -0.584815,-2.66955 z" /><path
           style="display:inline;fill:#4759b2;fill-opacity:1;stroke-width:0.968246;stroke-linecap:round"
           d="m 21.712214,261.57112 -13.7163376,22.14122 -0.0128,0.0236 c -2.8532718,5.27148 -9.4110518,6.906 -14.6825286,3.65962 -5.2714768,-3.24639 -7.2233018,-10.12147 -4.3700298,-15.39295 l 0.0128,-0.0236 11.12185434,-23.74578 z"
           id="path112"
           inkscape:label="Перекрыватель нижнеколенной части"
           sodipodi:nodetypes="ccsssccc" /></g><path
         style="display:inline;fill:#4759b2;fill-opacity:1;stroke-linecap:round"
         d="m 28.460937,204.75195 h 63.957032 l 1.947265,26.8711 c -0.0041,0.0311 -0.03326,0.32579 -0.603515,1.09765 -0.598496,0.81009 -1.742991,1.96228 -3.933594,3.15235 -4.381205,2.38013 -12.960406,4.8789 -29.388672,4.8789 -16.428266,0 -25.005513,-2.49877 -29.386719,-4.8789 -2.190602,-1.19007 -3.337051,-2.34226 -3.935547,-3.15235 -0.570233,-0.77183 -0.59746,-1.06654 -0.601562,-1.09765 z"
         id="path126"
         transform="translate(-0.44013977,-39.752304)"
         inkscape:label="Перекрыватель ног"
         sodipodi:nodetypes="cccssssscc" /><path
         id="path118"
         style="display:inline;fill:#4759b2;fill-opacity:1;stroke:#242d59;stroke-width:2;stroke-linecap:round;stroke-opacity:1"
         d="m 83.142182,194.00013 c 8.623758,7.79875 11.846168,-2 11.846168,-2 l -1.01343,-14 -12.708186,-3.5 c 0,0 -6.748313,11.70125 1.875448,19.5 z"
         sodipodi:nodetypes="zcccz"
         inkscape:label="Карман 2" /><path
         id="path117"
         style="display:inline;fill:#4759b2;fill-opacity:1;stroke:#242d59;stroke-width:2;stroke-linecap:round;stroke-opacity:1"
         d="m 36.857817,194.00013 c -8.623761,7.79875 -11.846168,-2 -11.846168,-2 l 1.013431,-14 12.708185,-3.5 c 0,0 6.748313,11.70125 -1.875448,19.5 z"
         sodipodi:nodetypes="zcccz"
         inkscape:label="Карман 1" /><g
         id="g126"
         inkscape:label="Место для ремня"><path
           id="path123"
           style="display:inline;fill:#5166cc;fill-opacity:1;stroke:#293366;stroke-width:2;stroke-linecap:round;stroke-opacity:1"
           d="m 93.349794,203.75243 0.506716,9 H 27.023773 l 0.506716,-9 h 32.909653 z"
           sodipodi:nodetypes="cccccc"
           inkscape:label="Основа"
           transform="translate(-0.44013977,-39.752304)" /><path
           id="path128"
           style="display:inline;opacity:1;fill:#4759b2;stroke:#242d59;stroke-width:1.5;stroke-linecap:round"
           d="m 72.5,163.75012 h 3 v 9.5 h -3 z"
           inkscape:label="2" /><path
           id="path127"
           style="opacity:1;fill:#4759b2;stroke:#242d59;stroke-width:1.5;stroke-linecap:round"
           d="m 44.5,163.75012 h 3 v 9.5 h -3 z"
           inkscape:label="1" /></g></g><g
       id="g103"
       inkscape:label="Футболка"
       style="display:inline"><path
         id="path99"
         style="display:inline;fill:url(#linearGradient100);stroke:url(#linearGradient102);stroke-width:2;stroke-linecap:round"
         d="m 74.196461,123.22107 c 13.380917,0 17.728767,0.40177 18.850067,0.54317 9.686552,1.22151 0.472214,14.6567 0.330126,19.98819 -0.337927,12.67981 -0.02686,29.33333 -0.02686,42 0,12.66667 2.026862,33.3158 2.026862,46 0,0 -9.274381,-1.70338 -14.917661,2.55562 -5.327203,4.02045 -9.655455,1.38908 -22.018854,2.55563 -12.363399,1.16655 -2.858854,-8.49318 -14.018854,-4.55563 -11.16,3.93755 -18.917661,-0.55562 -18.917661,-0.55562 0,-12.6842 2.026863,-33.33333 2.026863,-46 0,-12.66667 0.311065,-29.32019 -0.02686,-42 -0.142088,-5.33149 -9.732801,-19.14658 -0.04625,-20.36805 0.797307,-0.10054 5.673492,-0.16331 19.226442,-0.16331 0,0 0.538085,7.53209 13.61959,7.53209 13.081505,0 13.893049,-7.53209 13.89305,-7.53209 z"
         sodipodi:nodetypes="ssszsszzszssszs"
         inkscape:label="Основа"
         transform="translate(-0.44013977,-39.752304)" /><g
         id="g7381"
         transform="matrix(1.4111037,0,0,1.4115211,8.6120491,87.386244)"
         style="display:inline;stroke-width:1.17999;stroke-miterlimit:10"
         inkscape:label="Лого"><path
           d="m 39.580497,31.83731 c 0,2.055102 -0.38533,3.774823 -1.15599,5.159157 -0.77066,1.370067 -1.87671,2.404756 -3.31813,3.104059 -1.44143,0.699302 -3.17542,1.048957 -5.201974,1.048957 h -5.116341 v -18.26042 h 5.651525 c 1.85529,0 3.46084,0.342518 4.81664,1.02755 1.37007,0.685034 2.43329,1.691176 3.18969,3.018427 0.75639,1.312983 1.13458,2.947068 1.13458,4.90227 z m -2.88998,0.08563 c 0,-1.527054 -0.24975,-2.782948 -0.74926,-3.767682 -0.4995,-0.999005 -1.23448,-1.733992 -2.20495,-2.204953 -0.95619,-0.485228 -2.112186,-0.727847 -3.467982,-0.727847 h -2.718726 v 13.593631 h 2.226358 c 2.29772,0 4.02457,-0.577996 5.18056,-1.733992 1.156,-1.155992 1.734,-2.875716 1.734,-5.159157 z"
           fill="url(#color-5)"
           stroke="url(#color-6)"
           stroke-width="1.54553"
           stroke-linecap="square"
           id="path6040"
           style="display:inline;mix-blend-mode:normal;fill:url(#color-5-65);stroke:url(#color-6-1);stroke-width:1.17999;stroke-miterlimit:10"
           inkscape:label="D" /><path
           d="m 37.365547,47.376629 h -1.58941 v -7.196867 c 0,-0.254305 0,-0.48742 0,-0.699344 0.008,-0.220398 0.017,-0.432322 0.0254,-0.635766 0.008,-0.21192 0.0212,-0.415365 0.0382,-0.610336 -0.13563,0.135629 -0.2755,0.26278 -0.4196,0.381458 -0.13563,0.118679 -0.2967,0.258546 -0.48319,0.419606 l -1.18252,0.966365 -0.81378,-1.029939 3.08982,-2.44134 h 1.33511 z m 11.02376,0 h -7.28587 v -1.2461 l 2.79737,-2.835514 c 0.54252,-0.559473 0.99603,-1.042656 1.36053,-1.449545 0.36451,-0.415364 0.63577,-0.80954 0.81379,-1.182523 0.18649,-0.381458 0.27973,-0.796823 0.27973,-1.2461 0,-0.550997 -0.16106,-0.966365 -0.48318,-1.2461 -0.32212,-0.279738 -0.74173,-0.419605 -1.25882,-0.419605 -0.50013,0 -0.9494,0.09325 -1.34782,0.279738 -0.38993,0.18649 -0.79682,0.449276 -1.22067,0.788351 l -0.86464,-1.080803 c 0.29669,-0.254305 0.61457,-0.483182 0.95365,-0.686627 0.33907,-0.203444 0.7163,-0.364504 1.13166,-0.483182 0.42385,-0.118678 0.88583,-0.178014 1.38597,-0.178014 0.6951,0 1.28849,0.118678 1.78014,0.356028 0.50014,0.237351 0.8816,0.57219 1.14438,1.004509 0.27127,0.432322 0.40689,0.945173 0.40689,1.538551 0,0.576428 -0.11868,1.114709 -0.35603,1.614845 -0.22887,0.491659 -0.55523,0.979079 -0.97908,1.462261 -0.42384,0.474707 -0.92397,0.991795 -1.5004,1.551268 l -2.02174,1.958157 v 0.07629 h 5.26414 z"
           fill="url(#color-7)"
           stroke="url(#color-8)"
           stroke-width="0.727658"
           stroke-linecap="square"
           id="path6042"
           style="display:inline;mix-blend-mode:normal;fill:url(#linearGradient1);stroke:url(#linearGradient2);stroke-width:0.858182;stroke-miterlimit:10;stroke-dasharray:none"
           inkscape:label="12" /></g></g><g
       id="g56"
       inkscape:label="Кепка"
       transform="matrix(0.96666667,0,0,1,1.9999996,0)"
       style="display:inline;stroke-width:1.0171"><path
         id="path51"
         style="fill:#b25f23;fill-opacity:1;stroke:#593012;stroke-width:2.03419;stroke-linecap:round;stroke-linejoin:round;stroke-opacity:1"
         d="m 87,35.791164 c 0,12.863354 0.720653,11.228574 -27,11.228574 -27.720653,0 -27,1.63478 -27,-11.228574 C 33,22.927809 43.983742,14.5 60,14.5 c 16.016258,0 27,8.427809 27,21.291164 z"
         sodipodi:nodetypes="szsss"
         inkscape:label="Основа" /><path
         id="path56"
         style="display:inline;fill:none;fill-opacity:1;stroke:#85481b;stroke-width:2.03419;stroke-linecap:round;stroke-linejoin:round;stroke-dasharray:6.10257, 3.05129;stroke-dashoffset:0;stroke-opacity:1"
         d="m 78.997579,35.791164 c 0,12.863354 0.507063,11.228574 -18.997579,11.228574 -19.50464,0 -18.997579,1.63478 -18.997579,-11.228574 C 41.002421,22.927809 48.730737,14.5 60,14.5 c 11.269265,0 18.997579,8.427809 18.997579,21.291164 z"
         sodipodi:nodetypes="szsss"
         inkscape:label="Нитки 3" /><path
         id="path54"
         style="fill:none;stroke:#85481b;stroke-width:2.03418;stroke-linecap:round;stroke-linejoin:round;stroke-dasharray:6.10254, 3.05127;stroke-dashoffset:0;stroke-opacity:1"
         d="m 56.864153,22.464728 a 2.000005,4.000005 75 0 1 -3.346069,2.967133 2.000005,4.000005 75 0 1 -4.381347,-0.896579 2.000005,4.000005 75 0 1 3.346069,-2.967133 2.000005,4.000005 75 0 1 4.381347,0.896579 z"
         inkscape:label="Нитки 2" /><path
         id="path55"
         style="fill:none;stroke:#85481b;stroke-width:2.03418;stroke-linecap:round;stroke-linejoin:round;stroke-dasharray:6.10254, 3.05127;stroke-dashoffset:0;stroke-opacity:1"
         d="m 63.136737,22.464728 a 4.000005,2.000005 15 0 0 3.346069,2.967133 4.000005,2.000005 15 0 0 4.381347,-0.896579 4.000005,2.000005 15 0 0 -3.346069,-2.967133 4.000005,2.000005 15 0 0 -4.381347,0.896579 z"
         inkscape:label="Нитки 1" /><path
         id="path52"
         style="display:inline;fill:#b25f23;fill-opacity:1;stroke:#593012;stroke-width:2.03419;stroke-linecap:round;stroke-linejoin:round;stroke-opacity:1"
         d="M 87.931034,41.030171 C 85.511497,36.979101 86.678651,39.674189 60,39.674189 c -26.678651,0 -25.511498,-2.695086 -27.931034,1.355982 C 29.649429,45.081239 33.926227,51.500029 60,51.500029 c 26.073773,0 30.350572,-6.418788 27.931034,-10.469858 z"
         sodipodi:nodetypes="zzzzz"
         inkscape:label="." /><path
         id="path53"
         style="display:inline;fill:#b25f23;stroke:#593012;stroke-width:2.03418;stroke-linecap:round;stroke-linejoin:round;stroke-opacity:1"
         d="M 66.000005,14.5 A 6.000005,4.000005 0 0 1 60,18.500005 6.000005,4.000005 0 0 1 53.999995,14.5 6.000005,4.000005 0 0 1 60,10.499995 6.000005,4.000005 0 0 1 66.000005,14.5 Z"
         inkscape:label="Кнопочка" /></g></g></svg>
