<svg
   width="120.00002"
   height="108.65461"
   viewBox="0 0 120.00002 108.65461"
   version="1.1"
   id="svg1"
   xmlns:xlink="http://www.w3.org/1999/xlink"
   xmlns="http://www.w3.org/2000/svg"
   xmlns:svg="http://www.w3.org/2000/svg">
  <defs
     id="defs1">
    <linearGradient
       id="linearGradient5">
      <stop
         style="stop-color:#ffc7a6;stop-opacity:0.80000001;"
         offset="0"
         id="stop5" />
      <stop
         style="stop-color:#ff8e4c;stop-opacity:0.80000001;"
         offset="1"
         id="stop6" />
    </linearGradient>
    <linearGradient
       id="linearGradient3">
      <stop
         style="stop-color:#ffffff;stop-opacity:1;"
         offset="0.29274613"
         id="stop3" />
      <stop
         style="stop-color:#ffffff;stop-opacity:0;"
         offset="1"
         id="stop4" />
    </linearGradient>
    <radialGradient
       xlink:href="#linearGradient3"
       id="radialGradient4"
       cx="80"
       cy="50"
       fx="80"
       fy="50"
       r="25"
       gradientUnits="userSpaceOnUse"
       gradientTransform="matrix(1.5204505,0,0,1.5202909,-42.093058,-23.328394)" />
    <radialGradient
       xlink:href="#linearGradient5"
       id="radialGradient6"
       cx="51.79702"
       cy="39.450672"
       fx="51.79702"
       fy="39.450672"
       r="58.128956"
       gradientTransform="matrix(1.3617194,0,0,1.3495528,-15.804202,-8.2099895)"
       gradientUnits="userSpaceOnUse" />
  </defs>
  <g
     id="g20">
    <g
       id="g19"
       transform="matrix(0.98685536,-0.22793365,0.22795683,0.98675501,6.7977938,16.211267)"
       style="stroke-width:0.987372">
      <path
         id="path17"
         style="fill:#800000;fill-opacity:1;stroke:#400000;stroke-width:1.97472;stroke-linecap:round;stroke-opacity:1"
         d="m 69.408029,78.204659 c 0,0.203822 -11.852371,-1.48888 -11.852371,-1.48888 0,0 0.2223,-1.137687 0.401801,-1.664276 0.137949,-0.404691 -0.933385,-2.317026 -0.933385,-2.317026 0,0 1.859178,0.386513 2.115913,0.04307 1.086589,-1.453532 2.605877,-2.356419 4.287205,-2.356419 0.528155,0 3.061361,-0.432954 3.061361,-0.432954 0,0 -0.574187,1.106213 -0.140451,1.422728 1.825939,1.332464 3.059927,3.875563 3.059927,6.793746 z" />
      <path
         style="fill:#ff8f4d;fill-opacity:1;stroke:#804726;stroke-width:1.97472;stroke-linecap:round;stroke-linejoin:miter;stroke-dasharray:none;stroke-opacity:1"
         d="m 71.109305,79.739833 c 0,0 4.975469,5.640105 5.870976,9.152209 0.454043,1.780719 1.285894,4.747056 -0.391365,5.499171 -2.513774,1.127235 -6.546562,-5.043207 -6.546562,-5.043207 0,0 2.645871,9.143094 1.377444,13.477344 -0.403581,1.37906 -1.24428,3.35496 -2.681167,3.37596 -1.470122,0.0215 -2.239048,-2.03188 -2.842946,-3.37241 -1.16668,-2.5898 -1.240604,-8.430586 -1.240604,-8.430586 0,0 0.624126,6.014306 -0.424059,8.734116 -0.52648,1.3661 -1.325652,3.49653 -2.786185,3.39527 -1.54125,-0.10686 -2.099987,-2.44243 -2.417583,-3.95438 -0.636578,-3.030507 1.247058,-9.205852 1.247058,-9.205852 0,0 -1.246918,6.757042 -3.267598,9.379792 -0.835321,1.08421 -2.118765,2.76349 -3.404762,2.295 -1.545315,-0.56296 -1.54524,-3.10918 -1.3587,-4.74323 0.37189,-3.257664 4.77025,-8.602371 4.77025,-8.602371 0,0 -2.576661,3.855248 -4.456799,5.109293 -1.334446,0.890069 -3.249372,2.447257 -4.563357,1.52725 -1.184417,-0.829288 -0.558069,-2.960323 -0.113473,-4.336149 0.724344,-2.241526 3.205591,-3.526129 4.284,-5.620443 1.991864,-3.868284 3.069604,-7.190548 3.85434,-12.470941 l 14.846524,0.589801 z"
         id="path18" />
      <path
         id="path19"
         style="fill:#b26436;fill-opacity:1;stroke:#59321a;stroke-width:1.97472;stroke-linecap:round;stroke-opacity:1"
         d="m 59.193062,80.953821 7.993755,0.31603 c 1.107135,0.04377 1.963201,0.970312 1.919431,2.077447 l -0.07901,1.998439 c -0.04377,1.107135 -0.970311,1.963202 -2.077447,1.919432 l -7.993755,-0.31603 c -1.107135,-0.04377 -1.963201,-0.970312 -1.919431,-2.077447 l 0.07901,-1.998439 c 0.04377,-1.107135 0.970311,-1.963202 2.077447,-1.919432 z" />
    </g>
    <path
       id="circle1"
       style="fill:url(#radialGradient6);stroke:#804726;stroke-width:1.97471;stroke-linecap:round;stroke-linejoin:miter;stroke-opacity:0.8"
       d="m 120.5542,49.155814 c 0,22.719228 -18.12376,41.205864 -40.70361,41.793586 -0.368417,0.0097 -1.108754,0.01443 -1.108754,0.01443 0,0 2.371786,-3.117156 0.276674,-5.555038 -2.095113,-2.437889 -11.444823,-2.890953 -13.655091,-1.387748 -2.210267,1.503204 0.555953,4.713025 0.555953,4.713025 0,0 -13.188078,-5.2354 -18.671577,-8.409971 -2.972004,-1.720595 -2.399964,-4.899939 -4.9643,-7.326065 -2.56434,-2.426125 -10.45847,-6.201435 -10.45847,-6.201435 0,0 12.070932,0.736288 11.984901,-13.139872 -0.02546,-4.103823 -8.726216,-7.911781 -8.726216,-7.911781 0,0 1.377149,-7.03655 -7.679082,-10.924138 -9.056232,-3.887584 -13.927728,4.944965 -13.927728,4.944965 0,0 -7.914023,-22.810847 -8.4769005,-37.4855959 0,0 16.2894085,14.1237679 26.5381765,15.3290369 10.248771,1.205271 9.39713,11.607489 19.226593,8.262554 9.829471,-3.344928 5.83805,-13.354071 5.83805,-13.354071 0,0 14.965245,0.483504 17.822733,0.158792 5.280864,-0.600096 -1.8162,-4.9029873 -1.8162,-4.9029873 0,0 4.484386,-0.4256874 6.132484,-0.4256874 23.092324,0 41.812364,18.7180827 41.812364,41.8080037 z"
       transform="matrix(1.0128412,0,0,1.012738,-3.102279,-0.04275547)" />
    <path
       id="path5"
       style="fill:#ffa570;fill-opacity:0.8;stroke:#804726;stroke-width:1.97471;stroke-linecap:round;stroke-opacity:0.8"
       d="m 47.41963,11.976391 -8.264886,0.351855 c 0,0 -4.156026,-3.4668565 -6.248922,-4.8405829 C 30.81292,6.113937 26.669495,4.0596206 26.669495,4.0596206 L 37.220412,1.4206975 c 0,0 2.260281,3.8681197 3.950585,5.7205474 1.6903,1.8524276 6.248633,4.8351461 6.248633,4.8351461 z"
       transform="matrix(1.0128412,0,0,1.012738,-3.102279,-0.04275547)" />
    <path
       id="path6"
       style="fill:#ffb082;fill-opacity:0.8;stroke:#804726;stroke-width:1.97471;stroke-linecap:round;stroke-opacity:0.8"
       d="m 6.4643903,50.317511 c 0,0 8.7008267,-0.238468 12.0369877,-1.84571 3.336164,-1.607237 7.375832,-6.813208 7.375832,-6.813208 0,0 -1.88314,7.942218 -0.541915,9.275977 1.341226,1.333763 6.790163,0.869938 6.790163,0.869938 l -0.823766,8.902108 c 0,0 -3.920472,-1.836294 -5.950751,-1.439609 -2.030283,0.396687 -5.10679,3.671146 -5.10679,3.671146 0,0 -3.914503,-4.642295 -6.052401,-6.949725 -2.137904,-2.307431 -7.7273597,-5.670917 -7.7273597,-5.670917 z"
       transform="matrix(1.0128412,0,0,1.012738,-3.102279,-0.04275547)" />
    <path
       id="path7"
       style="fill:#ffb082;fill-opacity:0.8;stroke:#804726;stroke-width:1.97471;stroke-linecap:round;stroke-opacity:0.8"
       d="M 68.065489,2.6533376 63.881393,4.423614 60.681785,1.4731533 64.742827,1.2764558 Z"
       transform="matrix(1.0128412,0,0,1.012738,-3.102279,-0.04275547)" />
    <path
       id="path8"
       style="fill:#ffb082;fill-opacity:0.8;stroke:#804726;stroke-width:1.97471;stroke-linecap:round;stroke-opacity:0.8"
       d="m 36.587281,85.076952 3.89793,-2.333708 3.578123,2.47795 -3.994451,0.758284 z"
       transform="matrix(1.0128412,0,0,1.012738,-3.102279,-0.04275547)" />
    <g
       id="g11"
       transform="matrix(1.0128412,0,0,1.012738,-3.102279,-0.04275547)"
       style="stroke-width:0.987372" />
    <path
       id="path11"
       style="fill:#800000;fill-opacity:0.75;stroke:#400000;stroke-width:2;stroke-linecap:round;stroke-opacity:0.75"
       d="m 98.801999,52.686157 c 0,0.50427 3.084461,0.870212 3.084461,0.870212 0,0 -3.734378,4.454571 -4.424628,6.201734 -0.914807,2.315547 -2.265559,4.411309 -3.951088,6.18612 -0.719416,0.757523 1.706243,6.038707 1.706243,6.038707 0,0 -5.614039,-2.844065 -6.462282,-2.381252 -2.736358,1.492995 -5.874952,2.3415 -9.211744,2.3415 -1.302089,0 -7.753417,1.599209 -7.753417,1.599209 0,0 1.588256,-2.567488 0.479304,-3.020123 -1.962618,-0.801069 -3.763446,-1.91659 -5.339873,-3.283959 -1.026784,-0.890613 -6.457962,1.782174 -6.457962,1.782174 0,0 2.257589,-6.851165 1.705182,-7.999905 -0.680427,-1.414954 -1.192981,-2.925871 -1.511855,-4.506928 -0.249488,-1.237011 -4.330236,-1.673266 -4.330236,-1.673266 0,0 4.070799,-4.645537 4.301786,-5.837828 0.278159,-1.435811 0.715836,-2.814717 1.293853,-4.117545 0.44421,-1.001234 -3.005615,-5.732495 -3.005615,-5.732495 0,0 5.986787,0.956265 6.813504,0.106581 3.498947,-3.596148 8.391247,-5.829958 13.805329,-5.829958 1.700728,0 9.857967,-1.071162 9.857967,-1.071162 0,0 -1.848953,2.736859 -0.452271,3.51994 5.879747,3.296611 9.853342,9.588436 9.853342,16.808244 z" />
    <path
       id="circle3"
       style="fill:url(#radialGradient4);stroke-width:0;stroke-linecap:round"
       d="M 117.5542,52.686155 A 38.011255,38.007277 0 0 1 79.542961,90.693427 38.011255,38.007277 0 0 1 41.531706,52.686155 38.011255,38.007277 0 0 1 79.542961,14.678875 38.011255,38.007277 0 0 1 117.5542,52.686155 Z" />
    <path
       id="path9"
       style="fill:#ffffff;stroke:#808080;stroke-width:2;stroke-linecap:round"
       d="m 81.570228,40.523825 a 6.5886179,11.655566 0 0 1 -6.588616,11.655566 6.5886179,11.655566 0 0 1 -6.58862,-11.655566 6.5886179,11.655566 0 0 1 6.58862,-11.655564 6.5886179,11.655566 0 0 1 6.588616,11.655564 z" />
    <path
       id="ellipse9"
       style="fill:#ffffff;stroke:#808080;stroke-width:2;stroke-linecap:round"
       d="M 105.89743,40.523825 A 6.5886179,11.655566 0 0 1 99.30881,52.179391 6.5886179,11.655566 0 0 1 92.720196,40.523825 6.5886179,11.655566 0 0 1 99.30881,28.868261 6.5886179,11.655566 0 0 1 105.89743,40.523825 Z" />
    <path
       style="fill:#ffffff;fill-opacity:1;stroke:#808080;stroke-width:2;stroke-linecap:round;stroke-dasharray:none;stroke-opacity:1"
       d="m 74.172408,66.30767 19.108189,-5.003752 -3.20767,-1.972531 9.611737,-0.06086 c 0.519436,6.825832 -3.903027,8.89597 -6.485861,10.355568 -2.582836,1.459599 -11.255809,1.736196 -11.255809,1.736196 l -4.790515,3.772146 -0.573707,-6.244755 z"
       id="path10" />
    <g
       id="g16"
       transform="matrix(1.0128412,0,0,1.012738,-3.102279,-0.31292868)"
       style="stroke-width:0.987372">
      <path
         id="path16"
         style="fill:#800000;fill-opacity:1;stroke:#400000;stroke-width:1.97472;stroke-linecap:round;stroke-opacity:1"
         d="m 69.408029,78.204659 c 0,0.203822 -11.852371,-1.48888 -11.852371,-1.48888 0,0 0.2223,-1.137687 0.401801,-1.664276 0.137949,-0.404691 -0.933385,-2.317026 -0.933385,-2.317026 0,0 1.859178,0.386513 2.115913,0.04307 1.086589,-1.453532 2.605877,-2.356419 4.287205,-2.356419 0.528155,0 3.061361,-0.432954 3.061361,-0.432954 0,0 -0.574187,1.106213 -0.140451,1.422728 1.825939,1.332464 3.059927,3.875563 3.059927,6.793746 z" />
      <path
         style="fill:#ff8f4d;fill-opacity:1;stroke:#804726;stroke-width:1.97472;stroke-linecap:round;stroke-linejoin:miter;stroke-dasharray:none;stroke-opacity:1"
         d="m 71.109305,79.739833 c 0,0 4.975469,5.640105 5.870976,9.152209 0.454043,1.780719 1.285894,4.747056 -0.391365,5.499171 -2.513774,1.127235 -6.546562,-5.043207 -6.546562,-5.043207 0,0 2.645871,9.143094 1.377444,13.477344 -0.403581,1.37906 -1.24428,3.35496 -2.681167,3.37596 -1.470122,0.0215 -2.239048,-2.03188 -2.842946,-3.37241 -1.16668,-2.5898 -1.240604,-8.430586 -1.240604,-8.430586 0,0 0.624126,6.014306 -0.424059,8.734116 -0.52648,1.3661 -1.325652,3.49653 -2.786185,3.39527 -1.54125,-0.10686 -2.099987,-2.44243 -2.417583,-3.95438 -0.636578,-3.030507 1.247058,-9.205852 1.247058,-9.205852 0,0 -1.246918,6.757042 -3.267598,9.379792 -0.835321,1.08421 -2.118765,2.76349 -3.404762,2.295 -1.545315,-0.56296 -1.54524,-3.10918 -1.3587,-4.74323 0.37189,-3.257664 4.77025,-8.602371 4.77025,-8.602371 0,0 -2.576661,3.855248 -4.456799,5.109293 -1.334446,0.890069 -3.249372,2.447257 -4.563357,1.52725 -1.184417,-0.829288 -0.558069,-2.960323 -0.113473,-4.336149 0.724344,-2.241526 3.205591,-3.526129 4.284,-5.620443 1.991864,-3.868284 3.069604,-7.190548 3.85434,-12.470941 l 14.846524,0.589801 z"
         id="path15" />
      <path
         id="rect16"
         style="fill:#b26436;fill-opacity:1;stroke:#59321a;stroke-width:1.97472;stroke-linecap:round;stroke-opacity:1"
         d="m 59.193062,80.953821 7.993755,0.31603 c 1.107135,0.04377 1.963201,0.970312 1.919431,2.077447 l -0.07901,1.998439 c -0.04377,1.107135 -0.970311,1.963202 -2.077447,1.919432 l -7.993755,-0.31603 c -1.107135,-0.04377 -1.963201,-0.970312 -1.919431,-2.077447 l 0.07901,-1.998439 c 0.04377,-1.107135 0.970311,-1.963202 2.077447,-1.919432 z" />
    </g>
  </g>
</svg>
