<svg width="705.7057" height="527.02703" viewBox="0,0,705.7057,527.02703" xmlns="http://www.w3.org/2000/svg"><defs><linearGradient x1="-112.85285" y1="179.99999" x2="592.85285" y2="179.99999" gradientUnits="userSpaceOnUse" id="color-1"><stop offset="0" stop-color="#ff3377"/><stop offset="1" stop-color="#ff99bb"/></linearGradient><linearGradient x1="216.06043" y1="116.1595" x2="295.40453" y2="220.55967" gradientUnits="userSpaceOnUse" id="color-2"><stop offset="0" stop-color="#ff0056" stop-opacity="0"/><stop offset="1" stop-color="#ff0056" stop-opacity="0.8"/></linearGradient><mask id="mask-1"><g><g data-paper-data="{&quot;isPaintingLayer&quot;:true}" fill-rule="nonzero" stroke="none" stroke-width="0" stroke-linecap="butt" stroke-linejoin="miter" stroke-miterlimit="10" stroke-dasharray="" stroke-dashoffset="0" style="mix-blend-mode: normal"><path d="M-112.85282,443.51352v-527.02703h705.7057v527.02703z" fill="none"/><path d="M0.27087,-22.30238c-1.06729,-2.29533 -1.75428,-4.38678 -2.061,-6.27442c-0.30672,-1.88764 -0.21188,-3.8668 0.28451,-5.93753c0.47214,-2.12289 1.34946,-4.46592 2.632,-7.02908c1.42209,-2.94528 2.46804,-5.33499 3.13788,-7.16914c0.69774,-1.91056 1.02851,-3.58705 0.99226,-5.02944c-0.03625,-1.4424 -0.46672,-3.05042 -1.29144,-4.82407c-1.23708,-2.66048 -3.06992,-4.2826 -5.4985,-4.86638c-2.45283,-0.63593 -5.34859,-0.17769 -8.68722,1.37472c-2.97348,1.38262 -5.5042,3.03521 -7.59217,4.95776c-2.03579,1.89829 -3.94666,3.92883 -5.7326,6.09161l-6.97778,-5.79639c1.9813,-2.69773 4.35685,-5.22984 7.12663,-7.59632c2.74552,-2.41864 6.04844,-4.52545 9.90875,-6.32044c6.10346,-2.83801 11.51583,-3.54649 16.23709,-2.12543c4.72126,1.42107 8.24621,4.63558 10.57484,9.64354c1.23708,2.66048 1.87309,5.18805 1.90801,7.58275c0.01065,2.34251 -0.44268,4.71046 -1.36006,7.10382c-0.8652,2.3691 -1.98277,5.01418 -3.35268,7.93519c-1.23038,2.5389 -2.11435,4.66295 -2.65194,6.37217c-0.48543,1.68497 -0.6439,3.18617 -0.47542,4.50362c0.16848,1.31744 0.64082,2.81083 1.41703,4.48017l0.87324,1.87799l-8.13795,3.78402zM6.24652,-4.33437c-1.14006,-2.45183 -1.34062,-4.45226 -0.60166,-6.00132c0.73896,-1.54906 2.04742,-2.76021 3.92541,-3.63344c1.77365,-0.82472 3.49083,-1.02044 5.15153,-0.58719c1.71286,0.409 3.13932,1.83941 4.27938,4.29123c1.1158,2.39964 1.3024,4.4383 0.55979,6.11595c-0.7147,1.60124 -1.95888,2.81421 -3.73252,3.63892c-1.87799,0.87324 -3.65945,1.06714 -5.34442,0.58171c-1.70922,-0.53759 -3.12172,-2.00622 -4.23752,-4.40586zM515.11195,256.73446c1.02854,-2.31295 2.15336,-4.20529 3.37449,-5.67705c1.22113,-1.47177 2.77514,-2.70103 4.66209,-3.68783c1.91032,-1.03936 4.25285,-1.91801 7.0276,-2.63593c3.15448,-0.86387 5.64302,-1.6461 7.46564,-2.34669c1.89855,-0.72977 3.37951,-1.5823 4.44282,-2.55759c1.06331,-0.97529 1.99236,-2.35657 2.78713,-4.14384c1.19216,-2.68091 1.21018,-5.12841 0.05405,-7.34249c-1.13275,-2.26664 -3.38128,-4.148 -6.74555,-5.64405c-2.99631,-1.33242 -5.9051,-2.1537 -8.72639,-2.46386c-2.7687,-0.28678 -5.55498,-0.39248 -8.35882,-0.31711l-0.21722,-9.06864c3.33543,-0.2797 6.80514,-0.15341 10.4091,0.37886c3.62734,0.47971 7.38599,1.58447 11.27594,3.31428c6.15033,2.73496 10.24142,6.34863 12.27328,10.84099c2.03186,4.49236 1.92576,9.26176 -0.31831,14.30818c-1.19216,2.68091 -2.67919,4.82144 -4.46112,6.4216c-1.75854,1.54758 -3.8412,2.76217 -6.248,3.6437c-2.35421,0.90492 -5.08229,1.80101 -8.18419,2.68826c-2.7222,0.74128 -4.90406,1.47101 -6.54561,2.18916c-1.58899,0.74153 -2.8246,1.60871 -3.70682,2.60155c-0.88222,0.99284 -1.69736,2.33032 -2.44539,4.01247l-0.84153,1.89241l-8.20044,-3.64662zM505.49682,273.04724c1.09866,-2.47065 2.47458,-3.93655 4.12776,-4.39766c1.65318,-0.46111 3.42597,-0.27093 5.31838,0.5706c1.78727,0.79477 3.06335,1.96037 3.82826,3.49678c0.81747,1.55978 0.67687,3.575 -0.42179,6.04565c-1.07528,2.41807 -2.48917,3.89856 -4.24167,4.44145c-1.67657,0.5137 -3.40848,0.37315 -5.19574,-0.42162c-1.89241,-0.84153 -3.20937,-2.05677 -3.9509,-3.64577c-0.71815,-1.64155 -0.53958,-3.67136 0.5357,-6.08943zM-12.90615,182.61922c0,-60.49496 -43.03679,-96.89457 -6.05648,-139.06431c25.51443,-29.09483 70.72012,-12.77622 91.41015,-69.97571c25.0467,-69.24386 123.05502,-53.88456 153.16439,-53.88456c87.53944,0 119.11372,129.25642 206.74452,134.11867c130.28928,7.22917 42.86744,112.84681 42.86744,220.88499c0,132.3426 -116.15995,147.54839 -248.50256,147.54839c-44.94029,0 -74.32021,-22.10889 -122.93278,-33.89377c-48.61256,-11.78485 -95.2037,-4.82816 -111.3391,-22.89942c-21.07748,-23.60626 8.70678,-62.88125 7.4641,-105.30491c-1.24267,-42.42366 -12.81967,-50.39684 -12.81967,-77.52937zM364.64667,-61.50373c0,10.53038 -8.67489,19.06692 -19.37589,19.06692c-10.70101,0 -19.37589,-8.53655 -19.37589,-19.06692c0,-10.53038 8.67488,-19.06691 19.37589,-19.06691c10.70101,0 19.37589,8.53654 19.37589,19.06691zM516.45079,1.2634c0,17.05787 -25.60793,30.88599 -57.19692,30.88599c-31.58899,0 -57.19689,-13.82813 -57.19689,-30.88599c0,-17.05787 25.6079,-30.88598 57.19689,-30.88598c31.58899,0 57.19692,13.82812 57.19692,30.88598zM469.71031,415.46661c0,10.53038 -8.67489,19.06691 -19.3759,19.06691c-10.70101,0 -19.37589,-8.53655 -19.37589,-19.06691c0,-10.53038 8.67488,-19.06691 19.37589,-19.06691c10.70101,0 19.3759,8.53655 19.3759,19.06691zM81.78853,423.36605c0,10.15642 -18.15155,18.38981 -40.54264,18.38981c-22.39108,0 -40.54261,-8.23339 -40.54261,-18.38981c0,-10.15642 18.15153,-18.38981 40.54261,-18.38981c22.39108,0 40.54264,8.23339 40.54264,18.38981zM-50.98451,249.68504l-10.88014,1.63709l-14.41973,-72.0068l18.01268,-2.71029zM-63.12976,274.13631c-0.56995,-3.78792 -0.003,-6.59303 1.70084,-8.41533c1.70385,-1.8223 3.96614,-2.94569 6.78693,-3.37012c2.65959,-0.40018 5.07171,0.01987 7.23636,1.2601c2.16465,1.24023 3.53195,3.7543 4.1019,7.54222c0.55782,3.7073 -0.00306,6.55271 -1.68265,8.53622c-1.69172,1.90292 -3.86737,3.05446 -6.52696,3.45463c-2.82079,0.42443 -5.31956,-0.02376 -7.49634,-1.34461c-2.18891,-1.40143 -3.56227,-3.95581 -4.12009,-7.66311z" fill="#ffffff"/></g></g></mask></defs><g transform="translate(112.85285,83.51352)" mask="url(#mask-1)"><g data-paper-data="{&quot;isPaintingLayer&quot;:true}" fill-rule="nonzero" stroke-linejoin="miter" stroke-miterlimit="10" stroke-dasharray="" stroke-dashoffset="0" style="mix-blend-mode: normal"><path d="M-112.85285,443.51351v-527.02703h705.7057v527.02703z" data-paper-data="{&quot;index&quot;:null}" fill="url(#color-1)" stroke="none" stroke-width="0" stroke-linecap="butt"/><path d="M235.75122,264.35488c0,-50.45972 40.90567,-91.3654 91.3654,-91.3654c50.45972,0 91.3654,40.90567 91.3654,91.3654c0,50.45972 -40.90567,91.3654 -91.3654,91.3654c-50.45972,0 -91.3654,-40.90567 -91.3654,-91.3654z" fill="#808080" stroke="#000000" stroke-width="10" stroke-linecap="butt"/><path d="M413.00753,232.12359c13.8733,23.90529 0.77265,21.34834 -12.74358,25.46269c-10.71055,3.2603 -19.62602,15.35852 -30.08257,15.35852c-12.25196,0 -10.86887,-17.39848 -18.67488,-25.25958c-7.26338,-7.31464 -28.84185,-4.5235 -28.29572,-21.80885c0.47746,-15.11237 23.3184,-34.574 46.97062,-34.574c23.65223,0 31.88664,21.97119 42.82615,40.82121z" fill="#000000" stroke="none" stroke-width="0" stroke-linecap="butt"/><path d="M285.27015,253.60722c30.21175,0 59.38719,20.9907 59.99708,37.29039c0.69759,18.64342 -26.8653,15.63296 -36.14304,23.5223c-9.97089,8.47872 -8.2042,27.24415 -23.85404,27.24415c-13.35649,0 -25.19241,-7.61707 -34.89621,-19.93422c-9.7038,-12.31713 -13.73131,-33.35388 -10.6938,-37.93365c10.54799,-15.90368 22.13312,-30.189 45.59,-30.189z" data-paper-data="{&quot;index&quot;:null}" fill="#000000" stroke="none" stroke-width="0" stroke-linecap="butt"/><path d="M294.85507,220.97727l-145.28107,-54.2881l132.97284,-101.05938z" fill="url(#color-2)" stroke="none" stroke-width="0" stroke-linecap="butt"/><path d="M284.94797,220.00856c0,-4.74408 3.84583,-8.58991 8.58991,-8.58991c4.74408,0 8.58991,3.84583 8.58991,8.58991c0,4.74408 -3.84583,8.58991 -8.58991,8.58991c-4.74408,0 -8.58991,-3.84583 -8.58991,-8.58991z" fill="#ff0055" stroke="none" stroke-width="0.5" stroke-linecap="butt"/><path d="M181.34616,180.45223l-2.2618,1.10169l-8.07339,-14.72367l3.74453,-1.82391zM180.36948,186.61806c-0.38355,-0.78744 -0.4518,-1.43826 -0.20476,-1.95244c0.24705,-0.51418 0.66376,-0.91408 1.25016,-1.19971c0.55288,-0.2693 1.1079,-0.34271 1.66505,-0.22024c0.55715,0.12247 1.0275,0.57743 1.41105,1.36487c0.37539,0.77068 0.44772,1.42988 0.217,1.97757c-0.23888,0.53094 -0.63477,0.93106 -1.18765,1.20036c-0.58639,0.28562 -1.16224,0.35882 -1.72755,0.2196c-0.57347,-0.15598 -1.0479,-0.61932 -1.42329,-1.39z" fill="#80002a" stroke="none" stroke-width="1" stroke-linecap="square"/><path d="M232.80969,187.81264c-0.8597,-0.98356 -1.50157,-1.92092 -1.92562,-2.81208c-0.42405,-0.89117 -0.66232,-1.88556 -0.71481,-2.98321c-0.07202,-1.12 0.02501,-2.40748 0.29111,-3.86244c0.28017,-1.66443 0.45404,-2.99935 0.5216,-4.00476c0.07038,-1.0473 -0.00735,-1.92572 -0.23321,-2.63523c-0.22586,-0.70952 -0.67094,-1.44429 -1.33524,-2.20431c-0.99647,-1.14003 -2.13849,-1.67967 -3.42605,-1.6189c-1.3071,0.03841 -2.67597,0.68285 -4.1066,1.93332c-1.27416,1.1137 -2.29,2.29735 -3.04754,3.55097c-0.73518,1.23408 -1.3894,2.51568 -1.96265,3.8448l-4.29311,-1.86654c0.59296,-1.62236 1.40514,-3.21948 2.43655,-4.79135c1.01187,-1.59421 2.34489,-3.11425 3.99906,-4.56011c2.61537,-2.28601 5.19523,-3.41718 7.73955,-3.39349c2.54433,0.02369 4.75435,1.1085 6.63005,3.25445c0.99647,1.14003 1.67593,2.30084 2.03838,3.48244c0.34291,1.15924 0.45957,2.39796 0.34994,3.71615c-0.08727,1.29865 -0.25981,2.77043 -0.51762,4.41532c-0.24375,1.43543 -0.37563,2.61536 -0.39567,3.53981c0.00231,0.90491 0.14016,1.67164 0.41353,2.30018c0.27337,0.62854 0.72267,1.30048 1.34791,2.0158l0.70339,0.80473l-3.48716,3.04802zM238.36054,195.85497c-0.91832,-1.05062 -1.30603,-2.01298 -1.16312,-2.88709c0.14291,-0.87411 0.61672,-1.66285 1.42144,-2.36624c0.76002,-0.66431 1.58272,-1.00879 2.46808,-1.03347c0.90772,-0.04421 1.82073,0.459 2.73905,1.50962c0.89877,1.02826 1.28507,2.01157 1.1589,2.94993c-0.12336,0.89647 -0.56506,1.67685 -1.32508,2.34116c-0.80473,0.70339 -1.65954,1.05624 -2.56445,1.05856c-0.92445,-0.02004 -1.83605,-0.54419 -2.73483,-1.57246z" fill="#80002a" stroke="none" stroke-width="1" stroke-linecap="square"/><path d="M286.74271,146.48358l-0.4153,5.55369l4.95971,-0.58964l0.34118,2.86977l-5.52118,0.65639l-0.585,7.85151l-3.05693,0.36343l0.585,-7.85151l-4.80374,0.5711l-0.49142,7.84039l-2.99454,0.35601l0.49142,-7.84039l-4.58539,0.54514l-0.34118,-2.86977l5.11567,-0.60818l0.44649,-5.5574l-4.83493,0.57481l-0.34118,-2.86977l5.36522,-0.63785l0.51149,-7.93768l3.08812,-0.36713l-0.54268,7.94138l4.86613,-0.57851l0.54268,-7.94138l2.96335,-0.3523l-0.57387,7.94509l4.61658,-0.54885l0.34118,2.86977zM278.46674,152.97179l4.80374,-0.5711l0.44649,-5.5574l-4.80374,0.5711z" fill="#80002a" stroke="none" stroke-width="1" stroke-linecap="square"/><path d="M115.80618,122.77439h-12.57137v20.1355h-13.10405v-20.1355h-42.08213v-10.6537l41.86905,-60.40649h13.31713v59.66073h12.57137zM90.13075,86.65833c0,-1.98868 0,-3.90635 0,-5.753c0.07101,-1.91767 0.14206,-3.7288 0.21307,-5.43339c0.14206,-1.77561 0.21307,-3.40918 0.21307,-4.9007c0.07101,-1.49152 0.14206,-2.80549 0.21307,-3.94187h-0.53269c-0.63922,1.63358 -1.45599,3.37366 -2.45035,5.22031c-0.99436,1.77561 -1.98868,3.33817 -2.98304,4.68763l-24.07737,34.83761h29.40422zM185.26487,97.41857c0,7.31553 -0.56821,13.88534 -1.70459,19.70935c-1.13638,5.753 -2.91202,10.6537 -5.32685,14.70211c-2.41483,3.97739 -5.61094,7.03144 -9.58833,9.16218c-3.90635,2.13074 -8.6295,3.19611 -14.16942,3.19611c-6.96043,0 -12.67791,-1.84665 -17.15246,-5.53993c-4.47456,-3.76432 -7.81273,-9.12666 -10.01448,-16.08709c-2.20175,-7.03144 -3.30265,-15.41235 -3.30265,-25.14274c0,-9.87242 0.99436,-18.28884 2.98304,-25.24928c1.98868,-6.96043 5.22031,-12.28728 9.69487,-15.98055c4.47456,-3.69327 10.4051,-5.53993 17.79168,-5.53993c6.96043,0 12.71343,1.84665 17.259,5.53993c4.54557,3.69327 7.91926,9.02012 10.12102,15.98055c2.2728,6.96043 3.40918,15.37686 3.40918,25.24928zM137.42975,97.41857c0,7.88374 0.53269,14.45351 1.59806,19.70935c1.13638,5.25584 2.94751,9.19771 5.43339,11.82561c2.55689,2.6279 5.89506,3.94187 10.01448,3.94187c4.19047,0 7.52861,-1.27844 10.01448,-3.83533c2.48588,-2.6279 4.297,-6.56977 5.43339,-11.82561c1.13638,-5.32685 1.70459,-11.93215 1.70459,-19.81589c0,-7.88374 -0.56821,-14.41802 -1.70459,-19.60281c-1.13638,-5.25584 -2.94751,-9.19771 -5.43339,-11.82561c-2.48588,-2.6279 -5.82401,-3.94187 -10.01448,-3.94187c-4.11942,0 -7.45759,1.31397 -10.01448,3.94187c-2.48588,2.6279 -4.297,6.56977 -5.43339,11.82561c-1.06537,5.18479 -1.59806,11.71907 -1.59806,19.60281zM261.32887,122.77439h-12.57137v20.1355h-13.10405v-20.1355h-42.08213v-10.6537l41.86905,-60.40649h13.31713v59.66073h12.57137zM235.65344,86.65833c0,-1.98868 0,-3.90635 0,-5.753c0.07101,-1.91767 0.14206,-3.7288 0.21307,-5.43339c0.14206,-1.77561 0.21307,-3.40918 0.21307,-4.9007c0.07101,-1.49152 0.14206,-2.80549 0.21307,-3.94187h-0.53269c-0.63922,1.63358 -1.45599,3.37366 -2.45035,5.22031c-0.99436,1.77561 -1.98868,3.33817 -2.98304,4.68763l-24.07737,34.83761h29.40422z" fill="#80002a" stroke="#80002a" stroke-width="6" stroke-linecap="square"/><path d="M286.44493,96.52186l-2.13909,-1.32427l8.13923,-14.68737l3.5414,2.19241zM280.70997,98.98794c0.46105,-0.74473 0.9749,-1.1499 1.54156,-1.21553c0.56666,-0.06563 1.12729,0.07322 1.68187,0.41655c0.52289,0.32371 0.88129,0.75381 1.07519,1.29029c0.19391,0.53648 0.06034,1.17709 -0.40071,1.92181c-0.45123,0.72888 -0.96999,1.14198 -1.55627,1.2393c-0.57648,0.08148 -1.12616,-0.03964 -1.64905,-0.36335c-0.55458,-0.34333 -0.92392,-0.79116 -1.10801,-1.34349c-0.17429,-0.56817 -0.03581,-1.2167 0.41542,-1.94558z" fill="#80002a" stroke="none" stroke-width="1" stroke-linecap="square"/></g></g></svg>
