<svg width="705.7057" height="527.02703" viewBox="0,0,705.7057,527.02703" mask="url(#mask-1)" xmlns="http://www.w3.org/2000/svg"><defs><linearGradient x1="-112.85282" y1="180.00001" x2="592.85286" y2="180.00001" gradientUnits="userSpaceOnUse" id="color-1"><stop offset="0" stop-color="#ffc400"/><stop offset="1" stop-color="#ffdb66"/></linearGradient><linearGradient x1="232.62364" y1="125.10787" x2="232.62364" y2="156.85124" gradientUnits="userSpaceOnUse" id="color-2"><stop offset="0" stop-color="#ada078"/><stop offset="1" stop-color="#ffebb1"/></linearGradient><linearGradient x1="233.85256" y1="142.30951" x2="233.85256" y2="372.15464" gradientUnits="userSpaceOnUse" id="color-3"><stop offset="0" stop-color="#ffb800"/><stop offset="1" stop-color="#ffe500"/></linearGradient><linearGradient x1="233.85256" y1="142.30951" x2="233.85256" y2="372.15464" gradientUnits="userSpaceOnUse" id="color-4"><stop offset="0" stop-color="#805c00"/><stop offset="1" stop-color="#807300"/></linearGradient><linearGradient x1="221.30912" y1="212.06818" x2="221.30912" y2="274.80513" gradientUnits="userSpaceOnUse" id="color-5"><stop offset="0" stop-color="#0066ff"/><stop offset="1" stop-color="#0012b8"/></linearGradient><linearGradient x1="221.30912" y1="212.06818" x2="221.30912" y2="274.80513" gradientUnits="userSpaceOnUse" id="color-6"><stop offset="0" stop-color="#003380"/><stop offset="1" stop-color="#00095c"/></linearGradient><linearGradient x1="250.44604" y1="258.45513" x2="250.44604" y2="296.19961" gradientUnits="userSpaceOnUse" id="color-7"><stop offset="0" stop-color="#00ff1b"/><stop offset="1" stop-color="#00b712"/></linearGradient><linearGradient x1="250.44604" y1="258.45513" x2="250.44604" y2="296.19961" gradientUnits="userSpaceOnUse" id="color-8"><stop offset="0" stop-color="#00800d"/><stop offset="1" stop-color="#005c09"/></linearGradient><mask id="mask-1"><g transform="translate(112.85283,83.51352)"><g data-paper-data="{&quot;isPaintingLayer&quot;:true}" fill-rule="nonzero" stroke-width="0" stroke-linecap="butt" stroke-linejoin="miter" stroke-miterlimit="10" stroke-dasharray="" stroke-dashoffset="0" style="mix-blend-mode: normal"><path d="M-112.85282,443.51352v-527.02703h705.7057v527.02703z" fill="none" stroke="none"/><path d="M-40.5929,189.69189c0,-83.57825 12.71079,-151.20318 77.23087,-197.11522c77.71803,-55.30361 93.47062,-2.8563 133.57055,-13.33545c40.09994,-10.47914 69.46949,-28.05572 133.73951,-28.33713c54.31413,-0.23783 133.61576,10.24426 183.72218,71.16161c16.03501,19.49472 -10.06197,48.11173 -7.98269,78.34824c2.11175,30.70878 32.27307,63.08805 32.27307,89.27794c0,79.17579 -0.92688,108.28831 -49.07358,150.14494c-44.14845,38.38072 -38.57834,0.77989 -76.55272,18.62216c-44.03197,20.68842 -45.49308,44.75526 -79.51007,38.81674c-34.01698,-5.93852 8.33294,-32.70814 -42.962,-60.1973c-51.29494,-27.48916 -202.34336,7.19038 -235.15034,-20.38051c-32.80699,-27.57088 -69.30481,-95.18451 -69.30481,-127.00605z" fill="#ffffff" stroke="#000000"/><path d="M453.7501,426.76786c0,8.77884 -13.83981,15.89549 -30.91208,15.89549c-17.07228,0 -30.91209,-7.11665 -30.91209,-15.8955c0,-8.77884 13.83981,-15.89549 30.91209,-15.89549c17.07228,0 30.91208,7.11665 30.91208,15.89549z" fill="#ffffff" stroke="#000000"/><path d="M57.89569,354.71914c0,7.21577 -5.94432,13.06529 -13.27701,13.06529c-7.33269,0 -13.27701,-5.84953 -13.27701,-13.06529c0,-7.21577 5.94432,-13.06529 13.27701,-13.06529c7.33269,0 13.27701,5.84953 13.27701,13.06529z" fill="#ffffff" stroke="#000000"/><path d="M200.0134,-61.28088c0,11.80921 -22.20137,21.38246 -49.58814,21.38246c-27.38677,0 -49.58813,-9.57326 -49.58813,-21.38246c0,-11.80921 22.20136,-21.38246 49.58813,-21.38246c27.38677,0 49.58814,9.57324 49.58814,21.38246z" fill="#ffffff" stroke="#000000"/><path d="M80.34614,-47.7762c0,7.06291 -9.82941,12.78855 -21.95461,12.78855c-12.1252,0 -21.9546,-5.72564 -21.9546,-12.78855c0,-7.06291 9.82941,-12.78855 21.9546,-12.78855c12.12519,0 21.9546,5.72563 21.9546,12.78855z" fill="#ffffff" stroke="#000000"/><path d="M501.52329,380.69138c0,7.06291 -9.82941,12.78855 -21.95461,12.78855c-12.1252,0 -21.9546,-5.72564 -21.9546,-12.78855c0,-7.06292 9.8294,-12.78855 21.9546,-12.78855c12.12519,0 21.9546,5.72562 21.9546,12.78854z" fill="#ffffff" stroke="#000000"/><path d="M538.17284,51.6118c10.61089,0 19.21273,19.32006 19.21273,43.15256c0,23.8325 -8.60183,43.15256 -19.21273,43.15256c-10.61089,0 -19.21272,-19.32006 -19.21272,-43.15256c0,-23.8325 8.60183,-43.15256 19.21272,-43.15256z" fill="#ffffff" stroke="#000000"/><path d="M-66.91851,148.60014c5.78077,0 10.46702,13.2738 10.46702,29.64786c0,16.37406 -4.68625,29.64785 -10.46702,29.64785c-5.78077,0 -10.46701,-13.27379 -10.46701,-29.64785c0,-16.37406 4.68624,-29.64786 10.46701,-29.64786z" fill="#ffffff" stroke="#000000"/><path d="M197.89023,382.96921c0,17.32971 -26.99752,31.37819 -60.30063,31.37819c-33.30312,0 -60.30062,-14.0485 -60.30062,-31.37819c0,-17.32971 26.99751,-31.37819 60.30063,-31.37819c33.30312,0 60.30063,14.04849 60.30063,31.37819z" fill="#ffffff" stroke="#000000"/><path d="M255.63674,398.72866c0,9.49007 -7.81789,17.18329 -17.46174,17.18329c-9.64385,0 -17.46174,-7.69322 -17.46174,-17.18329c0,-9.49007 7.81788,-17.18329 17.46174,-17.18329c9.64385,0 17.46174,7.69322 17.46174,17.18329z" fill="#ffffff" stroke="#000000"/></g></g></mask></defs><g transform="translate(112.85283,83.51352)"><g data-paper-data="{&quot;isPaintingLayer&quot;:true}" fill-rule="nonzero" stroke-linejoin="miter" stroke-miterlimit="10" stroke-dasharray="" stroke-dashoffset="0" style="mix-blend-mode: normal"><path d="M-112.85282,443.51352v-527.02703h705.7057v527.02703z" fill="url(#color-1)" stroke="none" stroke-width="0" stroke-linecap="butt"/><path d="M301.88671,380.3505v36.30574l-29.3553,-0.27063c0,0 -17.60441,-66.28663 -0.89759,-66.28663c16.70682,0 30.25289,13.54331 30.25289,30.25152z" fill="#00b3ff" stroke="#005980" stroke-width="3" stroke-linecap="butt"/><path d="M232.53374,322.31579c28.71784,0 72.14741,-9.8216 72.14741,-0.00303l-2.66643,70.59648l-15.12633,8.43313l-126.23445,-79.0296c0,-9.81859 43.16196,0.00304 71.87978,0.00304z" fill="#00b3ff" stroke="#005980" stroke-width="3" stroke-linecap="butt"/><path d="M300.22873,418.5331h-29.01676c0,0 -15.55355,-61.42105 0.3032,-61.42105c15.85676,0 28.7136,12.8542 28.7136,28.71224z" fill="#00b3ff" stroke="#005980" stroke-width="0" stroke-linecap="butt"/><path d="M321.61257,151.7614l64.54181,89.91642c5.73251,7.98624 3.90478,19.10792 -4.08079,24.83996c-7.98557,5.73201 -19.10677,3.90503 -24.83928,-4.08121l-64.54181,-89.91639c-5.73251,-7.98624 -3.90503,-19.10682 4.08054,-24.83883c7.98557,-5.73201 19.10701,-3.90617 24.83952,4.08008z" fill="#ffebb1" stroke="#807658" stroke-width="3" stroke-linecap="butt"/><path d="M353.18235,249.47648l17.62507,-78.13618c1.63765,-9.69327 6.23163,-15.22959 15.92415,-13.5921c9.69249,1.6375 12.21195,8.37563 10.57434,18.06888l-9.02188,79.58963c-1.63765,9.69329 -10.82297,16.22289 -20.51547,14.58538c-9.69249,-1.63748 -16.22385,-10.82232 -14.5862,-20.51561z" fill="#ffebb1" stroke="#807658" stroke-width="3" stroke-linecap="butt"/><path d="M353.02621,253.96468c-6.13252,-8.54351 -4.17802,-20.44079 4.36552,-26.57331c8.54352,-6.13253 20.44081,-4.17803 26.57331,4.36548c6.13252,8.54351 4.17804,20.44079 -4.3655,26.57333c-8.54352,6.13254 -20.44081,4.17804 -26.57335,-4.36552z" fill="#ffebb1" stroke="none" stroke-width="0" stroke-linecap="butt"/><path d="M167.74299,276.42256c0,9.83063 -7.97013,17.79993 -17.79993,17.79993c-9.82981,0 -17.79913,-7.96929 -17.79913,-17.79993v-110.68243c0,-9.83064 7.96929,-17.79914 17.79913,-17.79914c9.82981,0 17.79995,7.96849 17.79995,17.79914z" fill="#ffebb1" stroke="#807658" stroke-width="3" stroke-linecap="butt"/><path d="M135.48466,340.20854l-3.3407,-61.24646c0,-9.83063 7.96929,-17.79914 17.79913,-17.79914c9.82981,0 17.79995,7.96849 17.79995,17.79914l-3.35627,61.53148z" fill="#ffebb1" stroke="#807658" stroke-width="3" stroke-linecap="butt"/><path d="M133.30811,273.49127c0,-9.20589 7.46284,-16.66873 16.66875,-16.66873c9.20588,0 16.66873,7.46285 16.66873,16.66873c0,9.20589 -7.46285,16.66875 -16.66873,16.66875c-9.20588,0 -16.66875,-7.46285 -16.66875,-16.66875z" fill="#ffebb1" stroke="none" stroke-width="0" stroke-linecap="butt"/><path d="M218.71511,125.10789h27.81703l16.36294,27.81703c0,0 -20.0687,3.9263 -30.1366,3.9263c-10.11286,0 -30.40634,-3.9263 -30.40634,-3.9263z" fill="url(#color-2)" stroke="#807658" stroke-width="3" stroke-linecap="butt"/><path d="M285.41051,54.81922c5.18014,0 9.37948,7.71507 9.37948,17.23206c0,9.51702 -4.19934,17.23207 -9.37948,17.23207c-5.18014,0 -9.37949,-7.71507 -9.37949,-17.23207c0,-9.51702 4.19935,-17.23206 9.37949,-17.23206z" fill="#ffebb1" stroke="#807658" stroke-width="3" stroke-linecap="butt"/><path d="M179.8368,54.81922c5.18014,0 9.37948,7.71507 9.37948,17.23206c0,9.51702 -4.19934,17.23207 -9.37948,17.23207c-5.18014,0 -9.37948,-7.71507 -9.37948,-17.23207c0,-9.51702 4.19935,-17.23206 9.37948,-17.23206z" fill="#ffebb1" stroke="#807658" stroke-width="3" stroke-linecap="butt"/><path d="M288.04016,69.43376c0,36.68998 -24.81086,66.43307 -55.41662,66.43307c-30.60574,0 -55.41662,-29.74309 -55.41662,-66.43306c0,-36.68997 24.81086,-66.43306 55.41662,-66.43306c30.60574,0 55.41662,29.74309 55.41662,66.43307z" fill="#ffebb1" stroke="#807658" stroke-width="3" stroke-linecap="butt"/><path d="M245.84223,38.08812c-0.44455,-10.01761 -13.83788,-8.24917 -22.49107,-8.11406c-30.1186,0.47034 -42.82358,25.24473 -44.21189,28.31881c-2.90817,6.43943 -4.16473,14.93565 -6.78225,13.63611c-2.64047,-1.31092 -12.03105,-33.31469 7.33755,-57.35723c19.3686,-24.04254 39.77136,-24.10002 52.42941,-24.22244c15.22807,-0.14727 43.07643,3.86865 56.54392,20.97393c13.18284,16.74372 4.82188,54.8778 1.47799,56.24321c-2.35444,0.96137 -2.39388,-11.45549 -4.85145,-18.70734c-0.98255,-2.89928 -38.94325,0.69787 -39.45219,-10.77097z" fill="#754100" stroke="#3b2000" stroke-width="3" stroke-linecap="butt"/><path d="M232.16894,74.43929c0,0 6.63432,5.28384 6.63432,9.95146c0,4.66763 -6.63432,9.95146 -6.63432,9.95146" fill="none" stroke="#807658" stroke-width="3" stroke-linecap="round"/><path d="M245.8522,108.79436c0,0 -6.94602,3.10984 -12.02469,3.10984c-5.07869,0 -12.02469,-3.10984 -12.02469,-3.10984" fill="none" stroke="#807658" stroke-width="3" stroke-linecap="round"/><g fill="none" stroke="#3b2000" stroke-width="1.5" stroke-linecap="round"><path d="M208.62638,57.32325v-2.4879"/><path d="M213.93384,58.48429v-2.48789"/><path d="M218.74373,58.31837v2.48789"/><path d="M223.55359,61.3038v2.48789"/><path d="M203.31896,58.48426v-2.48789" data-paper-data="{&quot;index&quot;:null}"/><path d="M198.50907,58.31837v2.48789" data-paper-data="{&quot;index&quot;:null}"/><path d="M193.69919,63.79171v-2.48789" data-paper-data="{&quot;index&quot;:null}"/></g><g fill="none" stroke="#3b2000" stroke-width="1.5" stroke-linecap="round"><path d="M257.43593,57.32328v-2.48789"/><path d="M262.7434,58.48427v-2.48789"/><path d="M267.55329,60.80628v-2.48789"/><path d="M272.36319,61.3038v2.48789"/><path d="M252.12851,58.48427v-2.48789" data-paper-data="{&quot;index&quot;:null}"/><path d="M247.31863,58.31838v2.48789" data-paper-data="{&quot;index&quot;:null}"/><path d="M242.50872,63.79171v-2.48789" data-paper-data="{&quot;index&quot;:null}"/></g><path d="M297.269,310.83549c0.11987,48.54909 -4.46064,60.71936 -19.10692,62.65977c-1.11026,0.14709 -107.23411,-38.75802 -107.31124,-40.94396c-0.22993,-6.51684 -0.28079,-14.02954 -0.18229,-22.68239c0.01651,-1.45038 0.02276,-58.25543 0.01988,-59.6845c-0.17593,-87.16413 -30.83869,-71.91636 -18.96341,-96.58273c7.8501,-16.30563 65.62326,1.37714 81.64485,1.37714c16.1087,0 74.37267,-16.84846 82.27006,-0.06354c11.49933,24.44033 -17.52571,8.30305 -18.35411,95.73522c-0.01506,1.59053 -0.02081,58.56236 -0.0168,60.18499z" fill="#ffebb1" stroke="#807658" stroke-width="3" stroke-linecap="butt"/><path d="M371.2921,171.00237c0.661,-3.91255 -4.94243,-21.57189 -6.35354,-30.81217h0.00002c-0.74432,-4.87372 2.32983,-4.80382 2.32983,-4.80382c7.96834,-0.64722 4.32868,20.08787 10.68264,21.16133c2.02242,0.34166 -1.78349,-42.21771 1.8215,-41.07673c1.66109,0.36457 4.18805,7.48303 4.92187,14.53312c0.66503,6.38916 -0.47351,12.79322 1.06542,12.74774c1.03208,-0.03049 4.50222,-25.71845 8.15341,-25.07114c1.92133,0.34707 -1.54047,28.19126 -0.50222,26.90605c3.27125,-4.04941 8.99524,-26.91749 12.10569,-25.26374c4.18237,3.01508 -5.18582,28.7574 -3.70818,28.28991c7.51915,-2.37888 7.70779,-34.51618 15.76872,-23.58259c0.62729,14.79202 -19.27612,45.59035 -20.156,50.79857" data-paper-data="{&quot;index&quot;:null}" fill="#ffebb1" stroke="#807658" stroke-width="3" stroke-linecap="butt"/><g stroke-width="3"><path d="M232.82599,48.79952c0,0 -63.25411,-2.90389 -63.27192,-9.39369c-0.12619,-46.00561 28.04825,-58.99083 63.27192,-58.99083c35.22365,0 64.63535,13.41331 63.77808,58.99084c-0.09794,5.20728 -63.77808,9.39369 -63.77808,9.39369z" fill="#a45a00" stroke="#522d00" stroke-linecap="butt"/><path d="M177.10759,35.86346c0,0 5.94971,-21.63552 17.15183,-31.93168c11.20211,-10.29616 38.32394,-19.05758 38.32394,-19.05758c0,0 28.87509,7.85664 41.04476,18.82108c12.16967,10.96444 15.06142,31.72861 15.06142,31.72861" fill="none" stroke="#7a4300" stroke-linecap="round"/><path d="M299.8309,52.7465c0,8.79192 -29.91417,-2.25614 -66.81514,-2.25614c-36.90098,0 -66.47421,11.04142 -66.81514,2.25614c-0.50618,-13.04347 0.40675,-29.1654 67.32132,-29.1654c66.91459,0 66.30897,15.61544 66.30897,29.16541z" fill="#a45a00" stroke="#522d00" stroke-linecap="butt"/><path d="M245.20037,-18.63066c0,3.77395 -5.55224,6.83336 -12.4013,6.83336c-6.84904,0 -12.40131,-3.05941 -12.40131,-6.83336c0,-3.77395 5.55224,-6.83336 12.40131,-6.83336c6.84904,0 12.4013,3.05942 12.4013,6.83337z" fill="#a45a00" stroke="#522d00" stroke-linecap="butt"/><path d="M224.65261,0.87351c0.74163,1.80659 -1.315,4.36218 -4.59362,5.70808c-3.2786,1.34591 -6.53764,0.97246 -7.27927,-0.83413c-0.74163,-1.80659 1.31501,-4.36218 4.59363,-5.70807c3.2786,-1.34591 6.53763,-0.97246 7.27926,0.83413z" fill="#a45a00" stroke="#7a4300" stroke-linecap="butt"/><path d="M247.59493,0.44433c3.2786,1.34592 5.33523,3.9015 4.59362,5.70807c-0.74163,1.80659 -4.00066,2.18003 -7.27926,0.83411c-3.2786,-1.34591 -5.33522,-3.9015 -4.59363,-5.70807c0.74163,-1.80659 4.00064,-2.18002 7.27925,-0.83411z" data-paper-data="{&quot;index&quot;:null}" fill="#a45a00" stroke="#7a4300" stroke-linecap="butt"/></g><path d="M160.56993,307.60167c0.00292,-1.48994 -0.00362,-47.35643 -0.01804,-48.82407c-0.85633,-87.19057 -30.7067,-88.07555 -18.55497,-108.96567c6.91574,-11.88887 29.27532,-7.2572 54.35668,-2.88154c5.02662,0.87693 20.09194,27.95584 36.97251,28.03908c16.88055,0.08324 30.67262,-26.72747 36.20064,-27.67829c25.22067,-4.33795 47.8738,-9.14128 55.82793,3.84718c13.37908,21.84692 -19.71677,19.92992 -20.53623,108.59316c-0.01361,1.47335 -0.01833,47.3472 -0.01375,48.84616c0.15128,49.62117 -5.06273,62.57566 -21.77751,65.04167c-0.90763,0.13391 -121.5529,-37.16374 -121.64862,-38.42674c-0.5795,-7.64696 -0.82985,-16.75506 -0.80864,-27.59095z" fill="url(#color-3)" stroke="url(#color-4)" stroke-width="3" stroke-linecap="butt"/><path d="M239.98796,66.36251c0,0 9.59405,-9.12219 17.431,-9.12219c7.83697,0 17.46496,9.12219 17.46496,9.12219" fill="none" stroke="#807658" stroke-width="3" stroke-linecap="round"/><path d="M191.17837,66.36251c0,0 9.59405,-9.12219 17.431,-9.12219c7.83696,0 17.46497,9.12219 17.46497,9.12219" fill="none" stroke="#807658" stroke-width="3" stroke-linecap="round"/><path d="M246.72016,242.81149c0,7.06067 -1.32387,12.96908 -3.97162,17.72521c-2.64775,4.70711 -6.44775,8.26197 -11.40003,10.66455c-4.95228,2.40258 -10.90972,3.60388 -17.87231,3.60388h-17.57811v-62.73695h19.41683c6.3742,0 11.89035,1.17678 16.54843,3.53033c4.70711,2.35356 8.36002,5.81034 10.95874,10.37035c2.59872,4.51099 3.89808,10.12518 3.89808,16.84263zM236.7911,243.10568c0,-5.24647 -0.85806,-9.56132 -2.5742,-12.94455c-1.71614,-3.43226 -4.24129,-5.95744 -7.57551,-7.57551c-3.28516,-1.66709 -7.25679,-2.50065 -11.91487,-2.50065h-9.34067v46.70336h7.64905c7.89422,0 13.82714,-1.98581 17.79876,-5.95744c3.97162,-3.97162 5.95744,-9.88004 5.95744,-17.72521z" fill="url(#color-5)" stroke="url(#color-6)" stroke-width="4.5" stroke-linecap="square"/><path d="M239.1103,296.19961h-5.46072v-24.72613c0,-0.87371 0,-1.67462 0,-2.40272c0.02912,-0.75722 0.05825,-1.48532 0.08737,-2.18429c0.02912,-0.72809 0.0728,-1.42706 0.13106,-2.09692c-0.46598,0.46598 -0.94652,0.90283 -1.44163,1.31057c-0.46598,0.40774 -1.01934,0.88828 -1.66006,1.44163l-4.06277,3.32012l-2.79589,-3.53854l10.61563,-8.38766h4.587zM276.98442,296.19961h-25.03193v-4.2812l9.61086,-9.74192c1.86392,-1.92217 3.42205,-3.58223 4.67437,-4.98017c1.25232,-1.42706 2.18429,-2.78132 2.79589,-4.06277c0.64072,-1.31057 0.96109,-2.73763 0.96109,-4.2812c0,-1.89305 -0.55335,-3.32012 -1.66006,-4.2812c-1.10671,-0.96109 -2.54834,-1.44163 -4.32489,-1.44163c-1.71831,0 -3.26186,0.32037 -4.63069,0.96109c-1.33969,0.64072 -2.73763,1.54357 -4.19383,2.70852l-2.97063,-3.71329c1.01934,-0.87371 2.11148,-1.66006 3.27643,-2.35903c1.16495,-0.69897 2.46097,-1.25232 3.88803,-1.66006c1.4562,-0.40774 3.04344,-0.6116 4.76175,-0.6116c2.38815,0 4.42683,0.40774 6.116,1.2232c1.71831,0.81546 3.02888,1.96586 3.93172,3.45117c0.93197,1.48532 1.39794,3.24731 1.39794,5.28597c0,1.98042 -0.40774,3.82978 -1.2232,5.54809c-0.78634,1.68918 -1.90761,3.3638 -3.3638,5.02386c-1.4562,1.63094 -3.17449,3.40749 -5.15492,5.32966l-6.94603,6.7276v0.26211h18.0859z" fill="url(#color-7)" stroke="url(#color-8)" stroke-width="2.5" stroke-linecap="square"/></g></g></svg>
