<svg width="705.7057" height="527.02703" viewBox="0,0,705.7057,527.02703" xmlns="http://www.w3.org/2000/svg"><defs><linearGradient x1="-112.85282" y1="180.00001" x2="592.85286" y2="180.00001" gradientUnits="userSpaceOnUse" id="color-1"><stop offset="0" stop-color="#ffc400"/><stop offset="1" stop-color="#ffdb66"/></linearGradient><linearGradient x1="232.62364" y1="125.10787" x2="232.62364" y2="156.85124" gradientUnits="userSpaceOnUse" id="color-2"><stop offset="0" stop-color="#ada078"/><stop offset="1" stop-color="#ffebb1"/></linearGradient><linearGradient x1="233.85256" y1="142.30951" x2="233.85256" y2="372.15464" gradientUnits="userSpaceOnUse" id="color-3"><stop offset="0" stop-color="#ffb800"/><stop offset="1" stop-color="#ffe500"/></linearGradient><linearGradient x1="233.85256" y1="142.30951" x2="233.85256" y2="372.15464" gradientUnits="userSpaceOnUse" id="color-4"><stop offset="0" stop-color="#805c00"/><stop offset="1" stop-color="#807300"/></linearGradient><linearGradient x1="221.30912" y1="212.06818" x2="221.30912" y2="274.80513" gradientUnits="userSpaceOnUse" id="color-5"><stop offset="0" stop-color="#0066ff"/><stop offset="1" stop-color="#0012b8"/></linearGradient><linearGradient x1="221.30912" y1="212.06818" x2="221.30912" y2="274.80513" gradientUnits="userSpaceOnUse" id="color-6"><stop offset="0" stop-color="#003380"/><stop offset="1" stop-color="#00095c"/></linearGradient><linearGradient x1="250.44604" y1="258.45513" x2="250.44604" y2="296.19961" gradientUnits="userSpaceOnUse" id="color-7"><stop offset="0" stop-color="#00ff1b"/><stop offset="1" stop-color="#00b712"/></linearGradient><linearGradient x1="250.44604" y1="258.45513" x2="250.44604" y2="296.19961" gradientUnits="userSpaceOnUse" id="color-8"><stop offset="0" stop-color="#00800d"/><stop offset="1" stop-color="#005c09"/></linearGradient><mask id="mask-1"><g><g data-paper-data="{&quot;isPaintingLayer&quot;:true}" fill-rule="nonzero" stroke="none" stroke-width="0" stroke-linecap="butt" stroke-linejoin="miter" stroke-miterlimit="10" stroke-dasharray="" stroke-dashoffset="0" style="mix-blend-mode: normal"><path d="M-112.85282,443.51352v-527.02703h705.7057v527.02703z" fill="none"/><path d="M0.27087,-22.30238c-1.06729,-2.29533 -1.75428,-4.38678 -2.061,-6.27442c-0.30672,-1.88764 -0.21188,-3.8668 0.28451,-5.93753c0.47214,-2.12289 1.34946,-4.46592 2.632,-7.02908c1.42209,-2.94528 2.46804,-5.33499 3.13788,-7.16914c0.69774,-1.91056 1.02851,-3.58705 0.99226,-5.02944c-0.03625,-1.4424 -0.46672,-3.05042 -1.29144,-4.82407c-1.23708,-2.66048 -3.06992,-4.2826 -5.4985,-4.86638c-2.45283,-0.63593 -5.34859,-0.17769 -8.68722,1.37472c-2.97348,1.38262 -5.5042,3.03521 -7.59217,4.95776c-2.03579,1.89829 -3.94666,3.92883 -5.7326,6.09161l-6.97778,-5.79639c1.9813,-2.69773 4.35685,-5.22984 7.12663,-7.59632c2.74552,-2.41864 6.04844,-4.52545 9.90875,-6.32044c6.10346,-2.83801 11.51583,-3.54649 16.23709,-2.12543c4.72126,1.42107 8.24621,4.63558 10.57484,9.64354c1.23708,2.66048 1.87309,5.18805 1.90801,7.58275c0.01065,2.34251 -0.44268,4.71046 -1.36006,7.10382c-0.8652,2.3691 -1.98277,5.01418 -3.35268,7.93519c-1.23038,2.5389 -2.11435,4.66295 -2.65194,6.37217c-0.48543,1.68497 -0.6439,3.18617 -0.47542,4.50362c0.16848,1.31744 0.64082,2.81083 1.41703,4.48017l0.87324,1.87799l-8.13795,3.78402zM6.24652,-4.33437c-1.14006,-2.45183 -1.34062,-4.45226 -0.60166,-6.00132c0.73896,-1.54906 2.04742,-2.76021 3.92541,-3.63344c1.77365,-0.82472 3.49083,-1.02044 5.15153,-0.58719c1.71286,0.409 3.13932,1.83941 4.27938,4.29123c1.1158,2.39964 1.3024,4.4383 0.55979,6.11595c-0.7147,1.60124 -1.95888,2.81421 -3.73252,3.63892c-1.87799,0.87324 -3.65945,1.06714 -5.34442,0.58171c-1.70922,-0.53759 -3.12172,-2.00622 -4.23752,-4.40586zM515.11195,256.73446c1.02854,-2.31295 2.15336,-4.20529 3.37449,-5.67705c1.22113,-1.47177 2.77514,-2.70103 4.66209,-3.68783c1.91032,-1.03936 4.25285,-1.91801 7.0276,-2.63593c3.15448,-0.86387 5.64302,-1.6461 7.46564,-2.34669c1.89855,-0.72977 3.37951,-1.5823 4.44282,-2.55759c1.06331,-0.97529 1.99236,-2.35657 2.78713,-4.14384c1.19216,-2.68091 1.21018,-5.12841 0.05405,-7.34249c-1.13275,-2.26664 -3.38128,-4.148 -6.74555,-5.64405c-2.99631,-1.33242 -5.9051,-2.1537 -8.72639,-2.46386c-2.7687,-0.28678 -5.55498,-0.39248 -8.35882,-0.31711l-0.21722,-9.06864c3.33543,-0.2797 6.80514,-0.15341 10.4091,0.37886c3.62734,0.47971 7.38599,1.58447 11.27594,3.31428c6.15033,2.73496 10.24142,6.34863 12.27328,10.84099c2.03186,4.49236 1.92576,9.26176 -0.31831,14.30818c-1.19216,2.68091 -2.67919,4.82144 -4.46112,6.4216c-1.75854,1.54758 -3.8412,2.76217 -6.248,3.6437c-2.35421,0.90492 -5.08229,1.80101 -8.18419,2.68826c-2.7222,0.74128 -4.90406,1.47101 -6.54561,2.18916c-1.58899,0.74153 -2.8246,1.60871 -3.70682,2.60155c-0.88222,0.99284 -1.69736,2.33032 -2.44539,4.01247l-0.84153,1.89241l-8.20044,-3.64662zM505.49682,273.04724c1.09866,-2.47065 2.47458,-3.93655 4.12776,-4.39766c1.65318,-0.46111 3.42597,-0.27093 5.31838,0.5706c1.78727,0.79477 3.06335,1.96037 3.82826,3.49678c0.81747,1.55978 0.67687,3.575 -0.42179,6.04565c-1.07528,2.41807 -2.48917,3.89856 -4.24167,4.44145c-1.67657,0.5137 -3.40848,0.37315 -5.19574,-0.42162c-1.89241,-0.84153 -3.20937,-2.05677 -3.9509,-3.64577c-0.71815,-1.64155 -0.53958,-3.67136 0.5357,-6.08943zM-12.90615,182.61922c0,-60.49496 -43.03679,-96.89457 -6.05648,-139.06431c25.51443,-29.09483 70.72012,-12.77622 91.41015,-69.97571c25.0467,-69.24386 123.05502,-53.88456 153.16439,-53.88456c87.53944,0 119.11372,129.25642 206.74452,134.11867c130.28928,7.22917 42.86744,112.84681 42.86744,220.88499c0,132.3426 -116.15995,147.54839 -248.50256,147.54839c-44.94029,0 -74.32021,-22.10889 -122.93278,-33.89377c-48.61256,-11.78485 -95.2037,-4.82816 -111.3391,-22.89942c-21.07748,-23.60626 8.70678,-62.88125 7.4641,-105.30491c-1.24267,-42.42366 -12.81967,-50.39684 -12.81967,-77.52937zM364.64667,-61.50373c0,10.53038 -8.67489,19.06692 -19.37589,19.06692c-10.70101,0 -19.37589,-8.53655 -19.37589,-19.06692c0,-10.53038 8.67488,-19.06691 19.37589,-19.06691c10.70101,0 19.37589,8.53654 19.37589,19.06691zM516.45079,1.2634c0,17.05787 -25.60793,30.88599 -57.19692,30.88599c-31.58899,0 -57.19689,-13.82813 -57.19689,-30.88599c0,-17.05787 25.6079,-30.88598 57.19689,-30.88598c31.58899,0 57.19692,13.82812 57.19692,30.88598zM469.71031,415.46661c0,10.53038 -8.67489,19.06691 -19.3759,19.06691c-10.70101,0 -19.37589,-8.53655 -19.37589,-19.06691c0,-10.53038 8.67488,-19.06691 19.37589,-19.06691c10.70101,0 19.3759,8.53655 19.3759,19.06691zM81.78853,423.36605c0,10.15642 -18.15155,18.38981 -40.54264,18.38981c-22.39108,0 -40.54261,-8.23339 -40.54261,-18.38981c0,-10.15642 18.15153,-18.38981 40.54261,-18.38981c22.39108,0 40.54264,8.23339 40.54264,18.38981zM-50.98451,249.68504l-10.88014,1.63709l-14.41973,-72.0068l18.01268,-2.71029zM-63.12976,274.13631c-0.56995,-3.78792 -0.003,-6.59303 1.70084,-8.41533c1.70385,-1.8223 3.96614,-2.94569 6.78693,-3.37012c2.65959,-0.40018 5.07171,0.01987 7.23636,1.2601c2.16465,1.24023 3.53195,3.7543 4.1019,7.54222c0.55782,3.7073 -0.00306,6.55271 -1.68265,8.53622c-1.69172,1.90292 -3.86737,3.05446 -6.52696,3.45463c-2.82079,0.42443 -5.31956,-0.02376 -7.49634,-1.34461c-2.18891,-1.40143 -3.56227,-3.95581 -4.12009,-7.66311z" fill="#ffffff"/></g></g></mask></defs><g transform="translate(112.85283,83.51352)" mask="url(#mask-1)"><g data-paper-data="{&quot;isPaintingLayer&quot;:true}" fill-rule="nonzero" stroke-linejoin="miter" stroke-miterlimit="10" stroke-dasharray="" stroke-dashoffset="0" style="mix-blend-mode: normal"><path d="M-112.85282,443.51352v-527.02703h705.7057v527.02703z" fill="url(#color-1)" stroke="none" stroke-width="0" stroke-linecap="butt"/><path d="M301.88671,380.3505v36.30574l-29.3553,-0.27063c0,0 -17.60441,-66.28663 -0.89759,-66.28663c16.70682,0 30.25289,13.54331 30.25289,30.25152z" fill="#00b3ff" stroke="#005980" stroke-width="3" stroke-linecap="butt"/><path d="M232.53374,322.31579c28.71784,0 72.14741,-9.8216 72.14741,-0.00303l-2.66643,70.59648l-15.12633,8.43313l-126.23445,-79.0296c0,-9.81859 43.16196,0.00304 71.87978,0.00304z" fill="#00b3ff" stroke="#005980" stroke-width="3" stroke-linecap="butt"/><path d="M300.22873,418.5331h-29.01676c0,0 -15.55355,-61.42105 0.3032,-61.42105c15.85676,0 28.7136,12.8542 28.7136,28.71224z" fill="#00b3ff" stroke="#005980" stroke-width="0" stroke-linecap="butt"/><path d="M321.61257,151.7614l64.54181,89.91642c5.73251,7.98624 3.90478,19.10792 -4.08079,24.83996c-7.98557,5.73201 -19.10677,3.90503 -24.83928,-4.08121l-64.54181,-89.91639c-5.73251,-7.98624 -3.90503,-19.10682 4.08054,-24.83883c7.98557,-5.73201 19.10701,-3.90617 24.83952,4.08008z" fill="#ffebb1" stroke="#807658" stroke-width="3" stroke-linecap="butt"/><path d="M353.18235,249.47648l17.62507,-78.13618c1.63765,-9.69327 6.23163,-15.22959 15.92415,-13.5921c9.69249,1.6375 12.21195,8.37563 10.57434,18.06888l-9.02188,79.58963c-1.63765,9.69329 -10.82297,16.22289 -20.51547,14.58538c-9.69249,-1.63748 -16.22385,-10.82232 -14.5862,-20.51561z" fill="#ffebb1" stroke="#807658" stroke-width="3" stroke-linecap="butt"/><path d="M353.02621,253.96468c-6.13252,-8.54351 -4.17802,-20.44079 4.36552,-26.57331c8.54352,-6.13253 20.44081,-4.17803 26.57331,4.36548c6.13252,8.54351 4.17804,20.44079 -4.3655,26.57333c-8.54352,6.13254 -20.44081,4.17804 -26.57335,-4.36552z" fill="#ffebb1" stroke="none" stroke-width="0" stroke-linecap="butt"/><path d="M167.74299,276.42256c0,9.83063 -7.97013,17.79993 -17.79993,17.79993c-9.82981,0 -17.79913,-7.96929 -17.79913,-17.79993v-110.68243c0,-9.83064 7.96929,-17.79914 17.79913,-17.79914c9.82981,0 17.79995,7.96849 17.79995,17.79914z" fill="#ffebb1" stroke="#807658" stroke-width="3" stroke-linecap="butt"/><path d="M135.48466,340.20854l-3.3407,-61.24646c0,-9.83063 7.96929,-17.79914 17.79913,-17.79914c9.82981,0 17.79995,7.96849 17.79995,17.79914l-3.35627,61.53148z" fill="#ffebb1" stroke="#807658" stroke-width="3" stroke-linecap="butt"/><path d="M133.30811,273.49127c0,-9.20589 7.46284,-16.66873 16.66875,-16.66873c9.20588,0 16.66873,7.46285 16.66873,16.66873c0,9.20589 -7.46285,16.66875 -16.66873,16.66875c-9.20588,0 -16.66875,-7.46285 -16.66875,-16.66875z" fill="#ffebb1" stroke="none" stroke-width="0" stroke-linecap="butt"/><path d="M218.71511,125.10789h27.81703l16.36294,27.81703c0,0 -20.0687,3.9263 -30.1366,3.9263c-10.11286,0 -30.40634,-3.9263 -30.40634,-3.9263z" fill="url(#color-2)" stroke="#807658" stroke-width="3" stroke-linecap="butt"/><path d="M285.41051,54.81922c5.18014,0 9.37948,7.71507 9.37948,17.23206c0,9.51702 -4.19934,17.23207 -9.37948,17.23207c-5.18014,0 -9.37949,-7.71507 -9.37949,-17.23207c0,-9.51702 4.19935,-17.23206 9.37949,-17.23206z" fill="#ffebb1" stroke="#807658" stroke-width="3" stroke-linecap="butt"/><path d="M179.8368,54.81922c5.18014,0 9.37948,7.71507 9.37948,17.23206c0,9.51702 -4.19934,17.23207 -9.37948,17.23207c-5.18014,0 -9.37948,-7.71507 -9.37948,-17.23207c0,-9.51702 4.19935,-17.23206 9.37948,-17.23206z" fill="#ffebb1" stroke="#807658" stroke-width="3" stroke-linecap="butt"/><path d="M288.04016,69.43376c0,36.68998 -24.81086,66.43307 -55.41662,66.43307c-30.60574,0 -55.41662,-29.74309 -55.41662,-66.43306c0,-36.68997 24.81086,-66.43306 55.41662,-66.43306c30.60574,0 55.41662,29.74309 55.41662,66.43307z" fill="#ffebb1" stroke="#807658" stroke-width="3" stroke-linecap="butt"/><path d="M245.84223,38.08812c-0.44455,-10.01761 -13.83788,-8.24917 -22.49107,-8.11406c-30.1186,0.47034 -42.82358,25.24473 -44.21189,28.31881c-2.90817,6.43943 -4.16473,14.93565 -6.78225,13.63611c-2.64047,-1.31092 -12.03105,-33.31469 7.33755,-57.35723c19.3686,-24.04254 39.77136,-24.10002 52.42941,-24.22244c15.22807,-0.14727 43.07643,3.86865 56.54392,20.97393c13.18284,16.74372 4.82188,54.8778 1.47799,56.24321c-2.35444,0.96137 -2.39388,-11.45549 -4.85145,-18.70734c-0.98255,-2.89928 -38.94325,0.69787 -39.45219,-10.77097z" fill="#754100" stroke="#3b2000" stroke-width="3" stroke-linecap="butt"/><path d="M232.16894,74.43929c0,0 6.63432,5.28384 6.63432,9.95146c0,4.66763 -6.63432,9.95146 -6.63432,9.95146" fill="none" stroke="#807658" stroke-width="3" stroke-linecap="round"/><path d="M245.8522,108.79436c0,0 -6.94602,3.10984 -12.02469,3.10984c-5.07869,0 -12.02469,-3.10984 -12.02469,-3.10984" fill="none" stroke="#807658" stroke-width="3" stroke-linecap="round"/><g fill="none" stroke="#3b2000" stroke-width="1.5" stroke-linecap="round"><path d="M208.62638,57.32325v-2.4879"/><path d="M213.93384,58.48429v-2.48789"/><path d="M218.74373,58.31837v2.48789"/><path d="M223.55359,61.3038v2.48789"/><path d="M203.31896,58.48426v-2.48789" data-paper-data="{&quot;index&quot;:null}"/><path d="M198.50907,58.31837v2.48789" data-paper-data="{&quot;index&quot;:null}"/><path d="M193.69919,63.79171v-2.48789" data-paper-data="{&quot;index&quot;:null}"/></g><g fill="none" stroke="#3b2000" stroke-width="1.5" stroke-linecap="round"><path d="M257.43593,57.32328v-2.48789"/><path d="M262.7434,58.48427v-2.48789"/><path d="M267.55329,60.80628v-2.48789"/><path d="M272.36319,61.3038v2.48789"/><path d="M252.12851,58.48427v-2.48789" data-paper-data="{&quot;index&quot;:null}"/><path d="M247.31863,58.31838v2.48789" data-paper-data="{&quot;index&quot;:null}"/><path d="M242.50872,63.79171v-2.48789" data-paper-data="{&quot;index&quot;:null}"/></g><path d="M297.269,310.83549c0.11987,48.54909 -4.46064,60.71936 -19.10692,62.65977c-1.11026,0.14709 -107.23411,-38.75802 -107.31124,-40.94396c-0.22993,-6.51684 -0.28079,-14.02954 -0.18229,-22.68239c0.01651,-1.45038 0.02276,-58.25543 0.01988,-59.6845c-0.17593,-87.16413 -30.83869,-71.91636 -18.96341,-96.58273c7.8501,-16.30563 65.62326,1.37714 81.64485,1.37714c16.1087,0 74.37267,-16.84846 82.27006,-0.06354c11.49933,24.44033 -17.52571,8.30305 -18.35411,95.73522c-0.01506,1.59053 -0.02081,58.56236 -0.0168,60.18499z" fill="#ffebb1" stroke="#807658" stroke-width="3" stroke-linecap="butt"/><path d="M371.2921,171.00237c0.661,-3.91255 -4.94243,-21.57189 -6.35354,-30.81217h0.00002c-0.74432,-4.87372 2.32983,-4.80382 2.32983,-4.80382c7.96834,-0.64722 4.32868,20.08787 10.68264,21.16133c2.02242,0.34166 -1.78349,-42.21771 1.8215,-41.07673c1.66109,0.36457 4.18805,7.48303 4.92187,14.53312c0.66503,6.38916 -0.47351,12.79322 1.06542,12.74774c1.03208,-0.03049 4.50222,-25.71845 8.15341,-25.07114c1.92133,0.34707 -1.54047,28.19126 -0.50222,26.90605c3.27125,-4.04941 8.99524,-26.91749 12.10569,-25.26374c4.18237,3.01508 -5.18582,28.7574 -3.70818,28.28991c7.51915,-2.37888 7.70779,-34.51618 15.76872,-23.58259c0.62729,14.79202 -19.27612,45.59035 -20.156,50.79857" data-paper-data="{&quot;index&quot;:null}" fill="#ffebb1" stroke="#807658" stroke-width="3" stroke-linecap="butt"/><g stroke-width="3"><path d="M232.82599,48.79952c0,0 -63.25411,-2.90389 -63.27192,-9.39369c-0.12619,-46.00561 28.04825,-58.99083 63.27192,-58.99083c35.22365,0 64.63535,13.41331 63.77808,58.99084c-0.09794,5.20728 -63.77808,9.39369 -63.77808,9.39369z" fill="#a45a00" stroke="#522d00" stroke-linecap="butt"/><path d="M177.10759,35.86346c0,0 5.94971,-21.63552 17.15183,-31.93168c11.20211,-10.29616 38.32394,-19.05758 38.32394,-19.05758c0,0 28.87509,7.85664 41.04476,18.82108c12.16967,10.96444 15.06142,31.72861 15.06142,31.72861" fill="none" stroke="#7a4300" stroke-linecap="round"/><path d="M299.8309,52.7465c0,8.79192 -29.91417,-2.25614 -66.81514,-2.25614c-36.90098,0 -66.47421,11.04142 -66.81514,2.25614c-0.50618,-13.04347 0.40675,-29.1654 67.32132,-29.1654c66.91459,0 66.30897,15.61544 66.30897,29.16541z" fill="#a45a00" stroke="#522d00" stroke-linecap="butt"/><path d="M245.20037,-18.63066c0,3.77395 -5.55224,6.83336 -12.4013,6.83336c-6.84904,0 -12.40131,-3.05941 -12.40131,-6.83336c0,-3.77395 5.55224,-6.83336 12.40131,-6.83336c6.84904,0 12.4013,3.05942 12.4013,6.83337z" fill="#a45a00" stroke="#522d00" stroke-linecap="butt"/><path d="M224.65261,0.87351c0.74163,1.80659 -1.315,4.36218 -4.59362,5.70808c-3.2786,1.34591 -6.53764,0.97246 -7.27927,-0.83413c-0.74163,-1.80659 1.31501,-4.36218 4.59363,-5.70807c3.2786,-1.34591 6.53763,-0.97246 7.27926,0.83413z" fill="#a45a00" stroke="#7a4300" stroke-linecap="butt"/><path d="M247.59493,0.44433c3.2786,1.34592 5.33523,3.9015 4.59362,5.70807c-0.74163,1.80659 -4.00066,2.18003 -7.27926,0.83411c-3.2786,-1.34591 -5.33522,-3.9015 -4.59363,-5.70807c0.74163,-1.80659 4.00064,-2.18002 7.27925,-0.83411z" data-paper-data="{&quot;index&quot;:null}" fill="#a45a00" stroke="#7a4300" stroke-linecap="butt"/></g><path d="M160.56993,307.60167c0.00292,-1.48994 -0.00362,-47.35643 -0.01804,-48.82407c-0.85633,-87.19057 -30.7067,-88.07555 -18.55497,-108.96567c6.91574,-11.88887 29.27532,-7.2572 54.35668,-2.88154c5.02662,0.87693 20.09194,27.95584 36.97251,28.03908c16.88055,0.08324 30.67262,-26.72747 36.20064,-27.67829c25.22067,-4.33795 47.8738,-9.14128 55.82793,3.84718c13.37908,21.84692 -19.71677,19.92992 -20.53623,108.59316c-0.01361,1.47335 -0.01833,47.3472 -0.01375,48.84616c0.15128,49.62117 -5.06273,62.57566 -21.77751,65.04167c-0.90763,0.13391 -121.5529,-37.16374 -121.64862,-38.42674c-0.5795,-7.64696 -0.82985,-16.75506 -0.80864,-27.59095z" fill="url(#color-3)" stroke="url(#color-4)" stroke-width="3" stroke-linecap="butt"/><path d="M239.98796,66.36251c0,0 9.59405,-9.12219 17.431,-9.12219c7.83697,0 17.46496,9.12219 17.46496,9.12219" fill="none" stroke="#807658" stroke-width="3" stroke-linecap="round"/><path d="M191.17837,66.36251c0,0 9.59405,-9.12219 17.431,-9.12219c7.83696,0 17.46497,9.12219 17.46497,9.12219" fill="none" stroke="#807658" stroke-width="3" stroke-linecap="round"/><path d="M246.72016,242.81149c0,7.06067 -1.32387,12.96908 -3.97162,17.72521c-2.64775,4.70711 -6.44775,8.26197 -11.40003,10.66455c-4.95228,2.40258 -10.90972,3.60388 -17.87231,3.60388h-17.57811v-62.73695h19.41683c6.3742,0 11.89035,1.17678 16.54843,3.53033c4.70711,2.35356 8.36002,5.81034 10.95874,10.37035c2.59872,4.51099 3.89808,10.12518 3.89808,16.84263zM236.7911,243.10568c0,-5.24647 -0.85806,-9.56132 -2.5742,-12.94455c-1.71614,-3.43226 -4.24129,-5.95744 -7.57551,-7.57551c-3.28516,-1.66709 -7.25679,-2.50065 -11.91487,-2.50065h-9.34067v46.70336h7.64905c7.89422,0 13.82714,-1.98581 17.79876,-5.95744c3.97162,-3.97162 5.95744,-9.88004 5.95744,-17.72521z" fill="url(#color-5)" stroke="url(#color-6)" stroke-width="4.5" stroke-linecap="square"/><path d="M239.1103,296.19961h-5.46072v-24.72613c0,-0.87371 0,-1.67462 0,-2.40272c0.02912,-0.75722 0.05825,-1.48532 0.08737,-2.18429c0.02912,-0.72809 0.0728,-1.42706 0.13106,-2.09692c-0.46598,0.46598 -0.94652,0.90283 -1.44163,1.31057c-0.46598,0.40774 -1.01934,0.88828 -1.66006,1.44163l-4.06277,3.32012l-2.79589,-3.53854l10.61563,-8.38766h4.587zM276.98442,296.19961h-25.03193v-4.2812l9.61086,-9.74192c1.86392,-1.92217 3.42205,-3.58223 4.67437,-4.98017c1.25232,-1.42706 2.18429,-2.78132 2.79589,-4.06277c0.64072,-1.31057 0.96109,-2.73763 0.96109,-4.2812c0,-1.89305 -0.55335,-3.32012 -1.66006,-4.2812c-1.10671,-0.96109 -2.54834,-1.44163 -4.32489,-1.44163c-1.71831,0 -3.26186,0.32037 -4.63069,0.96109c-1.33969,0.64072 -2.73763,1.54357 -4.19383,2.70852l-2.97063,-3.71329c1.01934,-0.87371 2.11148,-1.66006 3.27643,-2.35903c1.16495,-0.69897 2.46097,-1.25232 3.88803,-1.66006c1.4562,-0.40774 3.04344,-0.6116 4.76175,-0.6116c2.38815,0 4.42683,0.40774 6.116,1.2232c1.71831,0.81546 3.02888,1.96586 3.93172,3.45117c0.93197,1.48532 1.39794,3.24731 1.39794,5.28597c0,1.98042 -0.40774,3.82978 -1.2232,5.54809c-0.78634,1.68918 -1.90761,3.3638 -3.3638,5.02386c-1.4562,1.63094 -3.17449,3.40749 -5.15492,5.32966l-6.94603,6.7276v0.26211h18.0859z" fill="url(#color-7)" stroke="url(#color-8)" stroke-width="2.5" stroke-linecap="square"/></g></g></svg>
