<svg version="1.1" xmlns="http://www.w3.org/2000/svg" xmlns:xlink="http://www.w3.org/1999/xlink" width="606.75005" height="502.13693" viewBox="0,0,606.75005,502.13693"><defs><linearGradient x1="176.72033" y1="155.61596" x2="176.72033" y2="257.71072" gradientUnits="userSpaceOnUse" id="color-1"><stop offset="0" stop-color="#ce0000"/><stop offset="1" stop-color="#cc6900"/></linearGradient><linearGradient x1="126.66186" y1="164.96422" x2="126.66186" y2="286.67702" gradientUnits="userSpaceOnUse" id="color-2"><stop offset="0" stop-color="#ffce00"/><stop offset="1" stop-color="#ffe500"/></linearGradient><linearGradient x1="209.15981" y1="306.32948" x2="265.13259" y2="198.25056" gradientUnits="userSpaceOnUse" id="color-3"><stop offset="0" stop-color="#ffce00"/><stop offset="1" stop-color="#ffe500"/></linearGradient><linearGradient x1="177.38271" y1="147.46579" x2="177.38271" y2="172.64013" gradientUnits="userSpaceOnUse" id="color-4"><stop offset="0" stop-color="#ada078"/><stop offset="1" stop-color="#ffebb1"/></linearGradient><linearGradient x1="176.73384" y1="164.20074" x2="176.73384" y2="321.5908" gradientUnits="userSpaceOnUse" id="color-5"><stop offset="0" stop-color="#ffd000"/><stop offset="1" stop-color="#ffe500"/></linearGradient><linearGradient x1="175.43611" y1="48.58348" x2="175.43611" y2="153.95416" gradientUnits="userSpaceOnUse" id="color-6"><stop offset="0" stop-color="#dbca97"/><stop offset="1" stop-color="#ffebb1"/></linearGradient><linearGradient x1="176.60725" y1="210.90855" x2="176.60725" y2="267.51867" gradientUnits="userSpaceOnUse" id="color-7"><stop offset="0" stop-color="#ff6700"/><stop offset="1" stop-color="#ff9200"/></linearGradient><linearGradient x1="176.57359" y1="237.72933" x2="176.57359" y2="275.93789" gradientTransform="translate(-190.41107,-321.74918) scale(1.20771,1.20771)" gradientUnits="userSpaceOnUse" id="color-8"><stop offset="0" stop-color="#00ff1b"/><stop offset="1" stop-color="#00b712"/></linearGradient><linearGradient x1="176.57359" y1="237.72933" x2="176.57359" y2="275.93789" gradientTransform="translate(-190.41107,-321.74918) scale(1.20771,1.20771)" gradientUnits="userSpaceOnUse" id="color-9"><stop offset="0" stop-color="#00cc14"/><stop offset="1" stop-color="#00840d"/></linearGradient><linearGradient x1="137.1052" y1="163.48394" x2="137.1052" y2="208.4761" gradientUnits="userSpaceOnUse" id="color-10"><stop offset="0" stop-color="#ffad00"/><stop offset="1" stop-color="#c88c00"/></linearGradient><linearGradient x1="216.49979" y1="164.04008" x2="216.49979" y2="209.49158" gradientUnits="userSpaceOnUse" id="color-11"><stop offset="0" stop-color="#ffad00"/><stop offset="1" stop-color="#c88c00"/></linearGradient></defs><g transform="translate(63.37501,71.06845)"><g data-paper-data="{&quot;isPaintingLayer&quot;:true}" fill-rule="nonzero" stroke-linejoin="miter" stroke-miterlimit="10" stroke-dasharray="" stroke-dashoffset="0" style="mix-blend-mode: normal"><g fill="#ffdc66" stroke="none" stroke-linecap="butt"><path d="M-28.20653,189.26407c0,-79.88881 12.14969,-144.52854 73.82163,-188.41386c74.28728,-52.86231 89.3445,-2.73021 127.67428,-12.74678c38.32979,-10.01656 66.40286,-26.81724 127.83578,-27.08623c51.91652,-0.22733 127.71749,9.79205 175.61204,68.02029c15.32717,18.63416 -9.6178,45.98791 -7.63031,74.88967c2.01853,29.35319 30.84843,60.30312 30.84843,85.3369c0,75.68069 -0.88596,103.50809 -46.9073,143.51702c-42.19958,36.68646 -36.87536,0.74546 -73.17342,17.80011c-42.08824,19.77516 -43.48486,42.7796 -76.00021,37.10323c-32.51535,-5.67637 7.96509,-31.26429 -41.06551,-57.53998c-49.0306,-26.27569 -193.41121,6.87297 -224.76998,-19.48084c-31.35877,-26.3538 -66.24545,-90.98273 -66.24545,-121.39956z" stroke-width="NaN"/><path d="M444.31442,415.87468c0,8.39131 -13.22887,15.19381 -29.54751,15.19381c-16.31865,0 -29.54752,-6.8025 -29.54752,-15.19382c0,-8.39131 13.22888,-15.19381 29.54752,-15.19381c16.31865,0 29.54751,6.8025 29.54751,15.19381z" stroke-width="0"/><path d="M65.93443,347.00645c0,6.89724 -5.68192,12.48855 -12.69092,12.48855c-7.009,0 -12.69092,-5.59131 -12.69092,-12.48855c0,-6.89724 5.68192,-12.48854 12.69092,-12.48854c7.009,0 12.69092,5.59131 12.69092,12.48854z" stroke-width="0"/><path d="M201.77854,-50.62988c0,11.28791 -21.22133,20.43856 -47.39915,20.43856c-26.17782,0 -47.39914,-9.15066 -47.39914,-20.43856c0,-11.28791 21.22132,-20.43856 47.39914,-20.43856c26.17782,0 47.39915,9.15065 47.39915,20.43856z" stroke-width="0"/><path d="M87.39382,-37.72134c0,6.75113 -9.39551,12.22402 -20.98546,12.22402c-11.58995,0 -20.98545,-5.47289 -20.98545,-12.22402c0,-6.75113 9.39551,-12.22402 20.98545,-12.22402c11.58994,0 20.98545,5.47288 20.98545,12.22402z" stroke-width="0"/><path d="M489.97873,371.83219c0,6.75113 -9.39551,12.22402 -20.98546,12.22402c-11.58995,0 -20.98545,-5.47289 -20.98545,-12.22402c0,-6.75114 9.3955,-12.22402 20.98545,-12.22402c11.58994,0 20.98545,5.47288 20.98545,12.22401z" stroke-width="0"/><path d="M525.01044,57.27932c10.14249,0 18.36461,18.46721 18.36461,41.24766c0,22.78045 -8.22212,41.24766 -18.36461,41.24766c-10.14249,0 -18.3646,-18.46721 -18.3646,-41.24766c0,-22.78045 8.22211,-41.24766 18.3646,-41.24766z" stroke-width="0"/><path d="M-53.37004,149.98627c5.52559,0 10.00497,12.68785 10.00497,28.3391c0,15.65125 -4.47938,28.33909 -10.00497,28.33909c-5.52559,0 -10.00496,-12.68784 -10.00496,-28.33909c0,-15.65125 4.47937,-28.3391 10.00496,-28.3391z" stroke-width="0"/><path d="M199.74909,374.00945c0,16.56471 -25.80576,29.99305 -57.63875,29.99305c-31.833,0 -57.63874,-13.42835 -57.63874,-29.99305c0,-16.56471 25.80575,-29.99304 57.63875,-29.99304c31.833,0 57.63875,13.42834 57.63875,29.99304z" stroke-width="0"/><path d="M254.94646,389.07324c0,9.07115 -7.47278,16.42476 -16.69092,16.42476c-9.21814,0 -16.69091,-7.35361 -16.69091,-16.42476c0,-9.07115 7.47277,-16.42476 16.69091,-16.42476c9.21814,0 16.69092,7.35361 16.69092,16.42476z" stroke-width="0"/></g><path d="M125.67295,242.54813c0,-20.83883 0,-57.61197 0,-69.74789c0,-7.13046 8.65367,-17.18427 16.17343,-17.18427c11.96489,0 48.3564,0 69.74789,0c9.59595,0 16.17343,8.65367 16.17343,16.17343c0,11.77844 0,47.22812 0,68.73706c0,10.14186 -6.81261,17.18427 -13.14092,17.18427c-11.86845,0 -52.84739,0 -74.80207,0c-8.50254,0 -14.15175,-6.68426 -14.15175,-15.16259z" fill="url(#color-1)" stroke="#000000" stroke-width="2" stroke-linecap="butt"/><path d="M132.58061,87.50578c4.10816,0 7.43849,6.1185 7.43849,13.66606c0,7.54755 -3.33033,13.66605 -7.43849,13.66605c-4.10816,0 -7.43848,-6.1185 -7.43848,-13.66605c0,-7.54755 3.33032,-13.66605 7.43848,-13.66605z" fill="#ffebb1" stroke="#000000" stroke-width="2" stroke-linecap="butt"/><path d="M218.38266,87.50578c4.10816,0 7.43849,6.1185 7.43849,13.66606c0,7.54755 -3.33033,13.66605 -7.43849,13.66605c-4.10816,0 -7.43848,-6.1185 -7.43848,-13.66605c0,-7.54755 3.33032,-13.66605 7.43848,-13.66605z" fill="#ffebb1" stroke="#000000" stroke-width="2" stroke-linecap="butt"/><path d="M108.34822,208.37057c1.12744,-8.5961 2.52166,-17.22137 8.11798,-25.67246c4.03929,-6.09979 13.66057,-11.95664 14.50204,-12.27866c44.11085,-16.8808 6.97199,34.41771 1.28835,49.28424c-5.16768,13.51695 -6.67719,97.79854 -6.67719,97.79854l-19.75717,-0.04892c0,0 0.51183,-93.72572 2.52599,-109.08274z" data-paper-data="{&quot;index&quot;:null}" fill="url(#color-2)" stroke="#000000" stroke-width="2" stroke-linecap="butt"/><path d="M297.79111,180.50535c0,0 -15.05669,31.9915 -23.90755,44.70201c-16.45428,25.1147 -43.15618,-11.88815 -56.039,-28.20244c-15.00161,-18.99745 -25.8498,-26.12438 -4.32058,-26.86292c24.39424,-0.83683 41.95764,36.13042 44.34118,34.00686c10.80493,-9.62633 22.40441,-32.77278 22.40441,-32.77278l17.52153,9.12928z" data-paper-data="{&quot;index&quot;:null}" fill="url(#color-3)" stroke="#000000" stroke-width="2" stroke-linecap="butt"/><path d="M280.48299,170.68635c1.16973,-2.25865 0.27292,-14.61926 0.89761,-20.70332c0.32948,-3.20899 2.52825,-2.39018 2.52825,-2.39018c5.84637,1.60885 -0.45106,13.54447 3.92878,15.81274c1.39408,0.72198 6.2087,-26.62083 8.59926,-25.00417c1.13006,0.645 1.68452,5.6952 0.96132,10.25068c-0.6554,4.12842 -2.61075,7.81111 -1.49572,8.17115c0.74777,0.24145 7.80213,-14.80727 10.31352,-13.48497c1.32039,0.69981 -6.11057,17.08729 -5.13573,16.55249c3.07157,-1.68505 11.24668,-14.41721 13.19054,-12.60741c2.4733,2.92409 -8.83312,16.51871 -7.68731,16.60165c5.83057,0.42209 11.66903,-19.45239 15.52699,-10.64122c-2.17361,9.3279 -21.95509,23.39921 -23.51219,26.40584c-1.00534,1.94123 -5.81321,-0.24589 -10.24236,-2.41099c-4.64568,-2.27093 -8.87493,-4.61758 -7.87297,-6.55229z" data-paper-data="{&quot;index&quot;:null}" fill="#ffebb1" stroke="#000000" stroke-width="2" stroke-linecap="butt"/><path d="M105.16109,321.69489c0,0 0.60028,-2.82807 0.60028,-3.78393c0,-2.18613 4.81382,-2.45502 9.74249,-2.56932c5.16961,-0.11989 10.46563,0.01897 10.46563,2.19774c0,1.12651 0.63239,3.72868 0.63239,3.72868" data-paper-data="{&quot;index&quot;:null}" fill="#ffebb1" stroke="#000000" stroke-width="2" stroke-linecap="butt"/><path d="M153.37563,169.52634l12.9768,-22.06055h22.06055l12.9768,22.06055c0,0 -15.91567,3.11379 -23.90012,3.11379c-8.0201,0 -24.11403,-3.11379 -24.11403,-3.11379z" fill="url(#color-4)" stroke="#000000" stroke-width="2" stroke-linecap="butt"/><path d="M130.01739,320.84076c0,0 -5.19072,-45.19293 -5.19072,-68.61686c0,-24.04317 5.19072,-73.08295 5.19072,-73.08295c0,0 0.0942,-11.09271 26.75752,-14.86477c5.46212,-0.77273 12.03923,4.64334 19.95895,4.64334c8.19556,0 14.91356,-5.38766 20.42016,-4.57281c25.93486,3.83778 24.99861,14.79424 24.99861,14.79424c0,0 6.48839,47.80108 6.48839,71.84426c0,23.42395 -6.48839,69.60557 -6.48839,69.60557" fill="url(#color-5)" stroke="#000000" stroke-width="2" stroke-linecap="butt"/><path d="M219.38476,101.26883c0,29.09732 -19.67649,52.68535 -43.94865,52.68535c-24.27217,0 -43.94865,-23.58804 -43.94865,-52.68535c0,-29.09731 19.67649,-52.68535 43.94866,-52.68535c24.27217,0 43.94866,23.58804 43.94866,52.68535z" fill="url(#color-6)" stroke="#000000" stroke-width="2" stroke-linecap="butt"/><path d="M175.0399,106.70745c0,0 5.53561,5.70605 5.53561,8.30343c0,2.90395 -5.53561,8.30342 -5.53561,8.30342" fill="none" stroke="#000000" stroke-width="2" stroke-linecap="round"/><path d="M148.30219,239.21361c0,-15.63245 12.67261,-28.30506 28.30506,-28.30506c15.63245,0 28.30505,12.67261 28.30505,28.30506c0,15.63245 -12.67259,28.30504 -28.30505,28.30504c-15.63245,0 -28.30506,-12.67259 -28.30506,-28.30504z" fill="none" stroke="url(#color-7)" stroke-width="7.5" stroke-linecap="butt"/><text transform="translate(157.66227,266.41154) scale(0.82801,0.82801)" font-size="40" xml:space="preserve" fill="url(#color-8)" fill-rule="nonzero" stroke="url(#color-9)" stroke-width="2" stroke-linecap="butt" stroke-linejoin="miter" stroke-miterlimit="10" stroke-dasharray="" stroke-dashoffset="0" font-family="&quot;Microsoft YaHei&quot;, &quot;微软雅黑&quot;, STXihei, &quot;华文细黑&quot;" font-weight="normal" text-anchor="start" style="mix-blend-mode: normal"><tspan x="0" dy="0">12</tspan></text><text transform="translate(152.3419,235.32001) scale(0.36347,0.36347)" font-size="40" xml:space="preserve" fill="#ffffff" fill-rule="nonzero" stroke="#ffffff" stroke-width="5" stroke-linecap="butt" stroke-linejoin="miter" stroke-miterlimit="10" stroke-dasharray="" stroke-dashoffset="0" font-family="&quot;Microsoft YaHei&quot;, &quot;微软雅黑&quot;, STXihei, &quot;华文细黑&quot;" font-weight="normal" text-anchor="start" style="mix-blend-mode: normal"><tspan x="0" dy="0">Den4ik</tspan></text><text transform="translate(152.3419,235.32001) scale(0.36347,0.36347)" font-size="40" xml:space="preserve" fill="#0041ff" fill-rule="nonzero" stroke="#0041ff" stroke-width="1" stroke-linecap="butt" stroke-linejoin="miter" stroke-miterlimit="10" stroke-dasharray="" stroke-dashoffset="0" font-family="&quot;Microsoft YaHei&quot;, &quot;微软雅黑&quot;, STXihei, &quot;华文细黑&quot;" font-weight="normal" text-anchor="start" style="mix-blend-mode: normal"><tspan x="0" dy="0">Den4ik</tspan></text><g stroke="#000000" stroke-linecap="butt"><g stroke-width="2"><path d="M209.69245,96.32817c0,0 -7.47568,7.61147 -14.01477,7.61147c-6.53908,0 -15.10213,-7.61147 -15.10213,-7.61147c0,0 8.56304,-7.61147 15.10213,-7.61147c6.53909,0 14.01477,7.61147 14.01477,7.61147z" fill="#ffffff"/><path d="M188.06617,96.75104c0,-3.97016 3.21846,-7.1886 7.18862,-7.1886c3.97016,0 7.1886,3.21845 7.1886,7.1886c0,3.97016 -3.21845,7.18862 -7.1886,7.18862c-3.97016,0 -7.18862,-3.21846 -7.18862,-7.18862z" fill="#754100"/></g><path d="M192.29985,96.50116c0,-1.62415 1.31663,-2.9408 2.9408,-2.9408c1.62417,0 2.94079,1.31665 2.94079,2.9408c0,1.62415 -1.31663,2.9408 -2.94079,2.9408c-1.62417,0 -2.9408,-1.31665 -2.9408,-2.9408z" fill="#000000" stroke-width="0"/></g><g stroke="#000000" stroke-linecap="butt"><g stroke-width="2"><path d="M169.55919,96.32817c0,0 -7.47568,7.61147 -14.01477,7.61147c-6.53908,0 -15.10212,-7.61147 -15.10212,-7.61147c0,0 8.56304,-7.61147 15.10213,-7.61147c6.53909,0 14.01477,7.61147 14.01477,7.61147z" fill="#ffffff"/><path d="M147.93295,96.75104c0,-3.97016 3.21845,-7.1886 7.1886,-7.1886c3.97016,0 7.18861,3.21845 7.18861,7.1886c0,3.97016 -3.21845,7.18861 -7.18861,7.18861c-3.97016,0 -7.1886,-3.21845 -7.1886,-7.18861z" fill="#754100"/></g><path d="M152.5126,96.50116c0,-1.62417 1.31664,-2.9408 2.9408,-2.9408c1.62417,0 2.94079,1.31663 2.94079,2.9408c0,1.62417 -1.31663,2.9408 -2.94079,2.9408c-1.62417,0 -2.9408,-1.31663 -2.9408,-2.9408z" fill="#000000" stroke-width="0"/></g><path d="M155.93451,94.94427c0,-0.38215 0.3098,-0.69195 0.69195,-0.69195c0.38215,0 0.69196,0.3098 0.69196,0.69195c0,0.38215 -0.30981,0.69195 -0.69196,0.69195c-0.38215,0 -0.69195,-0.3098 -0.69195,-0.69195z" fill="#ffffff" stroke="none" stroke-width="0.5" stroke-linecap="butt"/><path d="M195.72175,94.94427c0,-0.38215 0.3098,-0.69195 0.69195,-0.69195c0.38215,0 0.69196,0.3098 0.69196,0.69195c0,0.38215 -0.30981,0.69195 -0.69196,0.69195c-0.38215,0 -0.69195,-0.3098 -0.69195,-0.69195z" fill="#ffffff" stroke="none" stroke-width="0.5" stroke-linecap="butt"/><g fill="none" stroke="#000000" stroke-width="1" stroke-linecap="round"><path d="M155.28901,87.60958v2.07586"/><path d="M159.7175,90.65416v-2.07586"/><path d="M163.73082,92.59163v-2.07586"/><path d="M167.74415,95.08266v-2.07585"/><path d="M150.86052,88.5783v2.07586" data-paper-data="{&quot;index&quot;:null}"/><path d="M146.8472,90.51577v2.07586" data-paper-data="{&quot;index&quot;:null}"/><path d="M142.83387,95.08266v-2.07585" data-paper-data="{&quot;index&quot;:null}"/></g><g fill="none" stroke="#000000" stroke-width="1" stroke-linecap="round"><path d="M195.28384,89.82382v-2.07586"/><path d="M199.71232,90.79256v-2.07586"/><path d="M203.72561,90.65416v2.07586"/><path d="M207.73895,95.22105v-2.07586"/><path d="M190.85535,90.79256v-2.07586" data-paper-data="{&quot;index&quot;:null}"/><path d="M186.84202,90.65416v2.07586" data-paper-data="{&quot;index&quot;:null}"/><path d="M182.8287,93.14519v2.07586" data-paper-data="{&quot;index&quot;:null}"/></g><path d="M127.69683,208.4761c0,0 -2.43612,-16.52705 -0.63569,-24.20372c1.71254,-7.30195 7.49735,-20.78844 7.49735,-20.78844l13.25393,1.72455c0,0 -0.92849,16.01028 -2.52712,23.33802c-3.18432,14.59619 -17.58848,19.92958 -17.58848,19.92958z" fill="url(#color-10)" stroke="#000000" stroke-width="2" stroke-linecap="butt"/><path d="M207.76384,188.55216c-1.75314,-7.29233 -1.45799,-23.43484 -1.45799,-23.43484l13.38925,-1.07725c0,0 5.12305,13.75147 6.47897,21.128c1.42549,7.75505 -0.43078,24.32351 -0.43078,24.32351c0,0 -13.78614,-3.49704 -17.97944,-20.93942z" fill="url(#color-11)" stroke="#000000" stroke-width="2" stroke-linecap="butt"/><path d="M175.60991,84.67906c0,0 -48.52549,-2.22772 -48.53915,-7.20637c-0.0968,-35.29329 21.51726,-45.25493 48.53915,-45.25493c27.02189,0 49.58512,10.29005 48.92746,45.25493c-0.07513,3.99478 -48.92746,7.20637 -48.92746,7.20637z" fill="#a45a00" stroke="#000000" stroke-width="2" stroke-linecap="butt"/><path d="M132.86545,74.75514c0,0 4.56434,-16.59773 13.15805,-24.49645c8.59371,-7.89872 29.40028,-14.62004 29.40028,-14.62004c0,0 22.15158,6.02723 31.48755,14.43861c9.33598,8.41139 11.5544,24.34066 11.5544,24.34066" fill="none" stroke="#7a4300" stroke-width="2" stroke-linecap="round"/><path d="M227.01287,87.70699c0,6.74474 -22.9487,-1.73079 -51.25734,-1.73079c-28.30864,0 -50.9958,8.47044 -51.25735,1.73079c-0.38831,-10.00632 0.31203,-22.37428 51.64566,-22.37428c51.33364,0 50.86904,11.97941 50.86904,22.37428z" fill="#a45a00" stroke="#000000" stroke-width="2" stroke-linecap="butt"/><path d="M185.10294,32.94989c0,2.8952 -4.25942,5.24223 -9.51368,5.24223c-5.25425,0 -9.51368,-2.34703 -9.51368,-5.24223c0,-2.8952 4.25942,-5.24223 9.51368,-5.24223c5.25426,0 9.51368,2.34703 9.51368,5.24223z" fill="#a45a00" stroke="#000000" stroke-width="2" stroke-linecap="butt"/><path d="M169.33969,47.91255c0.56894,1.38593 -1.00881,3.34645 -3.524,4.37896c-2.51519,1.03251 -5.01537,0.74602 -5.5843,-0.6399c-0.56894,-1.38593 1.00882,-3.34645 3.52401,-4.37897c2.51519,-1.03251 5.01536,-0.74602 5.5843,0.6399z" fill="#a45a00" stroke="#7a4300" stroke-width="2" stroke-linecap="butt"/><path d="M186.93992,47.58331c2.51519,1.03251 4.09294,2.99304 3.524,4.37896c-0.56894,1.38593 -3.06911,1.6724 -5.5843,0.63989c-2.51519,-1.03251 -4.09293,-2.99303 -3.524,-4.37896c0.56894,-1.38593 3.0691,-1.6724 5.58429,-0.63989z" data-paper-data="{&quot;index&quot;:null}" fill="#a45a00" stroke="#7a4300" stroke-width="2" stroke-linecap="butt"/><path d="M163.4922,137.73348c0,-4.68817 5.76433,-3.22809 12.875,-3.22809c7.11067,0 12.875,-1.46008 12.875,3.22809c0,4.68817 -5.76433,8.48868 -12.875,8.48868c-7.11067,0 -12.875,-3.80051 -12.875,-8.48868z" fill="#000000" stroke="none" stroke-width="0" stroke-linecap="butt"/><path d="M397.82242,65.15626c0,25.68124 -36.48879,46.5 -81.5,46.5c-10.56154,0 -20.65386,-1.14622 -29.91567,-3.23252c-0.98145,-0.22108 -3.01216,-0.7808 -3.01216,-0.7808c0,0 -40.39237,20.09061 -42.58991,17.91586c-1.78319,-1.76471 6.73837,-35.44572 6.73837,-35.44572c0,0 -1.47,-1.35402 -2.15994,-2.04801c-6.72242,-6.76187 -10.56069,-14.57959 -10.56069,-22.9088c0,-25.68124 36.48879,-46.5 81.5,-46.5c45.01121,0 81.5,20.81876 81.5,46.5z" fill="#ffffff" stroke="#000000" stroke-width="2" stroke-linecap="butt"/><text transform="translate(261.57247,73.32226) scale(0.7023,0.7023)" font-size="40" xml:space="preserve" fill="#000000" fill-rule="nonzero" stroke="none" stroke-width="1" stroke-linecap="butt" stroke-linejoin="miter" stroke-miterlimit="10" stroke-dasharray="" stroke-dashoffset="0" font-family="&quot;Microsoft YaHei&quot;, &quot;微软雅黑&quot;, STXihei, &quot;华文细黑&quot;" font-weight="normal" text-anchor="start" style="mix-blend-mode: normal"><tspan x="0" dy="0">Привет!</tspan></text></g></g></svg>
