<svg width="705.7057" height="527.02703" viewBox="0,0,705.7057,527.02703" xmlns="http://www.w3.org/2000/svg"><defs><linearGradient x1="72.47434" y1="47.87933" x2="172.0277" y2="5.56828" gradientUnits="userSpaceOnUse" id="color-1"><stop offset="0" stop-color="#000000"/><stop offset="1" stop-color="#000000" stop-opacity="0"/></linearGradient><mask id="mask-1"><g><g data-paper-data="{&quot;isPaintingLayer&quot;:true}" fill-rule="nonzero" stroke="none" stroke-width="0" stroke-linecap="butt" stroke-linejoin="miter" stroke-miterlimit="10" stroke-dasharray="" stroke-dashoffset="0" style="mix-blend-mode: normal"><path d="M-112.85282,443.51352v-527.02703h705.7057v527.02703z" fill="none"/><path d="M-78.86491,427.12779l42.32039,-142.89075l-31.79418,-96.69589l65.62462,-77.99702l-76.15083,-152.05073l141.34018,43.61615l119.33589,-64.56333l126.61499,82.16727l67.35808,-46.51723l159.32241,-14.70285l-65.48972,127.68246l82.12916,155.40745l-103.69678,74.66435l87.05735,111.88011l-237.40514,-49.29764l-32.2779,48.25045l-145.90231,-44.64329z" fill="#ffffff"/><path d="M18.13625,-81.97711l39.84661,70.61309l-70.61309,-39.84661z" fill="#ffffff"/><path d="M291.10492,432.09671l10.02453,-35.99068l10.02452,35.99068z" data-paper-data="{&quot;index&quot;:null}" fill="#ffffff"/><path d="M336.68665,441.97713l-26.95515,-47.76784l47.76784,26.95516z" data-paper-data="{&quot;index&quot;:null}" fill="#ffffff"/><path d="M544.57418,91.51746l-52.05592,-14.4992l52.05592,-14.49921z" data-paper-data="{&quot;index&quot;:null}" fill="#ffffff"/><path d="M528.76208,158.55006l-38.98719,-69.09008l69.09008,38.98718z" data-paper-data="{&quot;index&quot;:null}" fill="#ffffff"/></g></g></mask></defs><g transform="translate(112.85283,83.5135)" mask="url(#mask-1)"><g data-paper-data="{&quot;isPaintingLayer&quot;:true}" fill-rule="nonzero" stroke-linejoin="miter" stroke-miterlimit="10" stroke-dasharray="" stroke-dashoffset="0" style="mix-blend-mode: normal"><path d="M-112.85283,443.51353v-527.02703h705.7057v527.02703z" fill="#66ff6a" stroke="none" stroke-width="0" stroke-linecap="butt"/><g stroke-width="2"><path d="M93.91606,97.99319c-3.48751,1.48223 -9.03666,-3.72065 -12.39435,-11.62094c-3.3577,-7.9003 -3.25245,-15.50633 0.23507,-16.98856c3.48751,-1.48223 9.03666,3.72065 12.39435,11.62094c3.3577,7.9003 3.25245,15.50633 -0.23507,16.98856z" fill="#4d4d4d" stroke="#000000" stroke-linecap="butt"/><path d="M185.35378,87.24488c13.41369,32.64017 40.43119,71.46684 21.28685,79.53509c-21.5795,9.87611 -41.43819,-17.78874 -44.62395,-14.56129c-3.72672,3.77548 -9.51539,7.15114 -14.50509,7.7375c-4.98971,0.58636 -15.74723,-8.17473 -28.26679,-2.71122c-13.30106,5.80455 -7.63274,13.68904 -15.82475,20.66936c-8.19201,6.9803 -10.60752,7.27279 -16.96746,7.27248c-2.31206,-0.00011 3.30168,32.84249 -19.51938,41.73495c-19.50229,8.30261 -31.55435,-38.21941 -43.96635,-70.66102c-8.06853,-21.08892 2.00123,-46.634 24.33022,-66.55498c9.37236,-8.36163 27.47602,-0.27046 40.73333,-5.90493c13.40992,-5.69934 20.42968,-24.41249 33.22033,-25.37723c29.98045,-2.26127 55.56267,8.03954 64.10309,28.82129z" fill="#4d4d4d" stroke="#000000" stroke-linecap="butt"/><path d="M74.32719,166.46039c-3.2144,-7.56314 0.31094,-16.30006 7.8741,-19.51446c7.56314,-3.2144 16.30006,0.31094 19.51446,7.8741c3.2144,7.56314 -0.31094,16.30006 -7.8741,19.51446c-7.56314,3.2144 -16.30006,-0.31094 -19.51446,-7.8741z" fill="#808080" stroke="#404040" stroke-linecap="butt"/><path d="M129.4165,143.04696c-3.2144,-7.56314 0.31094,-16.30006 7.8741,-19.51446c7.56314,-3.2144 16.30006,0.31094 19.51446,7.8741c3.2144,7.56314 -0.31094,16.30006 -7.8741,19.51446c-7.56314,3.2144 -16.30006,-0.31094 -19.51446,-7.8741z" fill="#808080" stroke="#404040" stroke-linecap="butt"/><path d="M100.45428,129.48667c0.75623,1.77934 -2.1647,4.72376 -6.5241,6.57655c-4.3594,1.85278 -8.50643,1.91232 -9.26268,0.13297c-0.75623,-1.77934 2.1647,-4.72376 6.5241,-6.57655c4.3594,-1.85278 8.50643,-1.91232 9.26268,-0.13297z" fill="#808080" stroke="#404040" stroke-linecap="butt"/><path d="M126.22863,118.53235c0.75623,1.77934 -2.1647,4.72376 -6.5241,6.57655c-4.3594,1.85278 -8.50643,1.91232 -9.26268,0.13297c-0.75623,-1.77934 2.1647,-4.72376 6.5241,-6.57655c4.3594,-1.85278 8.50643,-1.91232 9.26268,-0.13297z" fill="#808080" stroke="#404040" stroke-linecap="butt"/><path d="M28.0243,147.90784c-5.4071,-12.72232 0.52305,-27.41913 13.24539,-32.82624c12.72232,-5.4071 27.41913,0.52305 32.82624,13.24539c5.4071,12.72232 -0.52305,27.41913 -13.24539,32.82624c-12.72232,5.4071 -27.41913,-0.52305 -32.82624,-13.24539z" fill="#595959" stroke="#2b2b2b" stroke-linecap="butt"/><path d="M129.51074,104.77522c-5.4071,-12.72232 0.52305,-27.41913 13.24539,-32.82624c12.72232,-5.4071 27.41913,0.52305 32.82624,13.24539c5.4071,12.72232 -0.52305,27.41913 -13.24539,32.82624c-12.72232,5.4071 -27.41913,-0.52305 -32.82624,-13.24539z" fill="#595959" stroke="#2b2b2b" stroke-linecap="butt"/><path d="M133.53799,103.06362c-1.51248,-3.55869 0.14632,-7.66969 3.70499,-9.18216c3.55869,-1.51248 7.66969,0.14632 9.18216,3.70499c1.51248,3.55869 -0.14632,7.66969 -3.70499,9.18216c-3.55869,1.51248 -7.66969,-0.14632 -9.18216,-3.70499z" fill="#ff8080" stroke="#804040" stroke-linecap="butt"/><path d="M160.62535,113.99339c-3.55869,1.51248 -7.66969,-0.14632 -9.18216,-3.70499c-1.51248,-3.55869 0.14632,-7.66969 3.70499,-9.18216c3.55869,-1.51248 7.66969,0.14632 9.18216,3.70499c1.51248,3.55869 -0.14632,7.66969 -3.70499,9.18216z" fill="#80a3ff" stroke="#405280" stroke-linecap="butt"/><path d="M158.66795,92.38317c-1.51248,-3.55869 0.14632,-7.66969 3.70499,-9.18216c3.55869,-1.51248 7.66969,0.14632 9.18216,3.70499c1.51248,3.55869 -0.14632,7.66969 -3.70499,9.18216c-3.55869,1.51248 -7.66969,-0.14632 -9.18216,-3.70499z" fill="#82ff80" stroke="#418040" stroke-linecap="butt"/><path d="M149.9449,88.86342c-3.55869,1.51248 -7.66969,-0.14632 -9.18216,-3.70499c-1.51248,-3.55869 0.14632,-7.66969 3.70499,-9.18216c3.55869,-1.51248 7.66969,0.14632 9.18216,3.70499c1.51248,3.55869 -0.14632,7.66969 -3.70499,9.18216z" fill="#fffb80" stroke="#807d40" stroke-linecap="butt"/><path d="M43.95557,133.39398l-5.75101,-13.53153l8.6344,-3.6697l5.75101,13.53153l-2.17144,6.70459z" fill="#808080" stroke="#404040" stroke-linecap="butt"/><path d="M58.16465,142.84089l5.75101,13.53153l-8.6344,3.6697l-5.75101,-13.53153l2.17144,-6.70459z" fill="#808080" stroke="#404040" stroke-linecap="butt"/><path d="M55.78357,131.01289l13.53153,-5.75101l3.6697,8.6344l-13.53153,5.75101l-6.70459,-2.17144z" fill="#808080" stroke="#404040" stroke-linecap="butt"/><path d="M46.33666,145.22197l-13.53153,5.75101l-3.6697,-8.6344l13.53153,-5.75101l6.70459,2.17144z" fill="#808080" stroke="#404040" stroke-linecap="butt"/><path d="M81.58011,69.30424c0,0 -13.78544,-35.97545 0.79563,-47.29931c14.58107,-11.32383 45.51051,4.97601 63.55091,-2.67303c21.65654,-9.18227 16.99526,-35.18854 16.99526,-35.18854" fill="none" stroke="url(#color-1)" stroke-linecap="round"/></g><g stroke-width="2"><path d="M457.83327,246.00556l-53.10893,115.80521c-5.47055,11.92867 -19.61921,17.18371 -31.5562,11.70934l-161.29205,-73.96945c-11.9245,-5.46864 -17.1818,-19.62338 -11.71125,-31.55204l53.11084,-115.80938c5.47055,-11.92867 19.62754,-17.1799 31.55204,-11.71125l161.29205,73.96945c11.937,5.47438 17.18405,19.62946 11.7135,31.55812z" fill="#d4d4d4" stroke="#696969" stroke-linecap="butt"/><path d="M457.83327,246.00556l-4.48008,9.71018l-204.51916,-93.79364l4.44164,-9.73284c5.47055,-11.92867 19.62754,-17.1799 31.55204,-11.71125l161.29205,73.96945c11.937,5.47438 17.18405,19.62946 11.7135,31.55812z" fill="#009cff" stroke="#004f80" stroke-linecap="butt"/><path d="M429.103,225.61894c2.86157,-6.23971 10.23961,-8.97823 16.47932,-6.11667c6.23971,2.86157 8.97823,10.23961 6.11667,16.47932c-2.86157,6.23971 -10.23961,8.97823 -16.47932,6.11667c-6.23971,-2.86157 -8.97823,-10.23961 -6.11667,-16.47932z" fill="#ff0000" stroke="#800000" stroke-linecap="butt"/><g fill="none" stroke="#000000" stroke-linecap="round"><path d="M443.42609,238.95038l-6.05018,-16.30019"/><path d="M448.55108,227.77518l-16.30019,6.05018" data-paper-data="{&quot;index&quot;:null}"/></g><path d="M271.36307,154.53308l55.50754,25.45607" fill="none" stroke="#000000" stroke-linecap="round"/></g></g></g></svg>
