<svg width="705.7057" height="527.02703" viewBox="0,0,705.7057,527.02703" xmlns="http://www.w3.org/2000/svg"><defs><linearGradient x1="72.31125" y1="48.3234" x2="171.72784" y2="5.692" gradientUnits="userSpaceOnUse" id="color-1"><stop offset="0" stop-color="#000000"/><stop offset="1" stop-color="#000000" stop-opacity="0"/></linearGradient><mask id="mask-1"><g><g data-paper-data="{&quot;isPaintingLayer&quot;:true}" fill-rule="nonzero" stroke="none" stroke-width="0" stroke-linecap="butt" stroke-linejoin="miter" stroke-miterlimit="10" stroke-dasharray="" stroke-dashoffset="0" style="mix-blend-mode: normal"><path d="M-112.85282,443.51352v-527.02703h705.7057v527.02703z" fill="none"/><path d="M-78.86491,427.12779l42.32039,-142.89075l-31.79418,-96.69589l65.62462,-77.99702l-76.15083,-152.05073l141.34018,43.61615l119.33589,-64.56333l126.61499,82.16727l67.35808,-46.51723l159.32241,-14.70285l-65.48972,127.68246l82.12916,155.40745l-103.69678,74.66435l87.05735,111.88011l-237.40514,-49.29764l-32.2779,48.25045l-145.90231,-44.64329z" fill="#ffffff"/><path d="M18.13625,-81.97711l39.84661,70.61309l-70.61309,-39.84661z" fill="#ffffff"/><path d="M291.10492,432.09671l10.02453,-35.99068l10.02452,35.99068z" data-paper-data="{&quot;index&quot;:null}" fill="#ffffff"/><path d="M336.68665,441.97713l-26.95515,-47.76784l47.76784,26.95516z" data-paper-data="{&quot;index&quot;:null}" fill="#ffffff"/><path d="M544.57418,91.51746l-52.05592,-14.4992l52.05592,-14.49921z" data-paper-data="{&quot;index&quot;:null}" fill="#ffffff"/><path d="M528.76208,158.55006l-38.98719,-69.09008l69.09008,38.98718z" data-paper-data="{&quot;index&quot;:null}" fill="#ffffff"/></g></g></mask></defs><g transform="translate(112.85285,83.5135)" mask="url(#mask-1)"><g data-paper-data="{&quot;isPaintingLayer&quot;:true}" fill-rule="nonzero" stroke-linejoin="miter" stroke-miterlimit="10" stroke-dasharray="" stroke-dashoffset="0" style="mix-blend-mode: normal"><path d="M-112.85284,443.51353v-527.02703h705.7057v527.02703z" fill="#66ff6a" stroke="none" stroke-width="0" stroke-linecap="butt"/><g stroke-width="2"><path d="M93.91423,98.36797c-3.48272,1.49345 -9.04859,-3.69153 -12.43171,-11.58097c-3.38312,-7.88945 -3.30236,-15.49578 0.18036,-16.98923c3.48272,-1.49345 9.04859,3.69153 12.43171,11.58097c3.38312,7.88945 3.30236,15.49578 -0.18036,16.98923z" fill="#4d4d4d" stroke="#000000" stroke-linecap="butt"/><path d="M185.31687,87.32525c13.51873,32.5968 40.66112,71.33628 21.54286,79.46613c-21.54759,9.94555 -41.49526,-17.65521 -44.67061,-14.41752c-3.71455,3.78746 -9.49231,7.18175 -14.4801,7.78417c-4.9878,0.60243 -15.77348,-8.12398 -28.27538,-2.62018c-13.2823,5.84735 -7.58862,13.71355 -15.75811,20.72022c-8.16949,7.00665 -10.58404,7.30691 -16.94395,7.32709c-2.31205,0.00733 3.40742,32.83169 -19.38489,41.79759c-19.47545,8.36537 -31.67726,-38.1176 -44.19366,-70.51908c-8.13639,-21.06283 1.85105,-46.64021 24.11577,-66.63299c9.34539,-8.39177 27.47501,-0.35894 40.7141,-6.03607c13.3915,-5.74249 20.35096,-24.47815 33.13844,-25.48407c29.97301,-2.3578 55.58827,7.86057 64.19556,28.61471z" fill="#4d4d4d" stroke="#000000" stroke-linecap="butt"/><path d="M74.54594,166.89789c-3.23874,-7.55274 0.25845,-16.30098 7.81121,-19.53972c7.55274,-3.23874 16.30098,0.25845 19.53972,7.81121c3.23874,7.55274 -0.25845,16.30098 -7.81121,19.53972c-7.55274,3.23874 -16.30098,-0.25845 -19.53972,-7.81121z" fill="#808080" stroke="#000000" stroke-linecap="butt"/><path d="M129.55957,143.30718c-3.23874,-7.55274 0.25845,-16.30098 7.81121,-19.53972c7.55274,-3.23874 16.30098,0.25845 19.53972,7.81121c3.23874,7.55274 -0.25845,16.30098 -7.81121,19.53972c-7.55274,3.23874 -16.30098,-0.25845 -19.53972,-7.81121z" fill="#808080" stroke="#000000" stroke-linecap="butt"/><path d="M100.55384,129.84022c0.76196,1.7769 -2.14948,4.73071 -6.50289,6.59752c-4.35341,1.86681 -8.50023,1.9397 -9.2622,0.1628c-0.76196,-1.7769 2.14948,-4.73071 6.50289,-6.59752c4.35341,-1.86681 8.50023,-1.9397 9.2622,-0.1628z" fill="#808080" stroke="#000000" stroke-linecap="butt"/><path d="M126.29277,118.80296c0.76196,1.7769 -2.14948,4.73071 -6.50289,6.59752c-4.35341,1.86681 -8.50023,1.9397 -9.2622,0.1628c-0.76196,-1.7769 2.14948,-4.73071 6.50289,-6.59752c4.35341,-1.86681 8.50023,-1.9397 9.2622,-0.1628z" fill="#808080" stroke="#000000" stroke-linecap="butt"/><path d="M28.18355,148.49454c-5.44804,-12.70484 0.43476,-27.42067 13.13962,-32.86872c12.70484,-5.44804 27.42067,0.43476 32.86872,13.13962c5.44804,12.70484 -0.43476,27.42067 -13.13962,32.86872c-12.70484,5.44804 -27.42067,-0.43476 -32.86872,-13.13962z" fill="#595959" stroke="#000000" stroke-linecap="butt"/><path d="M129.53057,105.03534c-5.44804,-12.70484 0.43476,-27.42067 13.13962,-32.86872c12.70484,-5.44804 27.42067,0.43476 32.86872,13.13962c5.44804,12.70484 -0.43476,27.42067 -13.13962,32.86872c-12.70484,5.44804 -27.42067,-0.43476 -32.86872,-13.13962z" fill="#595959" stroke="#000000" stroke-linecap="butt"/><path d="M133.55228,103.31077c-1.52393,-3.55381 0.12162,-7.67012 3.67541,-9.19404c3.55381,-1.52393 7.67012,0.12162 9.19404,3.67541c1.52393,3.55381 -0.12162,7.67012 -3.67541,9.19404c-3.55381,1.52393 -7.67012,-0.12162 -9.19404,-3.67541z" fill="#ff8080" stroke="#000000" stroke-linecap="butt"/><path d="M160.6747,114.15325c-3.55381,1.52393 -7.67012,-0.12162 -9.19404,-3.67541c-1.52393,-3.55381 0.12162,-7.67012 3.67541,-9.19404c3.55381,-1.52393 7.67012,0.12162 9.19404,3.67541c1.52393,3.55381 -0.12162,7.67012 -3.67541,9.19404z" fill="#80a3ff" stroke="#000000" stroke-linecap="butt"/><path d="M158.64772,92.54945c-1.52393,-3.55381 0.12162,-7.67012 3.67541,-9.19404c3.55381,-1.52393 7.67012,0.12162 9.19404,3.67541c1.52393,3.55381 -0.12162,7.67012 -3.67541,9.19404c-3.55381,1.52393 -7.67012,-0.12162 -9.19404,-3.67541z" fill="#82ff80" stroke="#000000" stroke-linecap="butt"/><path d="M149.91337,89.05781c-3.55381,1.52393 -7.67012,-0.12162 -9.19404,-3.67541c-1.52393,-3.55381 0.12162,-7.67012 3.67541,-9.19404c3.55381,-1.52393 7.67012,0.12162 9.19404,3.67541c1.52393,3.55381 -0.12162,7.67012 -3.67541,9.19404z" fill="#fffb80" stroke="#000000" stroke-linecap="butt"/><path d="M44.068,133.92945l-5.79456,-13.51294l8.62254,-3.69748l5.79456,13.51294l-2.14984,6.71155z" fill="#808080" stroke="#000000" stroke-linecap="butt"/><path d="M58.30742,143.33055l5.79456,13.51294l-8.62254,3.69748l-5.79456,-13.51294l2.14984,-6.71155z" fill="#808080" stroke="#000000" stroke-linecap="butt"/><path d="M55.88827,131.51028l13.51294,-5.79456l3.69748,8.62254l-13.51294,5.79456l-6.71155,-2.14984z" fill="#808080" stroke="#000000" stroke-linecap="butt"/><path d="M46.48717,145.74971l-13.51294,5.79456l-3.69748,-8.62254l13.51294,-5.79456l6.71155,2.14984z" fill="#808080" stroke="#000000" stroke-linecap="butt"/><path d="M81.48596,69.71888c0,0 -13.90122,-35.93087 0.64331,-47.30162c14.54453,-11.37073 45.5263,4.82943 63.54198,-2.87767c21.62686,-9.25196 16.88186,-35.24309 16.88186,-35.24309" fill="none" stroke="url(#color-1)" stroke-linecap="round"/></g><g stroke="#000000" stroke-width="2"><path d="M457.51581,245.82569l-52.80513,115.94405c-5.43926,11.94297 -19.57409,17.23509 -31.5254,11.79203l-161.48542,-73.54633c-11.9388,-5.43736 -17.23319,-19.57826 -11.79393,-31.52123l52.80703,-115.94822c5.43926,-11.94297 19.58243,-17.2313 31.52123,-11.79393l161.48542,73.54633c11.95131,5.44306 17.23546,19.58434 11.7962,31.5273z" fill="#d4d4d4" stroke-linecap="butt"/><path d="M457.51581,245.82569l-4.45461,9.72189l-204.76436,-93.25713l4.41611,-9.74445c5.43926,-11.94297 19.58243,-17.2313 31.52123,-11.79393l161.48542,73.54633c11.95131,5.44306 17.23546,19.58434 11.7962,31.5273z" fill="#009cff" stroke-linecap="butt"/><path d="M428.73219,225.51447c2.8452,-6.24719 10.21604,-9.00505 16.46323,-6.15985c6.24719,2.8452 9.00505,10.21604 6.15985,16.46323c-2.8452,6.24719 -10.21604,9.00505 -16.46323,6.15985c-6.24719,-2.8452 -9.00505,-10.21604 -6.15985,-16.46323z" fill="#ff0000" stroke-linecap="butt"/><g fill="none" stroke-linecap="round"><path d="M436.99729,222.52402l6.0929,16.28428"/><path d="M448.18587,227.61971l-16.28428,6.0929" data-paper-data="{&quot;index&quot;:null}"/></g><path d="M326.38054,180.15286l-55.57409,-25.31046" fill="none" stroke-linecap="round"/></g></g></g></svg>
