<svg width="705.7057" height="527.02703" viewBox="0,0,705.7057,527.02703" xmlns="http://www.w3.org/2000/svg"><g transform="translate(112.85285,83.5135)" mask="url(#mask-1)"><g data-paper-data="{&quot;isPaintingLayer&quot;:true}" fill-rule="nonzero" stroke-linejoin="miter" stroke-miterlimit="10" stroke-dasharray="" stroke-dashoffset="0" style="mix-blend-mode: normal"><path d="M-112.85285,443.51353v-527.02703h705.7057v527.02703z" fill="#f8aa36" stroke="none" stroke-width="0" stroke-linecap="butt"/><path d="M436.30597,65.13904v229.72806c0,17.55063 -14.26986,31.82661 -31.83274,31.82661h-328.95257c-17.5445,0 -31.82661,-14.27599 -31.82661,-31.82661v-229.7342c0,-17.55063 14.28211,-31.82661 31.82661,-31.82661h328.95257c17.5629,0 31.83274,14.28211 31.83274,31.83274z" fill="#ffffff" stroke="#cbd3e1" stroke-width="4" stroke-linecap="butt"/><g><path d="M324.72854,166.90251c8.18722,0 14.82428,12.19367 14.82428,27.23531c0,15.04167 -6.63707,27.23531 -14.82428,27.23531c-8.18722,0 -14.82428,-12.19367 -14.82428,-27.23531c0,-15.04165 6.63707,-27.23531 14.82428,-27.23531z" fill="#ffebb1" stroke="#807658" stroke-width="4" stroke-linecap="butt"/><path d="M157.86913,166.90251c8.1872,0 14.82428,12.19367 14.82428,27.23531c0,15.04167 -6.63707,27.23531 -14.82428,27.23531c-8.1872,0 -14.82428,-12.19367 -14.82428,-27.23531c0,-15.04165 6.63709,-27.23531 14.82428,-27.23531z" fill="#ffebb1" stroke="#807658" stroke-width="4" stroke-linecap="butt"/><path d="M328.88471,190.00083c0,57.98856 -39.2136,104.99755 -87.58605,104.99755c-48.37242,0 -87.58605,-47.00899 -87.58605,-104.99755c0,-57.98854 39.21361,-104.99755 87.58605,-104.99755c48.37242,0 87.58605,47.009 87.58605,104.99755z" fill="#ffebb1" stroke="#807658" stroke-width="4" stroke-linecap="butt"/><path d="M262.19081,140.45897c-0.70261,-15.83285 -21.87079,-13.03782 -35.54716,-12.82429c-47.6025,0.74336 -67.68272,39.89933 -69.87695,44.75791c-4.59637,10.17753 -6.58237,23.60581 -10.71937,21.55189c-4.17326,-2.0719 -19.01509,-52.65391 11.59702,-90.65318c30.6121,-37.99927 62.85869,-38.09013 82.86476,-38.2836c24.06798,-0.23278 68.08235,6.1144 89.36774,33.14933c20.83549,26.46348 7.62099,86.73443 2.33596,88.89246c-3.72119,1.51944 -3.78353,-18.10541 -7.66773,-29.56698c-1.55291,-4.58231 -61.54986,1.10298 -62.35424,-17.02352z" fill="#754100" stroke="#3b2000" stroke-width="4" stroke-linecap="butt"/><path d="M325.50093,138.58097c0,0 -20.10584,-2.39639 -30.12755,-6.56917c-8.33858,-3.47193 -25.88707,-16.75362 -25.88707,-16.75362" fill="none" stroke="#3b2000" stroke-width="4" stroke-linecap="round"/><path d="M171.74701,118.87541c0,0 16.90017,-11.15222 27.24711,-14.43683c8.60917,-2.73295 30.58502,-3.92189 30.58502,-3.92189" fill="none" stroke="#3b2000" stroke-width="4" stroke-linecap="round"/><path d="M240.58019,197.91206c0,0 10.48555,8.35111 10.48555,15.72829c0,7.37718 -10.48555,15.72831 -10.48555,15.72831" fill="none" stroke="#807658" stroke-width="4" stroke-linecap="round"/><path d="M262.20656,252.21028c0,0 -10.9782,4.91509 -19.00504,4.91509c-8.02686,0 -19.00502,-4.91509 -19.00502,-4.91509" fill="none" stroke="#807658" stroke-width="4" stroke-linecap="round"/><g fill="none" stroke="#3b2000" stroke-width="2" stroke-linecap="round"><path d="M203.37112,170.8601v-3.9321"/><path d="M211.75955,172.69512v-3.9321"/><path d="M219.36159,172.43291v3.93211"/><path d="M226.96359,181.0835v-3.93211"/><path d="M194.98273,168.763v3.93211" data-paper-data="{&quot;index&quot;:null}"/><path d="M187.38069,176.36502v-3.93211" data-paper-data="{&quot;index&quot;:null}"/><path d="M179.77868,181.08354v-3.93211" data-paper-data="{&quot;index&quot;:null}"/></g><g fill="none" stroke="#3b2000" stroke-width="2" stroke-linecap="round"><path d="M280.5147,166.92807v3.93211"/><path d="M288.90315,168.76298v3.93211"/><path d="M296.50518,176.36504v-3.9321"/><path d="M304.10724,177.15139v3.93211"/><path d="M272.12628,168.76299v3.93211" data-paper-data="{&quot;index&quot;:null}"/><path d="M264.52428,172.43291v3.93211" data-paper-data="{&quot;index&quot;:null}"/><path d="M256.92219,181.08354v-3.93211" data-paper-data="{&quot;index&quot;:null}"/></g><path d="M230.94763,185.14668c0,0 -15.21706,14.41764 -27.60341,14.41764c-12.38634,0 -27.54971,-14.41764 -27.54971,-14.41764c0,0 15.16342,-14.41762 27.54971,-14.41762c12.38634,0 27.60341,14.41762 27.60341,14.41762z" fill="#ffffff" stroke="#808080" stroke-width="4" stroke-linecap="butt"/><path d="M308.09124,185.14668c0,0 -15.21706,14.41764 -27.60341,14.41764c-12.38634,0 -27.54971,-14.41764 -27.54971,-14.41764c0,0 15.1634,-14.41762 27.54971,-14.41762c12.38634,0 27.60341,14.41762 27.60341,14.41762z" fill="#ffffff" stroke="#808080" stroke-width="4" stroke-linecap="butt"/><path d="M189.75448,185.14668c0,-7.52025 6.09638,-13.61663 13.61663,-13.61663c7.52025,0 13.61663,6.09638 13.61663,13.61663c0,7.52025 -6.09638,13.61664 -13.61663,13.61664c-7.52025,0 -13.61663,-6.0964 -13.61663,-13.61664z" fill="#754100" stroke="#3b2000" stroke-width="4" stroke-linecap="butt"/><path d="M197.80065,185.14668c0,-3.07645 2.49395,-5.57044 5.57045,-5.57044c3.07647,0 5.57045,2.49395 5.57045,5.57045c0,3.07647 -2.49397,5.57045 -5.57045,5.57045c-3.07647,0 -5.57045,-2.49397 -5.57045,-5.57045z" fill="#000000" stroke="#000000" stroke-width="0" stroke-linecap="butt"/><path d="M204.68177,182.5253c0,-0.72388 0.58683,-1.3107 1.3107,-1.3107c0.72388,0 1.3107,0.58683 1.3107,1.3107c0,0.72388 -0.58683,1.3107 -1.3107,1.3107c-0.72388,0 -1.3107,-0.58683 -1.3107,-1.3107z" fill="#ffffff" stroke="none" stroke-width="0.5" stroke-linecap="butt"/><path d="M266.89804,185.14668c0,-7.52025 6.09638,-13.61663 13.61663,-13.61663c7.52025,0 13.61663,6.09638 13.61663,13.61663c0,7.52025 -6.09638,13.61664 -13.61663,13.61664c-7.52025,0 -13.61663,-6.0964 -13.61663,-13.61664z" fill="#754100" stroke="#3b2000" stroke-width="4" stroke-linecap="butt"/><path d="M274.94424,185.14668c0,-3.07645 2.49395,-5.57044 5.57045,-5.57044c3.07647,0 5.57045,2.49395 5.57045,5.57045c0,3.07647 -2.49397,5.57045 -5.57045,5.57045c-3.07647,0 -5.57045,-2.49397 -5.57045,-5.57045z" fill="#000000" stroke="#000000" stroke-width="0" stroke-linecap="butt"/><path d="M281.8254,182.5253c0,-0.72388 0.58683,-1.3107 1.3107,-1.3107c0.72388,0 1.31069,0.58683 1.31069,1.3107c0,0.72388 -0.58682,1.3107 -1.31069,1.3107c-0.72388,0 -1.3107,-0.58683 -1.3107,-1.3107z" fill="#ffffff" stroke="none" stroke-width="0.5" stroke-linecap="butt"/></g><path d="M436.30597,65.13904v229.72806c0,17.55063 -14.26986,31.82661 -31.83274,31.82661h-328.95257c-17.5445,0 -31.82661,-14.27599 -31.82661,-31.82661v-229.7342c0,-17.55063 14.28211,-31.82661 31.82661,-31.82661h328.95257c17.5629,0 31.83274,14.28211 31.83274,31.83274z" fill-opacity="0.30196" fill="#000000" stroke="#cbd3e1" stroke-width="4" stroke-linecap="butt"/><path d="M201.04109,180c0,-21.51641 17.4425,-38.95891 38.95891,-38.95891c21.51641,0 38.95891,17.4425 38.95891,38.95891c0,21.51641 -17.4425,38.95891 -38.95891,38.95891c-21.51641,0 -38.95891,-17.4425 -38.95891,-38.95891z" fill="#ffffff" stroke="#cbd3e1" stroke-width="4" stroke-linecap="butt"/><path d="M222.56064,201.07517v-42.05005" fill="none" stroke="#45993e" stroke-width="4" stroke-linecap="round"/><path d="M222.88661,185.8232v-23.76251c0,0 6.38602,-3.71684 10.69489,-3.05747c4.30888,0.65939 6.97547,5.90185 12.6145,6.62451c5.63902,0.72266 11.24335,-3.56704 11.24335,-3.56704v23.76251c0,0 -6.65022,4.15567 -11.24335,3.56704c-4.59313,-0.58863 -6.98786,-5.76346 -12.6145,-6.62451c-5.62665,-0.86104 -10.69489,3.05747 -10.69489,3.05747z" fill="#4cbf56" stroke="#45993e" stroke-width="4" stroke-linecap="butt"/></g></g><defs><mask id="mask-1"><g><g data-paper-data="{&quot;isPaintingLayer&quot;:true}" fill-rule="nonzero" stroke="none" stroke-width="0" stroke-linecap="butt" stroke-linejoin="miter" stroke-miterlimit="10" stroke-dasharray="" stroke-dashoffset="0" style="mix-blend-mode: normal"><path d="M-112.85282,443.51352v-527.02703h705.7057v527.02703z" fill="none"/><path d="M-78.86491,427.12779l42.32039,-142.89075l-31.79418,-96.69589l65.62462,-77.99702l-76.15083,-152.05073l141.34018,43.61615l119.33589,-64.56333l126.61499,82.16727l67.35808,-46.51723l159.32241,-14.70285l-65.48972,127.68246l82.12916,155.40745l-103.69678,74.66435l87.05735,111.88011l-237.40514,-49.29764l-32.2779,48.25045l-145.90231,-44.64329z" fill="#ffffff"/><path d="M18.13625,-81.97711l39.84661,70.61309l-70.61309,-39.84661z" fill="#ffffff"/><path d="M291.10492,432.09671l10.02453,-35.99068l10.02452,35.99068z" data-paper-data="{&quot;index&quot;:null}" fill="#ffffff"/><path d="M336.68665,441.97713l-26.95515,-47.76784l47.76784,26.95516z" data-paper-data="{&quot;index&quot;:null}" fill="#ffffff"/><path d="M544.57418,91.51746l-52.05592,-14.4992l52.05592,-14.49921z" data-paper-data="{&quot;index&quot;:null}" fill="#ffffff"/><path d="M528.76208,158.55006l-38.98719,-69.09008l69.09008,38.98718z" data-paper-data="{&quot;index&quot;:null}" fill="#ffffff"/></g></g></mask></defs></svg>
