<svg version="1.1" xmlns="http://www.w3.org/2000/svg" xmlns:xlink="http://www.w3.org/1999/xlink" width="181.54712" height="187.5481" viewBox="0,0,181.54712,187.5481"><defs><linearGradient x1="216.36382" y1="97.9343" x2="216.36382" y2="221.57022" gradientUnits="userSpaceOnUse" id="color-1"><stop offset="0" stop-color="#0066ff"/><stop offset="1" stop-color="#0012b8"/></linearGradient><linearGradient x1="216.36382" y1="97.9343" x2="216.36382" y2="221.57022" gradientUnits="userSpaceOnUse" id="color-2"><stop offset="0" stop-color="#003380"/><stop offset="1" stop-color="#00095c"/></linearGradient><linearGradient x1="273.78404" y1="189.34922" x2="273.78404" y2="263.73239" gradientUnits="userSpaceOnUse" id="color-3"><stop offset="0" stop-color="#00ff1b"/><stop offset="1" stop-color="#00b712"/></linearGradient><linearGradient x1="273.78404" y1="189.34922" x2="273.78404" y2="263.73239" gradientUnits="userSpaceOnUse" id="color-4"><stop offset="0" stop-color="#00800d"/><stop offset="1" stop-color="#005c09"/></linearGradient></defs><g transform="translate(-154.28621,-85.93428)"><g data-paper-data="{&quot;isPaintingLayer&quot;:true}" fill-rule="nonzero" stroke-linecap="square" stroke-linejoin="miter" stroke-miterlimit="10" stroke-dasharray="" stroke-dashoffset="0" style="mix-blend-mode: normal"><path d="M251.44466,263.73239h-10.76146v-48.72786c0,-1.72182 0,-3.30018 0,-4.73505c0.05739,-1.49225 0.11479,-2.92712 0.17218,-4.30459c0.05739,-1.43485 0.14347,-2.81231 0.25828,-4.13241c-0.91831,0.91831 -1.86531,1.77921 -2.84103,2.58274c-0.91831,0.80354 -2.00881,1.75054 -3.27149,2.84103l-8.00652,6.54297l-5.50987,-6.97341l20.92026,-16.52959h9.03961zM326.08332,263.73239h-49.33051v-8.43697l18.94015,-19.19843c3.67323,-3.78803 6.74385,-7.05951 9.2118,-9.81444c2.46795,-2.81231 4.30459,-5.48116 5.50987,-8.00652c1.26267,-2.58274 1.89402,-5.39505 1.89402,-8.43697c0,-3.73064 -1.09049,-6.54298 -3.27149,-8.43698c-2.18099,-1.89402 -5.02202,-2.84103 -8.52308,-2.84103c-3.38628,0 -6.42816,0.63135 -9.12572,1.89402c-2.64013,1.26267 -5.39506,3.04192 -8.26479,5.33769l-5.85423,-7.31779c2.00882,-1.72182 4.1611,-3.27148 6.45687,-4.64894c2.29577,-1.37747 4.84984,-2.46795 7.66215,-3.27149c2.86974,-0.80354 5.99772,-1.20529 9.384,-1.20529c4.70634,0 8.72397,0.80353 12.05282,2.41056c3.38628,1.60703 5.96902,3.87412 7.74825,6.80123c1.83664,2.92712 2.75493,6.39948 2.75493,10.41708c0,3.90282 -0.80354,7.54736 -2.41057,10.93364c-1.54964,3.32888 -3.75934,6.62905 -6.62905,9.90054c-2.86974,3.2141 -6.25597,6.71516 -10.15882,10.50318l-13.68856,13.25811v0.51654h35.64195z" fill="#ffffff" stroke="#ffffff" stroke-width="19.5"/><path d="M266.44144,158.52024c0,13.91449 -2.60895,25.55822 -7.82689,34.93114c-5.21793,9.27632 -12.7066,16.28189 -22.46608,21.01666c-9.75948,4.73478 -21.49982,7.10217 -35.22102,7.10217h-34.64124v-123.63592h38.26482c12.56166,0 23.43235,2.31909 32.61204,6.95723c9.27632,4.63817 16.47512,11.45046 21.59643,20.43689c5.12131,8.88983 7.68196,19.95372 7.68196,33.19182zM246.87421,159.1c0,-10.33924 -1.69098,-18.84252 -5.07298,-25.50986c-3.382,-6.76396 -8.35833,-11.74035 -14.92909,-14.92908c-6.47407,-3.28534 -14.30098,-4.92804 -23.48067,-4.92804h-18.40769v92.03847h15.07401c15.55716,0 27.24919,-3.91344 35.07608,-11.74034c7.82689,-7.82689 11.74035,-19.47063 11.74035,-34.93114z" fill="#ffffff" stroke="#ffffff" stroke-width="24"/><path d="M266.44144,158.52024c0,13.91449 -2.60895,25.55822 -7.82689,34.93114c-5.21793,9.27632 -12.7066,16.28189 -22.46608,21.01666c-9.75948,4.73478 -21.49982,7.10217 -35.22102,7.10217h-34.64124v-123.63592h38.26482c12.56166,0 23.43235,2.31909 32.61204,6.95723c9.27632,4.63817 16.47512,11.45046 21.59643,20.43689c5.12131,8.88983 7.68196,19.95372 7.68196,33.19182zM246.87421,159.1c0,-10.33924 -1.69098,-18.84252 -5.07298,-25.50986c-3.382,-6.76396 -8.35833,-11.74035 -14.92909,-14.92908c-6.47407,-3.28534 -14.30098,-4.92804 -23.48067,-4.92804h-18.40769v92.03847h15.07401c15.55716,0 27.24919,-3.91344 35.07608,-11.74034c7.82689,-7.82689 11.74035,-19.47063 11.74035,-34.93114z" fill="url(#color-1)" stroke="url(#color-2)" stroke-width="9"/><path d="M251.44466,263.73239h-10.76146v-48.72786c0,-1.72182 0,-3.30018 0,-4.73505c0.05739,-1.49225 0.11479,-2.92712 0.17218,-4.30459c0.05739,-1.43485 0.14347,-2.81231 0.25828,-4.13241c-0.91831,0.91831 -1.86531,1.77921 -2.84103,2.58274c-0.91831,0.80354 -2.00881,1.75054 -3.27149,2.84103l-8.00652,6.54297l-5.50987,-6.97341l20.92026,-16.52959h9.03961zM326.08332,263.73239h-49.33051v-8.43697l18.94015,-19.19843c3.67323,-3.78803 6.74385,-7.05951 9.2118,-9.81444c2.46795,-2.81231 4.30459,-5.48116 5.50987,-8.00652c1.26267,-2.58274 1.89402,-5.39505 1.89402,-8.43697c0,-3.73064 -1.09049,-6.54298 -3.27149,-8.43698c-2.18099,-1.89402 -5.02202,-2.84103 -8.52308,-2.84103c-3.38628,0 -6.42816,0.63135 -9.12572,1.89402c-2.64013,1.26267 -5.39506,3.04192 -8.26479,5.33769l-5.85423,-7.31779c2.00882,-1.72182 4.1611,-3.27148 6.45687,-4.64894c2.29577,-1.37747 4.84984,-2.46795 7.66215,-3.27149c2.86974,-0.80354 5.99772,-1.20529 9.384,-1.20529c4.70634,0 8.72397,0.80353 12.05282,2.41056c3.38628,1.60703 5.96902,3.87412 7.74825,6.80123c1.83664,2.92712 2.75493,6.39948 2.75493,10.41708c0,3.90282 -0.80354,7.54736 -2.41057,10.93364c-1.54964,3.32888 -3.75934,6.62905 -6.62905,9.90054c-2.86974,3.2141 -6.25597,6.71516 -10.15882,10.50318l-13.68856,13.25811v0.51654h35.64195z" fill="url(#color-3)" stroke="url(#color-4)" stroke-width="4.5"/></g></g></svg>
