<svg version="1.1" xmlns="http://www.w3.org/2000/svg" xmlns:xlink="http://www.w3.org/1999/xlink" width="621.70255" height="483.65128" viewBox="0,0,621.70255,483.65128"><defs><linearGradient x1="-70.85125" y1="180" x2="550.85129" y2="180" gradientUnits="userSpaceOnUse" id="color-1"><stop offset="0" stop-color="#ff6666"/><stop offset="1" stop-color="#ffc266"/></linearGradient></defs><g transform="translate(70.85125,61.82564)"><g data-paper-data="{&quot;isPaintingLayer&quot;:true}" stroke-linejoin="miter" stroke-miterlimit="10" stroke-dasharray="" stroke-dashoffset="0" style="mix-blend-mode: normal"><path d="M-70.85125,421.82564l41.72255,-140.87217l-31.34503,-95.3299l64.69756,-76.89518l-75.07507,-149.90276l139.34351,43l117.65007,-63.65127l124.82634,81.00652l66.40654,-45.8601l157.07171,-14.49515l-64.56457,125.87873l80.96894,153.21206l-102.23189,73.60959l85.82752,110.29962l-234.05139,-48.60123l-31.82192,47.56883l-143.84119,-44.01263z" data-paper-data="{&quot;index&quot;:null}" fill="url(#color-1)" fill-rule="nonzero" stroke="none" stroke-width="0" stroke-linecap="butt"/><path d="M82.93035,180c0,-86.74717 70.32248,-157.06965 157.06965,-157.06965c86.74717,0 157.06965,70.32248 157.06965,157.06965c0,86.74717 -70.32248,157.06965 -157.06965,157.06965c-86.74717,0 -157.06965,-70.32248 -157.06965,-157.06965z" fill="#e6f0ff" fill-rule="nonzero" stroke="#cad1dd" stroke-width="8.5" stroke-linecap="butt"/><path d="M128.0582,180c0,-61.82374 50.11806,-111.94179 111.9418,-111.94179c61.82374,0 111.9418,50.11806 111.9418,111.9418c0,61.82374 -50.11806,111.9418 -111.9418,111.9418c-61.82374,0 -111.9418,-50.11806 -111.9418,-111.9418z" fill="#0fbd8c" fill-rule="nonzero" stroke="#cad1dd" stroke-width="0" stroke-linecap="butt"/><path d="M128.0582,180c0,-61.82374 50.11806,-111.94179 111.9418,-111.94179c1.73627,0 5.18026,0.11773 5.18026,0.11773c0,0 2.26988,68.08075 -22.97486,104.03335c-25.24473,35.95261 -85.64524,50.65937 -85.64524,50.65937c0,0 -1.02156,-2.52748 -1.49842,-3.80809c-4.5285,-12.16109 -7.00353,-25.3218 -7.00353,-39.06058z" fill="#ff4c4c" fill-rule="nonzero" stroke="#cad1dd" stroke-width="0" stroke-linecap="butt"/><path d="M319.15479,259.15479c-43.71599,43.71599 -114.59361,43.71599 -158.30959,0c-1.22772,-1.22773 -3.57976,-3.74625 -3.57976,-3.74625c0,0 47.61404,-33.56427 90.88711,-41.13589c43.27306,-7.57162 95.30318,8.55761 95.30318,8.55761c0,0 -1.06485,2.50955 -1.63318,3.75227c-5.39706,11.80133 -12.95297,22.85746 -22.66775,32.57224z" fill="#ff8c1a" fill-rule="nonzero" stroke="#cad1dd" stroke-width="0" stroke-linecap="butt"/><path d="M296.22616,83.16841c0,0 3.49609,2.09589 5.19353,3.21083c35.85283,23.54952 56.45062,66.74263 49.03655,111.79715c-0.28193,1.71322 -0.95731,5.0924 -0.95731,5.0924c0,0 -46.51641,-23.58134 -58.89534,-51.48895c-12.37894,-27.90761 5.62257,-68.61143 5.62257,-68.61143z" fill="#4287f5" fill-rule="nonzero" stroke="#cad1dd" stroke-width="0" stroke-linecap="butt"/><path d="M239.78369,128.64744c-3.98224,0 -7.56054,0.8493 -10.73479,2.54783c-3.17425,1.69853 -5.91567,4.30501 -8.22415,7.81926c-4.50164,6.97 -6.75255,20.58786 -6.75255,40.85351c0,10.19144 0.55791,18.64526 1.67371,25.36136c1.13501,6.69675 2.77021,11.86068 4.90563,15.49213c4.44397,7.08713 10.87902,10.6307 19.30522,10.6307c9.34964,0 16.04437,-4.07072 20.08444,-12.21217c2.01994,-4.15855 3.49165,-9.43001 4.41507,-15.81429c0.92344,-6.38428 1.38515,-14.02782 1.38515,-22.93065c0,-2.98715 -0.02889,-6.3257 -0.08665,-10.01579c-0.05767,-3.69 -0.31739,-7.43856 -0.77916,-11.24577c-0.46166,-3.80716 -1.20235,-7.52639 -2.22192,-11.15784c-1.00041,-3.63146 -2.45291,-6.85284 -4.3574,-9.66424c-1.96232,-2.86998 -4.4344,-5.19332 -7.41622,-6.97001c-2.96257,-1.79614 -6.69478,-2.69429 -11.1964,-2.69429zM239.9568,115.11746c7.04106,0 13.13947,1.16161 18.29518,3.485c5.17498,2.30382 9.55159,5.82795 13.12989,10.57212c6.98338,9.19574 10.47501,26.15214 10.47501,50.86925c0,12.41722 -0.85608,22.8038 -2.5683,31.16003c-1.69281,8.33671 -4.32857,14.87713 -7.90677,19.6215c-3.46286,4.56853 -7.81053,8.05358 -13.04333,10.455c-5.21338,2.40142 -11.34069,3.60216 -18.3818,3.60216c-13.96666,0 -24.4129,-4.74432 -31.33856,-14.23292c-6.98323,-9.48855 -10.47501,-26.35711 -10.47501,-50.60567c0,-24.4242 3.49174,-41.32212 10.47501,-50.69355c7.04106,-9.48855 17.48734,-14.23287 31.33856,-14.23287z" fill="#fbfcff" fill-rule="evenodd" stroke="#fbfcff" stroke-width="0.5" stroke-linecap="square"/></g></g></svg>
