<svg xmlns="http://www.w3.org/2000/svg" xmlns:xlink="http://www.w3.org/1999/xlink" version="1.1" width="68.31758" height="66.63219" viewBox="0,0,68.31758,66.63219"><g transform="translate(-205.84121,-146.68391)"><g data-paper-data="{&quot;isPaintingLayer&quot;:true}" fill="#000000" fill-rule="nonzero" stroke="none" stroke-width="1" stroke-linecap="butt" stroke-linejoin="miter" stroke-miterlimit="10" stroke-dasharray="" stroke-dashoffset="0" style="mix-blend-mode: normal"><path d="M240,146.68391c18.87273,0 34.15879,15.28606 34.15879,34.15879c-0.00376,14.67549 -9.36615,27.71411 -23.27067,32.40815c-1.70794,0.34159 -2.34842,-0.72587 -2.34842,-1.62254c0,-1.15286 0.0427,-4.82493 0.0427,-9.39367c0,-3.20239 -1.06746,-5.25191 -2.30572,-6.31938c7.60033,-0.85397 15.58495,-3.75747 15.58495,-16.8659c0,-3.75747 -1.32365,-6.78906 -3.50128,-9.18017c0.34159,-0.85397 1.53715,-4.35525 -0.34159,-9.05208c0,0 -2.8608,-0.93937 -9.39367,3.50128c-2.7327,-0.76857 -5.6362,-1.15286 -8.5397,-1.15286c-2.9035,0 -5.80699,0.38429 -8.5397,1.15286c-6.53287,-4.39794 -9.39367,-3.50128 -9.39367,-3.50128c-1.87873,4.69683 -0.68318,8.19811 -0.34159,9.05208c-2.17762,2.39112 -3.50128,5.46541 -3.50128,9.18017c0,13.06574 7.94192,16.01193 15.54225,16.8659c-0.98207,0.85397 -1.87873,2.34842 -2.17762,4.56874c-1.96413,0.89667 -6.87446,2.34842 -9.94875,-2.8181c-0.64048,-1.02476 -2.56191,-3.54397 -5.25191,-3.50128c-2.8608,0.0427 -1.15286,1.62254 0.0427,2.26302c1.45175,0.81127 3.11699,3.84286 3.50128,4.82493c0.68318,1.92143 2.9035,5.5935 11.48589,4.01366c0,2.8608 0.0427,5.5508 0.0427,6.36207c0,0.89667 -0.64048,1.92143 -2.34842,1.62254c-13.9531,-4.6444 -23.3638,-17.70239 -23.35607,-32.40815c0,-18.87273 15.28606,-34.15879 34.15879,-34.15879z"/></g></g></svg>
